<mxfile host="app.diagrams.net" modified="2020-08-25T14:45:47.441Z" agent="5.0 (Windows NT 10.0; Win64; x64) AppleWebKit/537.36 (KHTML, like Gecko) Chrome/84.0.4147.135 Safari/537.36 Edg/84.0.522.63" etag="5finztNALdJZRS_PwHCm" version="13.6.5" type="github">
  <diagram id="8L3MFtq371BO5zEmcnC6" name="第 1 页">
    <mxGraphModel dx="1140" dy="732" grid="1" gridSize="10" guides="1" tooltips="1" connect="1" arrows="1" fold="1" page="1" pageScale="1" pageWidth="827" pageHeight="1169" math="0" shadow="0">
      <root>
        <mxCell id="0" />
        <mxCell id="1" parent="0" />
        <mxCell id="Sw0YVvMUw1x_Csk0eEdZ-4" value="" style="shape=image;verticalLabelPosition=bottom;labelBackgroundColor=#ffffff;verticalAlign=top;aspect=fixed;imageAspect=0;image=data:image/png,iVBORw0KGgoAAAANSUhEUgAAAvwAAAD2CAYAAACqXFPAAAAgAElEQVR4AexdB5xVxfm9r7+3HdhdmnQ1UWNMsaQYY6LRoMA2WEqwEWNMojGamET/JjH2GLuxU6UuCyyg2HsBRZCu0kFQmpStr9/z/525b5bLusAu7Fu2fBdm79y5U8+9b+bMd7/5xthpGBAnGMg7IO+AvAPyDsg7IO+AvAPyDsg70PbeAQAw+GDj8bg4wUDeAXkH5B2Qd0DeAXkH5B2Qd0DegTb0DpDn1xJ+5ZM/goAgIAgIAoKAICAICAKCgCDQZhAQwt9mHqU0RBAQBASBY4+AaZq1laBfOwbyKzIPexx9rcMYR/tV5EQ6nZZh0WhU3aovb52mpZzrtqWl1EvqIQgIAu0LASH87et5S2sFAUFAEEgKAiS2Wi2UBcRiMeUYToLOcyQSUWUzHv0Ms6ejPxwOq/g889qeF/NkWn2P+dIxjPda4qHb0BLrJnUSBASB9oOAEP7286ylpYKAICAIJBUBkltN7knKNbFnWDAYxHvvvYfXXntNkX2GkaQzDePxTMewbdu24f7778fSpUtVfRl33759mDp1Kl544QXs3LmzNp2eBCS1YQ3InHVvyKHb2dD4DclT4ggCgoAgcDgEhPAfDiG5LwgIAoKAINBgBOySezu5DYVCeOmll3D99dd/jehrwq8L2bRpE2677TYsX74cTMd8Kioq8O9//1sR/k8++QSFhYWYMWOGmmCwTE4KWsqh28120ckhCAgCgsCxRkAI/7F+AlK+ICAICAJtBAE7ca+srMTo0aOxdevWWvWdVatW4Xe/+50i/FoFZ9euXYrQEwKGkbyvXr0ad999NxifRJ75Uqr/z3/+Ey+//DL27t2LZcuW4aqrrlKSfx2nJcCoyb793BLqJXUQBASB9o2AEP72/fyl9YKAICAINBkCJOxa0k5SXlRUhCVLltRK9F9//XX8/ve/V+XpLwHbt29XUnymoxR/w4YNSu3nL3/5i5Lgl5WVgZMHqgg9+OCDmDt3ror3xRdfKGn/G2+8oa4Z51gemuDrOujrumd9X86CgCAgCDQnAkL4mxNtKUsQEAQEgTaKAIktSbvWqafO/q9+9Sts3LixVqL/wQcf4Nprr1UI6Hha7YXXlPbPnz8fzz77LK688ko88cQTePzxx/Huu++CxJ6TgHHjxmHx4sXKvfnmm5g+fbqS/lP1p7EHte6pcLNf+56+A51pu0vvgar6+1PqZAxhW2KhIOIVlYjv3QezuhpmsBpmJAgzHoEJLjBOlKOLU3UxEccBJTa2SRJfEBAEBIF6ERDCXy8sEigICAKCgCDQGAS0JJtpSHi5yPayyy5TEnudz9tvv12rw6+JPu/Z0zL8ww8/xJAhQ7BixQqV15YtW7B27VrccccdeOyxx7Bjxw4l9Wc5/FLAQ39Z0GUd7kyeHQZQDSDIOqsEccCMAibzDMNEBDFEQRquZgYRmhYF4harRxxRRdBVYs43wkA0bqIqGMa+9Wvxxt9uwZ7/Pgy8/gqwbjlQ+SUQ3Y24WQmYYQIFcOlBgv8HEUENIirXw9Vf7gsCgoAg0BgEhPA3Bi2JKwgIAoKAIHBQBGpqapQ1Hkag/5xzzlEk/Z577sFDDz2E22+/HWeccQYeeOABPPzww0pFhyo8JPkk7NrcJi3xnHvuufj1r3+t9PlJ7DkpoHR/woQJKm9a8Hn00UcxYsQIpc/P+405KNknRyfh55lyd0vyTrIfQjxejbgZRBwRwIxbpDwKxEj4oyZnGImUMetelTVzUKHhGuxe8BbeO++XWNbrG1j0ve/gk5GDUT3xCeCThUD5NqC6EqioAoJxi/Sr3MIIsezE9KMx7ZG4goAgIAgcCgEh/IdCR+4JAoKAICAINAgBknYSdhJ3+qlrT4m+JusMowrOH//4R3WfBJ1h77//vtLhp6SeXwXWrFmD3/zmN8oiz8qVK/HMM88oKT7j8voPf/gDqL//6aef4tJLLwV1/FkmVYgafZD1x0jeTUXayesjpp4AWDyet+k4DVCTA04sQjVAcB8Q2QXUfAns2w5s/wpYvho1yz5GxVvzsHvcI1hz8jdR5U1HVUZH7PZkYXtKN6zK/gam5ZyAcf0L8XHJDESqKxExqciTmD/ws4MY9mn0o5QEgoAgcGgEhPAfGh+5KwgIAoKAINAABEjgSfhJ3EnyScRHjRqliDjvkZQvWLAA1113nYqjCT9JOxfravObNMdJfX2eSfAZT99jPObJSQIt9FDCzzCWqVV7GlDVRBRSbMX4LbE9RfNk9XQxS1ef8wBOI6wvANa8IB6NAVW7gZ0bUf7JfKx9uRSLxzyFD279Dz6+5ma8MnIUXhx4EV7+9jewLjcHlS4/KjwBVKdkY0MgG4t6n4QPC4ZgzYQJiGzbimg0iFhCb5+aRKZW7294QySmICAICAKHRUAI/2EhkgiCgCAgCAgCh0OAxNwuzecmW1ygS6JPwk4JPRftXn311YrEM5xpbrzxRhWHft5nOtrhv/POO5UdfoYzLSX4PP/jH/9AQUEBnn76aZSXl4NWfvbs2aPKPlwdD7xvWgr5SmefG39ZknylGZSYB/BWXKn0m0A4BlQGgT0V2F0yEwv/ejNmDR2GMRdciMd++FM89r2fYPqAYrx+w/X4+M6bsf2pe7F10IXYnNsZ2zJzsDy9ExZ9/7vY/p9bEV45H9izBYhUwiTD52JgzjX4JYHVOrCiciUICAKCwFEjIIT/qCGUDAQBQUAQEAQ0MScSJP4LFy5UUnhe8x4JPi3w0Cwnr+kolaeKDw89MaiurlYLfWmHn4t2GY/rAXimXX5a7+nXr5+6x3SU9lO9h2U2+uDq25ilTkNNGkrzeVbqNRTv10SAyhpgTznw5S7g0w3YNfsljD3rPDx18pl4rWgktt39IGpKZqPm3UUILVuF6IZPEd+9EfhiBbbe+X+Y27sXXuncA19ccQUibz4P86vViNdsgWmWWwt3ucswOX9imQDXCDRyOUKjmy0JBAFBoP0hIIS//T1zabEgIAgIAklFgESe5jKvueYa7N69W0ngaZd/3rx5SgeffjpupkXVHB5MQwk+iT0t8pDwk8hzAkBHyz1//etfFel/8cUXcdZZZ6lNuCZOnIhFixYdIeGnVo+J6nAYQZiWi9EqD83xhIBgOcxdXyL4ySpUjBmPtwYNw9jTfoRXf389oi+/Buz6EvjqC2DPDqC8HKioBMr3ATUVKmxrSQnG9h+E2PSZwCcrgPIdQHiPtRpAW+mhOJ8zDDqqFYkOf1LfTclcEGivCAjhb69PXtotCAgCgkATI0CyTtJOFZ7x48ernXFpU3/s2LEYM2aMsql/1113KT+t7TAOJf6U7jMdz5TUr1+/HoxHiT6t+LzyyisqDc1xcmLAONxxl/r/5513HmbPnq3SN7Y5/CZgWcU3EYqHEY6HEKPGfpzEfSfCHy/CxsefRFleAZ787umYV1SIRf+4Bdi8BfjqK2DvLiDGrw8RxM2oWvtLlZwYJy78MrB5J0Ir1gE7v4LJhb4RTiKCljlOfl2I80uHrdZ6HYHo9NhAEa8gIAg0BQJC+JsCRclDEBAEBAFBoJa0k7zrnW85CdATAZJ1Teo1XFTJ0SSeYUxL6T/1+bkRFzfZ0gtzqcevFwYzzebNm3GkEn5yaqrwVNHOvhmDGQ3CjFTArN4F7PwcW2aU4q0rrsaMs36OD4ZehjUP3I+v5r8E7FoPlO8FqmssdZ9gBGY0rsh+edzEnnhcWfNRGkZVgFkNhKgdRH6vTABxPUBiUbCacCRUiNSmXnHEiJcGR86CgCAgCDQRAkL4mwhIyUYQEAQEgfaOgCb3muBrck9yzjBK5rWf1zxI4u3peJ8Hw7R1nqqqKpWWYfprACcGvGaeDDuSg9r7YTOMcKwSUVre2b0TsdfewtIbbsbEs36O0osKsPrhRxBeshDY8bmS+qNyDxAMAeE4ECZ5t1bacoFvNGIiEmWdrMW+sYi11reCEwta/0xs2sUkVTCRMN1vSfnjVCmKowJxpdVzJO2RNIKAICAIHAwBIfwHQ0bCBQFBQBAQBBqFAAk4Jfsk4Tw0IdfqOiTmDNNkXcchyWdY3YNxdRzep+MCXp6ZRk8IGK/xpJ8i9RgQroYZqgA2rMO2J8fi1QuKMLrLSVjy62sQfu1VRHdvRjRWjjh17ivCQFVioy1WjQts2VTON8jmOfGIRIFQVE0IaL+fJj3V7YQ0n9eViKEcUVQn9upVK3bZNsRRzklIXSDkWhAQBASBo0RACP9RAijJBQFBQBAQBPaTe2JBAs6FtiThJP+85lmb1tQTAjvJp5/3eWhCz3R21SCdF8PpSPoZxjOvG34k2HqkGti1A8FX52P17/4Pk/ucjhfPvRjhiZOAHRthVm9DBDXYG65ChBOVoInIPn5RsEg8v0WQwFfDRLUi8FWIxsuBeBUQo65+CNGaSiAUpvgfEYRRjRCCiCDGhcE0vE+7n5zs0EyPHIKAICAIJAkBIfxJAlayFQQEAUGgvSGgibgm9Gw/Sb+WxPNak3M72dc4adKupfX62n6fYfo+y6FOPw/mpyg/eTNNasZjUCo72vANJfFUtUEMcbMGCO8Dtm/FV1NLMbP/EEz7wYVY/edbEXvjXRWO8F7EUIMQomphb5BC+5DFy1kE1fGDcVMR/hqlnhNFFWoQRQ1AFw8mzG4yYUQt1CXJDyOCKGX+JnX/uUCYlWKOCWP8Ca9us5wFAUFAEGgKBITwNwWKkocgIAgIAoLAMUWAZF8pEvFPkEbtSazjSk+euvIxzgsoaA9VIhbZAXPrCmx4+EHM+8VAjD/nfGx48hnE168HKvYBwaqE1D2xC1biRIm+fbUAy0x8K1CTi7jaMouMXbtEDH59UF8guCDX+mel1DkcU+ikcEFAEGgHCAjhbwcPWZooCAgCgkBbR4DUmYSc1i75J27GEIapLORQvV5pzASjMPftQ/TTFVh+/5146oc/wnMDC7GrpBTxzzcBwQrEwzSto6YOFm+nl/w9kX9MbOi09VdJ2icItEkEhPC3yccqjRIEBAFBoH0hQJ5P6Tt16rWjUN/kDCBCizohoKIc8ZUb8Olfb8WD3z0D8y4bhZo331DWeVC9F5Gq3YhFa1ATDu1XD9KEn/b1lUIQS5JDEBAEBIHWhYAQ/tb1vKS2goAgIAgIAgdBwEQcIcRRmbCxrwx8UrQfqgKqdiO6YhlW/vavmPDNH2PB1X9B8KPFwOb1MIP7YEarEDVD2BeuQVDbwqdkvw7hT6wUOEgNJFgQEAQEgZaJgBD+lvlcpFaCgCAgCAgCjUKA7DysDF1Sss91u5ZiThgI7wY2f4blt/4bT598FpZf9w9EP1gG7N0LRKsRqd6LsBlElUmbPCaq7YRfq+Mr7s8lvyLhb9RjkciCgCDQIhAQwt8iHoNUQhAQBAQBQeDoEKB5yyAQD1tMX7F9kvMaoGor9k17FlNP/xHevOIqxJYsB8rLEQ9VI26GEEMUVfEIKs2Y2n2XG2PZVuMqP3k/FwEL4T+6pySpBQFB4NggIIT/2OAupQoCgoAgIAg0KQI0dVljmeOhzUylimMC1XsQXP4B3ho+HLNPPxtVL78Ec+92ROJhRExq5ZPEWwt+qQJEvzKooyX7PCeyi6jvByLhb9LHJpkJAoJAsyAghL9ZYJZCBAFBQBAQBJKLQByxWDUQjyh9nkgkBkTDwJdfYPV99+PZU09H+Z33Ats2IxjZi53xIKoTgnwt0D9Aqk/mryYNlrDfWhAcR1RUepL7GCV3QUAQSAoCQviTAqtkKggIAoKAINCcCHDBLje14h623NiqJlwB1JSj4uU3MO+cAXh98EhEViwD9u1CxAxiD6LKms/XSD6ZPV2C7LMNnBAwSH8BaM52SVmCgCAgCDQFAkL4mwJFyUMQEAQEAUHgmCJAfk5znNXc9dYMw4zsQWzTeiy59u94/qyLsGdqGfDVdqByH2KxMEJmQh+fbJ5qO1qir88JVR4t/bdr+BzThkrhgoAgIAgcAQJC+I8ANEkiCAgCgoAg0LIQICEPmkClaSJI6l+xDXumTMHEH5yPZdffitiajYiHKhGPxxAPh2GGY0p0T0KvRPia2etznWDVWtu9ltV6qY0gIAgIAodGQAj/ofGRu4KAICAICAKtAAFy8RgX10ajiFXuBebMxsSTvoMFf7sF0a92Ih6OKLWcctNERSQKUMc/bio1HVrf4T+K+qkaRKc32WJordoP9XpUQCsARKooCAgCgoANASH8NjDEKwgIAoKAINA6EaAmThX17M0oUPkVFo4chZIf/xx7npuHWLgacc4GolBmNyPcjIuLe03LyGZ9gvuvhekAnuUQBAQBQaCVISCEv5U9MKmuICAICAKCwNcRIOGn1Z1QLAiU78KMM3+K54ddAny5FdFYGLHEqlvrRDE9t+diKjkEAUFAEGj7CAjhb/vPWFooCAgCgkCbR4AUPkQ7+ZFqYMdWTDzlTOx57nlF/uOxCIX5ysyOEP42/ypIAwUBQaAeBITw1wOKBAkCgoAgIAi0NgRMxONRoGof9rz5BuYPvgTYsgEI7QUYTsIftcxrUmdfjGy2tucr9RUEBIGjQUAI/9GgJ2kFAUFAEBAEWggCcWuX3Z3bsezhx1Hx9ESgfBvi1OyneJ8cn87kSQh/C3loUg1BQBBoJgSE8DcT0FKMICAICAKCQBIR4GLdcA2iy5bj7d9ej/DSlYhH9qDGrFBWd2pNb1LSH6clHir3iA5/Ep+IZC0ICAItCAEh/El4GKZpQrt4nJIkOZKBgGCbDFQlz9aMQH2/CfZF7eKg2k6wHLteeQPTzxkIbNuKSNVORBFGNEHvFRSK51PGT8WeIyP8GtP68G4XWEsjBQFBoNUhIIQ/CY+Mg0AsFkOU9qBjMTz//PNqApCEotptlhxwiS8PYszrWbNmQQbgdvtKSMOplR6JKBz27NmDhQsXqt9DW/9N8LevCHg0DOzbgS1PjMaMM38J1OwGYjWK1BMV7sKrxC80zhM1EVOW9hsvkGFZxJm4lpeX48MPP5T+XX59goAg0OIREMKfpEfEQYGElOdTTz1VBoQk4Eyiz0GXjjj37dtXcE4CzpJl60FAT4JXrlyJ66+/Xv0e+NtoiwfbpX//PCNYjdimtfjomuvx9oCRMGPlAK3zxOPKAGewDuG3Nts6MmxYHkn/xo0bcfXVV0u/0xZfMGmTINDGEBDCn4QHysGAZJQHz9nZ2UkopX1nqQd7numIc0ZGRvsGRVrf7hFQxBfAkiVLMGrUqFpJdFsEpm4fgKpKBD+cj8nnno+PfvcXxMxqfvIAIlTesUn4Ke6PUoOfaj1HRvhZNo/Vq1dj6NChbRFeaZMgIAi0MQSE8CfhgZJ8asJfU1ODnj17KlKqB+MkFNnustQDrh709cRK497uAJEGCwIJBPgbWLx4Ma666ipF+PVvpS0CdEDbyvehctIkPHPGWVj50MNAPKTIPsIUCtiMcCbW6lKZp/EKPTigL+eXlEsvvbT2K2NbxFjaJAgIAm0DASH8SXqOHHRJ8Oko4efAdMDglKRy20u2evLEs8Y1EAi0l+ZLOwWBgyLA38OyZctw2WWXKcFDW5sE698+AdC/fRW2YxdWXvMnzLzwQux64wUgSul+wtx+3CL36rsr2X9cWec8Qvn+/rUSWsLPeui6HPTByA1BQBAQBI4hAkL4kwA+Bx8OshwAeO7atWutxD8JxbXLLO0DLP3hcBiZmZlqgtUuAZFGCwLK2qQ1AdYqPbovao3gHKhswyvT+h9LsHWqTCrzmnFEQ0GYGzdj2hln441LL0Fs80ogEgVCprXTVoyTA22Ek3J9K68jwUX360xLwj98+HDpd44ESEkjCAgCzYqAEP4kwM0BgQOtJqW5ubkyICQBZyXVS+TLxYppaWkiZUsCzpJl60FA9zlLly5VOvz6uvW0wKop6T2l8ZbKjb7SrN1i7gwN09KOGYZZU4GK19/A6G9+B2tuvwMo34q4GQci+3V5oibj0zqPjfAzk0YexFR/NVmzZg2GDRsm/U4jMZTogoAg0PwICOFPAuYcEDThZ/ZapScJRbXrLO2En5iLSk+7fh2k8TYEqNLDRbs8+NtobQcpOa1nWoQ/lrCiHwVI4sncI5ZKjiLwsRpg3y5smzINE759JrY9/iRQtQtBSvE5a2BGMUu7J5iwvl8r4T9CaDThX7t2LYqLi1sbvFJfQUAQaIcICOFPwkMXwp8EUOvJUgh/PaBIkCAAKB3+1k74ubbW4uMW4Vc749qk9rwXgQkzWg3s2o7PHn4ME884BxVTSoDgHovw28zzUJ2fhP9oJfx8wYTwy89MEBAEWhsCQviT8MSE8CcB1HqyFMJfDygSJAi0AcJPMq8UbxTjJ0WPIqb2y01I+KNAXAnwqbZTDezYjg//dQcm/uBcxF54URF+brSl7HEmPhVY3F8Iv/xABAFBoH0iIIQ/Cc9dCH8SQK0nSyH89YAiQYJAGyD86iGS7CvHPXGjiCQs5yeYPqIxEyanBeFqYNsOvHrtjRj9g58B788Har5SBnoU4adoP7F2N6xs7x+dDj/rJhJ++ZkJAoJAa0NACH8SnpgQ/iSAWk+WQvjrAUWCBIG2RPgVN7cIfxhRRflNivYp2I/SMEIcqKkCtmzD9OGj8MRPzgNWrACq96j1uorwU/U/Qfgj6rsBrfwcuZUevmBC+OVnJggIAq0NASH8SXhiQviTAGo9WQrhrwcUCRIE2gLh1zo9XHRrWoQ/hCgooTdjdQh/VRWwYQueubgIj5zXH9iwHqgpV18ANOHnvCGqLfRwkqBUhY78VRHCf+TYSUpBQBA4NggI4U8C7kL4kwBqPVkK4a8HFAkSBNoC4edTJEuvQ/gpoWf/SvG90uGPxwAS/jUb8dB5A/Bk0VDgy61AqFy9B/GquMpDE3618DduEf6j4fxC+OVnJggIAq0NASH8SXhiQviTAGo9WQrhrwcUCRIE2grh55OsT4efEv6YNR8IR8NAdTnCiz7Gnef/EiU33wzs2QnEgtZkgeY7lUlOUn3OHqKWWc/EzrucCBzJIYT/SFCTNIKAIHAsERDCnwT0hfAnAdR6shTCXw8oEiQItAHCrzV6rC0E6ljpCdNSjzUXiJoxmMEK7H7/PdwxcBDefOoJYN9XQDxiWeihNZ+oqTbcUoTfJOG3vhyQ/gvhl5+LICAItBcEhPAn4UkL4U8CqPVkKYS/HlAkSBBoA4TfUsHRqvZ17PBz4y3y9piJEK3qx4OIb1yHBU88gZ1LFgLRaph2wh8HQmrrLu7UG7V24IpZHwCE8MvPRRAQBNoLAkL4k/CkhfAnAdR6shTCXw8oEiQItAHCT+n7QXfajViEPxyNoSoeRtQMAsEKZYsflbuBePAAYk9dfxJ+Lv21E34K+oXwy89FEBAE2gsCQviT8KSF8CcB1HqyjMf2D9fEPBAI1BNLggSB9ofAsmXL8LWddpU+vNaLT5xrL2nT3opg+fb/pZzd/q/uNe8daVj8gJxpVd8qiRZ1aD5frdlVtvMp5SdhV/Y4gZi6AhfxRs0wEK4CQjVAnNttcf/dhJK/ZdBHqfRYhJ/K+1z4u1/Cr8u0t/FgYbqddXX4iQAP9kj082x3idtyEgQEAUHgmCEghD8J0Avhb0JQLS5hjaJ1/Irw67C4iRQSfl7LIQi0cwSWLVuOUaN+XT/7tDNRZY6eVDeu/tnPdj/v1nfdFGE677p56RJ1uD2eFbb/Dgm+SX1+npU7kLJbrbNyZKqvp7di7L+n4+xPYy//AMI/tLiW5Ot1ATzTJZYLSLfUzn+P0nxBoCUgIIQ/CU9BCH8TgqoJfT1nIfxNiLNk1aYQqCX8lDjX89upZahqgsw/9lmA+A+FBycF0TgnFsCatWtRnCD89aGoib+CuU29YdIYQUAQaG0ICOFPwhMTwt+EoHKkPIgTwt+EOEtWbQqBrxF+3Tr9W+K19nNGoGYFekMqvRMtI9QJq3vd0HSHiqfyrFuHxPUB6Q4SxobUjacap+ueaGh9cY4gjEkORvhrIbXDq7GXsyAgCAgCxxABIfxJAF8IfxOCerARlLq51OHX90WlpwlBl6xaOwL1EX7+VPRh99cK9xlI4b4+2/06rO65vjiNDdN5NjadPb7dr/Ore64vzhGEHY7wa4zlLAgIAoJAS0JACH8SnoYQ/iYGlQN3Pe4Awm8mdPibuGjJThBojQgcuGh3/8+H/NbuVNvsAeI/EKB68BDC3xp/EVJnQUAQEMKfhHfgUIS/Ht5aH5eVsATHP9TjEbOch0JH7rVnBDTht4Tc2o6OtZBU65XzzPvS2TQOg4MR/tr3rb5OvvameAQBQUAQODYICOFPAu4k/NqKQyQSQZcuXRCNRhFnuBkX1wgM4mYcJPYHc6FQqPZeRkZGEp6mZCkItB4E2M/wWL58OX7zm9+AfZGywXOQvod9UtyyVCnnBuJAwh+J0vQn8Nlnn6F46NADXxAh/AfiIVftCgHV55gmyH3kaHoENK4a58aUIIS/MWg1Ii4JanV1tSKj2dnZKmV944CEHVrAeDDINbHh/XA4rHCmHX7+COQQBNozAvv27QMl/Jdddpn6bRzuNyF90KH7oLr4cMAlphTqrFu3DiNGjFD9Ty3OdRO055dR2t6uEOBvgI7jM8/2r/DtCogkNVbjSXztHKihxQnhbyhSjYinHwTPHBQ6d+6MiJLwxxExIwiLazAGUTOmLGLQKobd2b+WhCMRxOJxZHbIQjRmSTgb8bgkqiDQZhCgLfpIJIRly5bgyitHKdv00WgYZjx6UBc3o4iZMcTUmV8g9XV9Ybx3uDj1pTtUGO9pp/PX1/Z0jQ1ryrysevCLoyI1cROhmiDWrlmL4sFDEItIv9NmfkTSkCNCgFyHk2EtgAsGg0L4jwjJgycixsRVT6zoZ1hDDyH8DUWqEfHs6id8IN27d0dNsCaxX2QcMYhrKAbc9qauwIzX4WhEEQ+eSf5DkTA6dOqoJlaNeB2HbekAACAASURBVFQSVRBoUwiEw0G1qdTHSxbj8ssvQywWQZyTYO5Qq3V3aN1KO4aZvK8dd7PVfn2uG1b3mvGOJkyXo89184rUk39DwhoSh2U2Ml48hlhNSGG4bu06/GrYcMSi3PiLPdP+g1d6ze/+UPEJAm0TAfIeTUjp11/C2mZrj02r2MdoXIl1TU1NoyZVQviT8Nz4IOj055euXbuCkiFKnxtKdCWeNSk6GOGPUpoQiyqnJf+BlIC1CDEJz1SyFARaAwIRSvMRx5JlSzBq1BUwYxGYlACR2JPkR20uQn8UiEXENQaDaAQIxYCoiXWr12J48VBlItiMW4RfE33K3WSn3dbwq5E6NgUC5DtcU6dJP8kp/XI0HQLEk7hSe0SvX6wraDhUaUL4D4XOEd7TD4APhf4+ffqoWRlJfwwxkPaLaxgGnPjs39xeb3xv1i6ApnSfUv6qmmpkdeyg1H6O8LFJMkGg1SMQjUcRjoawbMVSXPnrUQgHqwEOulqiT8JPol/rokA0DERD4hqEAbGKwkwQ/s+WrcTlIy9FNBK19gVJGPzRZJ+En+5A2X+rf82kAYLA1xAg16HEmbyHUmjNf74WUQKOGAFirHElxo2dUAnhP2Lo7Z34gR9udefOh8NP7A6fEym9MpHSKxUpfVOQ0iflwPOhwhi3bvzDhTG/gzmd1n7unSijXwpS6JiWYTqc1zrcnk77eZ9+fdbh9Z3tcbRfn+152MNUeBpSeiccr3uwTrwmplkI9OmIQHog8RH9KB6qJBUEWjECJJqRWBgrly7GcV4vvp+Whp+kpODnKSk4LyUFv0i4C1JS0JyO5R6qfF0vnhtSr4bGa0hejY3Dss9PScHpKSn4XkYHjCoutr6kKItI1rjAEUGTfT4TPSa04ldLqi4IHBIBTUaff/55LFq0SAk7SUrlaDoEuD6CB7F+6aWX8OGHHyp/Q0sQwt9QpOrEYwde25GbUZiqe6csOhFOfU4u8EIE7p5+fPd/V6DP6F+h19jh6D1mGHqNHYbeY62z8h8krCFx6ubF64M5lt139DAc/8wwnPj0MHzjqWH45lPDcfwzI9B9/Ah0Gz8CvceMwDefGoFvPTEC/Rg+bgS6TLDu9Rpr3Weceus2ZphqH8upz9Wtq8bCHq7DrPRD0WtsMY4bz3qPQN/Rw9F3TDH6jR2CnmOK0Gsc2zISP3joCgS6BCx9XBle67ytbe+SHR4PnrWUw+7n52Ve6zCeGaY/iWq/PmtdSF5rHUlKUuh0/ryn82mpiFrDQRTr338TV3bsgGn9TsQ7Xbrjo9xsfJyThcW5mViSk4Ul2R2xKLcjFuVkY3F2NpZkZ+Nj29nur3tPX9cXp96wnGx82Dkb73fNxoKuWVjYuQMW5eRgSXZnLO3UGR/ndMLC3Bx8mNsFH+Z2xZJOuViSnYPFOTlYlJur4i7rlI3lHbOxvBPbkY2Fubn4KKcLFuV0w8edemBJx574uFNPLMnOVe1gPex1sfsbXX8bLky7NDtT1ffFXv3wnxNOwm2Di4BwtVptZCf2JP3265b6zki9BIGmQIB9I4/bb78dZWVlTZGl5HEIBO6//35MnjxZjUmHiHbALSH8B8DR8Au+2rWfamkBA5zJ7if8VJnlQjYTIbj6+tBnzCVIm1qMwPQi+EsLm8X5Sgvhm7HfeRN+lp9aUoi0aYXIoJtahLRpRfCWFsEzowi+0iKklhQha2oR0qcVwT+9CK6ZRXDOKoJ7JutfhJTpRQhMP3g7UhL3GOdQ8Q6NRQECpfnwzRgE1yzWmfUqREppHlJL8+CbPgC+GQVIn1aMbzw1EoHjKOEPyTDb8Ne41cYkEedBiYe2WkBiTlKuSTr9mqQzjH7G0VYkGEZHss+D9+1kn37GZRrGo7/FE3415kaw6Z3XcWN6Ot7p3B2fp2Rhj8+Dcp+BfT4DFV4HKrxOFcbwfV4vyrXz2PwHC2tIHKa1xdvj82JXwI1dARf2+Fwo93pQ7fKh2uXHPp8bu/1e7PYFsNebggqPT6VlvXTdalweBF1u5So9Huz1+VT8Pd40lLszsc+dhX2eTOzzBPa3pU4dGtXGg6St8HhR6XFip9+HFZ06Y3TPvri3oAAIVSdUDxPdD+U96q2S7kjDIOe2jYAQ/uZ9vkL4mxHvxhL+3mMuQcq0YkWo3TMLkUznmVEIOpbhmlkI5yzLOcoKQecss8J5T9eD8Um+eXbMLoRzdqEi2STuKSX7w405Vl6eRFrmofPRfp55X4frMhp/LoBnZj5cswbBmF2oJiKcxHhm5sE3Mw+uGQPgmlWAwPRi9HtmJAI9hPA340/gmBalibwm4xxsNBnX5J5nHV7fZICEXhN8vdiMjdJ+pqFjHsxLTyxYdks9YuyY4hFsfvt13JSWjvk53bHNn4VKtwfVHgNVXgM1bgdq3E5Uud0gea52e0BCXe12H3CuL6whcepLF3S5EHI5UO12IOh2IOJ0IuZwIeJwodrjQJXHiRqXG2GnGyGnCzUuOovgh50uxBxOxA0HYg4Hws799a9ye9WkodIdAF21y4sa1Q53bXv0tb1eRxMWdDmw2+vDqo6dMbZHX9yXIPzWFmf7CX+thL+W+bfUt0bqJQgcPQLsJ3mIhP/osWxIDkL4G4JSE8U5EsLvLylWUnJNvJN1thN8o6xQkWUSZmOuzc0pBMm7Cp9dAEdZPrwzSK7zYTyXD+OFfBjP5yvCnTI9H/7SfDjL8mHMzYcxJx8OppltTQ6YB/0HO+t4jW+vVS/H7EGq7vzKwEmEsywP7rI8GLMGwJhdAM+MYvQaMxKBXgHERcLfRG94y86GBJzHV199hS+++EL5Sc652d3ChQuxdetWJbGnVJ6HJv52Kb2eGPC+3c98dJrNmzdj586dtaSfk4GWfND6Jq3ubH7rdfxfWjo+7NQdO30ZisiHXQboInROJ0ikw06PIt1RRb6diBkk4U7w+sCw+q9r4yTI+wHpEmHMk0Q97jAQSzj644ahwiJO1sdATDsHrx2qHiT6TGsaRq2LJ+IxDcl/yOUEJxR0nEDUrYO+ttf1aMLYhn0eHz7N6ozxx/XF/ST8XBytZfoJpl9L+FvyCyN1EwSaCAEh/E0EZAOzEcLfQKCaItqREH5fSTEcZUX7CXiCJFukW5PvJj6T1NdD9BX5nmVJ+AOlBUgryYd7pkXmFaknsaebnQ9faT46TMlH9uR8ZEzLV5MDNSnQk4a6Z3t52l87uWhM+wpU+cacQTCe49eJIvWFwpidB8ecPBizB8CYUwDXzGIcN24kAr0DiCGUsNzfFE9Z8mipCHBwIXnfuHEjVq5cWSup5y6zd955J+bMmaPu//3vf8cVV1yhmqEl9v/4xz/wzDPP4Prrr8ef/vQnPPXUU5g2bZoi9YyzY8cOXHLJJSoNyyDJ1xMGPRlosbiQZcZD2PzWq4rwL+zUDbs9GYg4XRZhdmjiTBLNMLoDCbWdXDeFn+Q+qkg9JxR+RB0+BF1O7PUb2JViIOLwIG44Ffknmackn9L9vV6qz3iVX0nk3U6EXNbEwGQ7OHlwGogmwpi2KerbkDyojrQhvTMmdeuLB/MLgOpqziotzi+Ev6X+PKReSURACH8Swa0n62Yn/PoBsy4rVqzAZ599VlstDozbt2/H6tWra/VgeZNpeE8PoPY87P7ajBIeDroc3DmgJ+PQ9WHeuh76XLc8FbeROvxU6Wk2wl+XgCfINkk+pf+u0gL4puUjZWo+Up4diMwxF6HD2IuRPmsw3LML4KK0fzbVePKUSy8pQNYzv0SXpy9C1/F5CJTkwT3HUg864AuCnsDUV/6REn5+VaCE/znWnesIWG4eXLPzYJRZhN89oxg9xlqEXyT8dd/WtnmtVXo2bdqkJPpLly5Vv9vKykpF+GnBgOo6vB49ejTWrVunpPj6d84+iOHjxo1T/RMl/Nu2bcOGDRswb948TJ06Fbt27cK7776L3bt3q7RE0t532ZHV9bGHNcSv61Nfev0Vw56Pjs+wuml4L0pJhBnC5ndexc2U8Od0xS5fupLmUzKtSHEt6XfCNOiSS5RJ+GvcXDvgRoU3C3vdadjudmFTwMDqgIE9vnTUuHyIupwIOQ1Ue3zYFUjF5rQUbPZ4sd3txY6AD7tSqLfvRtDtUpMCTlTshF9NApLcFo1VtdMi/FO62gg/7fATfyH89ldW/O0EAfY/PESlp3ke+DEj/Bx4brvtNiU1Y1MpFeNg+9xzz+HWW2/FmjVrMHfuXHzyySdqUNafz/kpngM2HQfajz/+GJMmTUJpaSleffVVjB07VknfXnzxRbzwwgt45JFHVBz9YjUlrHog5ZmDOg+2Sx8Msw/2MS4O1B9xG7Bol4Rfq/Qo0krianMNCWtInFoCrkk3Sbgm+tTTLylARkkRPP85C957fwjPf34I77++C+/fTkLHCQOUpN8/ZaCS5GdOHoSOUwvg/+cpcN10Enx/OwlpN52C3PED0WHGYKX/75hVADqLiLOsAlVebT30JIBqP7b2av+h2uRU+SYI/9xCuGdw0TDXFlgqPY5ZA5Rqkbe0GL0TKj2yaFe/sW37TFUe9gvPPvssHnroIdX/LFmyBB999BH+9re/qb6C5uHY71B6T4k+CT1/0+yfeB4/fjzGjBmjrilQoGWJxx9/XH0dePvtt5VpuT/+8Y9Yvnx5rRCA6XRfYe8T7OH6fkPOOh37RMbnNetHP/tQHjqO3a/j8qzD1Z4U6iqITe+9ir+lp2FB567YGUhHjdulVHkoDScBJ3FVUvWEZF0T2WScOdHgQuFtKT6sD2RjlSsVKxwGlroMzHcaWBXIwleeNIRcblS5ndiR2REr0jLwlteLBYaBRQ4HPvK48VlGABtS/UqdJma41WRF6fTbpf42wq/baW9Tk4Q5DDSU8Ce4v3oq8kcQaMsI6L5ICH/zPOVmJfz2AYeL2Vj4rFmzFCnWhHnmzJnqs/mePXvUvQsvvFDp23IA4wC3ePFiNZi+8sorKj2larNnz8batWuVNJ+f5jkIU49WTwwqKirUYFif9OtoYdYvrG4b26HJAcP0fZbDwbWxhJ+LdmnlxiKtiYWzlLgnVGt4Vgtf7WGK4B4mji0dCfQBKkIJss8yuSg3bWoBOk4uhPH77ujwwM/Q/YmL0f3+8+Ad1RWu6/qh8/g8dJ42BDkTC3DcpMHw/aEnXJdno+ODP0Pnxy6A94bj4b3uRHR7ZqCymOOaUQA6tSB3VhFcVLtJEHtF+rmGIOFU+xJt0/5aLGzhOsw9k/lShchatEsLQmox8qw8eGflwTlzAJxlBfBPL0bf0SMR6CmLdo/2N9Ba0rPPYZ9AST77j88//1xJ5Enq//vf/yqCTyEC+5ItW7YonX6m4e+ZVnn4Wybhp1CB4exPJkyYoCYP5eXlaqLAr4n//Oc/8emnn9bCYu8D6vYJWiBQG7kBHjvB55cEfpFgmF5MzDLo16Rf90e81v2TniyQ+lOhDaipJfzzO3fFjhQSfksdhjr8lIqT+EaVrr5TqdvwWofrc31h+h7P6otBnXT1hVGdp9zrwHqfB/OcbjzvcGGZ34tPUp1YlO5CmduPz1M6oZILbtNTsSAtDSVOF+Z5PViakYGP3F7MMwy8lerBypws7AikI+LwI254EXG4Vduoz68mMYk1AqxHbV0TYQe05yjCmE9DCD/FRkL4G/AjkChtAgHdNwrhb57H2ayEn03i4KOJ980334wZM2aoay6cI8lfsGAB/vrXv6rBlQPUf/7zn1o/Bys9sHGQ5j0uttP6ssz7iSeeUAO2LosDMAdnkv6mPlgXls0z20T/wQ6+2CF+xUhstIIGSPhplrMu4dfE1k74VViC5NOvXd04Oq39TL8i/LaFuiTfnETQuk1qaRE6zRyKzAmDYAz24MQpw3HChCH4zvhhyLzhVBi/cCLrvp+h58Ri9JwwGCl3/gjGuU6c8FQ+jps4BNmTipDx8HkwznLhhIcuQodpRfDNTJDwUi6eLYSbpL+OJL8u4W94myzC7zwE4XeUFcAnhP9gr2qbDudvlZJ4fhVkv6CJ8ZQpU9SXQYbxoCogBQck0zzY9/A3TnUeknymY1ySf0r8ef/73/++Uvm5++67lVoiy9KOaZlGHwzXg50Oa+jZnva3v/0tTj75ZCX8sKsRNTgvZQS4LuHvsp/wuw2E3fuJMAk/F++SkCfTcZJR5XdhjdeJ0YaBKS4X1nXqgC3ZAazI9uMJlw9rUztjr8uH8qx0FedBtwsLcjphbXZnrMvOxct+Nya4DLyd5cfWtEyEHCmIGwGEnLQ05ELYZa1DIBlPZluYN8uocvmwvgE6/EL4G/r2SrzWjoDuA4XwN8+TbFbCz4fLQZIL5qg/S8JPadhNN92kPqvTssWbb76JG264QVnSoD4/d1+77LLLlGSfgyoHYJJ33vu///s/fPDBBwqp/Px8/O9//8MDDzygBmWq8nAw/Mtf/oKqqioVhxOCpjz0BITtWr9+vaoLJYOcuOjBnff0S81htbESfqXSo+zZW+otJOdapcV+ruu3X5PA8/pQYZpg86zjk4yT9Aeo0jOtEMZvs9Fp7CB0GZuHE58qRM4tP4LjYi/S/nMuuo0txMkTf4XUy4+DY0AKej9dgI7ThyFlWhH6ll4K59k+uAs6oNOUIgRmDoafqjalBXBNz4c7IamvT8qvww5X//1tK7CsBlGHfw4nP5aVHqr0eMryQJUeWumhSk8fqvSIhL8pfxItOi9N8O+44w5cfvnlKCwsxN69e5Uk/9FHH8WoUaMUeefg8+c//xkM4zojknX+hvmbnjhxoiL17IcYzokCVXoosDj33HNV31aX8Nf+/m19AfsO5qf7h8acCTLTMw0XETudTrhcLnTq1Al/+MMf8PLLL6uvFxR26HisHwUS+pp5sHxec0cQSvipw39TWho+yO2CXUqlx2lZ56kj4VfmManWk0QXdTgQ9DmwI8WHVx1evOb0YXNaBjamu7GskxtPOjxY4eqAHU4PtqT5cZdh4FGPB8s6dcJabyq2ZHXC+x3S8LRh4PkUDzampaPGmYKo4VcLesu9tNKzn/Ansy0qb4eBSpcP6zLqWbTLh5Fg+UL2W3QXIpVrYgR03yiEv4mBPUh2zUr4Obhw0CGx52LdYcOGqU/kXBzH7X6pmkOiPnToULUIjrq0jEdzeZRecYCidIv5kPDfc889akLAsP79+6t7/CTP/HjQ6sa9995bm0a/XAfBotHBHPA1iaBOcAq3eL/gAjz88MN46623VDtZNy2Ri5uN1+FXi3ZnFdWquNiJebL8dpKt7OKXFsA7vQCu0Rcga/pgRdq/OXYosq7/LoyiVGQ9ORC9JgzFCY/mI6UwG85rTkbOWOrPD4FzWiG6TiiGu7AbXAOykPEsN8UqhI+LfWcUwFGaVzsRYbmqTTYd/sa3kesB9i/adcxKqAvVs2i3Jwl/74CScdaax2v0WyAJWgsC7Huox89+57XXXgN17dnvUL2Huvv8ssi+g/HYD3FNkF0yz/6D0n1K9Sk8YDyt0894P//5z9W6orvuuktJ+O24MK0i1za9e95neGOd7lOY39VXX63IPkm/w+FQLhAI4Oyzz1ZfQEn+2SfqPsheB5ZPNUOWj7hF+G9JS8PCnC7Y7aN+vFOpuMSow5+QUltqOckl+yTI1LOvdhqoTPHhS99x+NzZGTsCqdiU6cSqLl5McnjxqacTdqSnYXm6G38zDDzl8WB9h07Y7UvHzkAGPu6YhsmGgVl+F9am0t4+Cb8X1W4X9vodqPFYkndK35uD8Fe4fViT1RkTu/XFAzTLWXOgWU4+htqd2O0vj/gFgTaKgOp7ZNFusz3dZiX8fLgcGDn48DjzzDPV6mwOSDwYTv+1116LL7/8UsXloMrP79TJ1+kZl4Sf+vocsBl+8cUXqzPN5XHRL8O4kJdqP8yXA11TH8xTD6T8ukApGwddv9+PE044AcXFxbVSQhKEWNySplGediiVHlqNcfXzQVnpmd48ZjlJtrWUvJZkc9EsN9ziPerGl+QhddYQpEzJR+ZdP4F75HFI/+eZyJ00DD3GDUXfe/ojcEEWPH/5HjpOHQajrBi+Ob9C7rgh8A3tDecFGQiMuQiuEurTD7bUeGbSbn49RN9O+hvlp1nOPCiznM+T/HOyZIXtN8tJlaWhOG7sJQmznGExy9nUP44WmB9/r1yMS5K+atUq1cfw98s+idJw9jvsZyixp5/k3953sE/hgl9tpYd9E7cp5+JeCiN++tOfqvgk/HbrY0yn+wmuBaAaIo0TcAExrfs01jEt0zD9gAED4Ha7lZRfE36Px6P6IZ579+4Nfv3kV4f58+fXqjayzbpeYH8cC2Lz26+ChH9Rdhfs9aUqu/Yk+lqvXRFjRY4pGdfWepJzjnOzLLeBajcl8Z1R7eyM3YEAVmc58FaqAx94c7A10BWbMlLwesCBvzscmJaaii9S0hF2p6Pcm4almal41jAwyefA6jQ/qlx+Zc6TG3btDtCyz/7FyElvj2GAhH91Vmc8273P1+3w01iPEP4W2GtIlZKJAPsgHiLhTybK+/NuVsKvi+XA+8477+C0005TUrXf/OY3Sq+WZJ+fyCkl//e//62kaU8++aTS8+fgy5eDjulp95pWfjh4cjAdNGiQukeCf9111yk/JfwcfHmfBwc5Hjof+vVArG408o/Oh/mSJPh8PhiGUTv40p+bm4tTTjlF2eh+ft48VNI+tyo4AhP8pG99UGfNlIU2M6bswruO96HX2EuUrrlFiC379pb0uo5fSbRtYXWvZ+cnpN62OPawsnylxqP16OtK2Z3cubY0T0n53WMvhOvmE+G4Ihf+a05CrwcHou+44Thuyq9w3L394f1FBjL+8WN0LRkJx3Tq5g9TEwL/JcfDcV4q3I+dB++0PHippjSjAM5aQm5bOKwnAOqcqDPrq529fXXDeI8bbKmNt7h4l5MWEv5Blh1+ZZaTXx+GoueYS9TGWyao6mV1PI18BSR6K0KA6jucmJOMU61Q9wtsAn/LVCWkGuDvf/97pcPP+7p/0Oo3lPCT9POaajIlJSVKIEGVPvZbPPhVkVbGmJZ9le6zmIZfDU466ST06NEDffr0Ua5nz57qmmENcYyvXVpaWq1kn/2N3ekJAKX/jEchxMiRI5XZUNaL9VNqjvEYYEaw6Z238Pe0dHyU3QXl3oDSayfZ52633JwqbrhqrfXYrdgkw8/Jhfqa4HEgaqShyp2JNT43XvIaGOMw8Jm/C3Z7O+OLQDreS3XjFocDz2WkYbvfj7DDj0pfOhZ3SMczDgOj/U6szAigwkP9fZfauZf2/A8k/Mk1M0qMKt1erMvsjInd++CBgnwgSFVT7rVrdT/qQ4u65nhljVnqhZI/gkAbRYB9Iw8h/M3zgJuV8HOQITnm+fzzz8eVV16pyDzVYfhZnXr9VN/hxjfaJjYJP3VuOVhqwk41GqoFcWClST3eY348qE5D0k+9fUr4aX2Dh160q/X5mRdViO677z71ReBf//qXKodlNdTxJaXjl4aLLrpIDbyUtnGgpbSfAy0HYF5T2ubxenDCySfj37f9W0n4q8MVqK6uVB0+CT+3uDdNfgUIgYS/xzgS/iHKhKUi+orMJsh7E/u1Gk9dsu+YUwTvc0Phmz0EadOL0Gn6EKSOuQiBR86H6/pvwXVJX5z25HB0Gj8Y3R8eCP8vOyD3n+eg84RieGYOg2f2CHScMAT+S06A88ep8D/2CwSmFSjrP07uxDubm4oV2HbwtaT9+msDd/NtXNupIjQIjrKBandfpfufIPzOWjv8hfCUDkWf0ZckdPiF8KsfSRv/w76CfQ8X5LKvoYRe9yuUvN9yyy04/vjjFQlmP7Fs2TIVl9J/3qdEnb93Tu5plYeDlU5PKT/7EhohYL4sh4fdz2uWzXVL3MiLpkCpRsS1SCy7oY7xue6J/SRVd9i3sJ/hl0U74df+1NRU9O3bVwlRONlh38d684iT7MejgBnHpnffxY3pGViY0xUVXtq4t3bY5W60IadPqcMocl9rkz+5JDlKM6BuB0KGVxH4DekeLMg18HIXmuZMwZfeXHwR6IjXnE780+nAK7lZ2OXzIeL0Y7c3HR91yMSTDgNPeh1Ymh5AuSb8HgP7fAaC7uTWv+5EqMpFwp+DSd3qJ/wU8ZuK6AvhVy+n/GnzCAjhb95H3KyEn03jQMhPy5SSUfpOUs4FcJqIc4CkjizNbb7++uv42c9+pszd8cXQkwVKpmilh6o7lPAzTy7A46DMSQBVgBifn705QOvBl2eGc8LAdKeffjo6d+6Mrl27Kkk8pfGNcUybk5OD4447DhkZGYrYp6enqzMHWxJ+r9dbS/x9fh+8gQCyszth0rjR2FO+SxH8qppqtZi3JRJ+TgC4qNZTWoD0qQXIeDYPXUqGotv0EejyxCA4fuZH9u+/ja7jitDtoYvg+0Umsq77DrKfGgRnWTGcs4agy4TB6HTJiXCdk4bMZy5GoLQI3hlFIOGv3UXYvslWwiyomoQI4W/eHqENl8Y+hr9/SuNJ5nV/RFOdFCxQHZCLYK+66ioleKDqDCcJTEOCTKHEkCFDVL/EPoj9CPsUqgdReEEyzzIee+wxtXCf93UZ7LuYhnnRz4N+HgxvjGNdWC7TcKExBQrsa+jopzS/V69eSsWIEwtObnTZPOvDqlPLJPyU8Ie5biAlBRWOdFS5MpWEfku6F8u7ZWCC4cAbnlR80ikXr6X5cIPDwOQ0L75MS0WVK4BtnnQszumEpx0GxvndWJWRigp3QO0ezA29yoXw69dAzoLAMUNA94HkabSKJkdyEWhWws/BhtIyfhanxJ16pVyYS5LPe9rRNj8/r3PwpeqPDucAxReEn9Lti3YZRj1VHlzIywV5DOPGWxzImZ7XLEdb6uGgya8IHNRZ3vTp09ULx5euIY5fB1h3SvTopyqAXbpPws/Bl2eG8xP8eeefh2uuvx6TJk9CPFSNSJkj7gAAIABJREFUGMKIRC0Vn2Mt4a/V29fmORNqNZSQk+wHphcifexFyJ5UgE7jByF3yhD0nTgczp/44L64I7pMLEbnxwbAV5ANz/CeOHHcMHhmDIFrWj56ThgK/8BcuH+ZgY4T8pEyc7Cl0kPCX3cPAOrrC+FP7q++HefOPoCqg9xwiwSda4C4ey6tg2mCTkECCfwVV1yh+hL2HyTY7DPY97APYX9CAQMnBLTmw911eY8HVRSZp75mXOahiTrjaMJ+pI+C+fH405/+pCT8HTp0wA9+8AO1IJl9IOulJzgsS60hqrMRINObZrxFSvhpE7/S48TezAx85gjgC2cGIq5M7HP7sTozDf81DJSmpmFpTi7m53TEdYaBJ31ubMjKwA63H1+kZGFp1y7KXGdpagDrMzNQ7Qog5nAh5DJQQcLvEgn/kb5/kk4QaAoE2DfyEMLfFGgePo9mJfysDok6B1oOrpTGk2xzINSDIsO5EO7UU09VJJwDGz+fUyKvJWMk5PwywAkBBzYe7733nsr3xhtvVIMvvw5w4e/q1atV/iyDB/NjWXSa/HNA1C+eitSAP4yv0zFvDvr6k7qWuPHLAb88UMWIVkDWrluHYMzS2UcsrAh/NMYFo5a5zmMp4a+78ZYm3cr+/dRBSJmaD+Oarug2ZQhyxw5C18ncqXYwnOf44b4wEx1LhiJ7fCF8V50A4/wUfPupYmRMH4rUqYPRY0wRHOd44P5Vd7WBl3/mYHiowz+zAMYs6tfb9PcThH+/ipGo9DTgdZQoDUBAE1+qDfILIfXsuVP3rl27ar8esv9hv0ChAaXj/Bpp/53Tz9+7/krA/of9GQ+mZb9Aif/777+v4jGMfQ77LqbV/Y/u85iOaRrrmA8PCjRoephfNbmHCUk+y9H50s/2aMLPcrXghHmofFqgSk/U6cAuvxtrMlIx23BgvsOHKk9HBN3p2JLRAffQ+k5GBpZndMTKnFzcYhh4zOfGpx0zsNmfiq1ZufiwY0eMMwy8lJqCLemZCDq58ZYTysa/h2sThPCrF0X+CALHCAH2ezyE8DfPA2h2wk+pFwcdHtSbp4RdD1AM46JdSv6pR89P67SawcGZ4TxI/hlGfVl+BSCp50vDgY7WM2iHn6b3qG9LHVcO2LUDW2JwZXn6qwL9+qVTBTTiD/PV6bl2gJ/Uu3TpghEjRqiBmJOUL774olZyGI1FUUMpG/VmY2HEwU/zEcQSO/C2JMJPws1FvN4ZhUifVYyOM4fCGOxE90mD0XPiYBw3rgj9niqE86JMOC/pjsDcEUiZPgT+W38A4+ceZN94Bro+OxidJxcj7b8/g1GQiczbz1b2/JknCT/zF8LfiBdOoh4VAvyds+8h+dWkV5/5O9aknIWwf+AiX/YrdDz4e9dp+aWS+20wHcMYn/nTr/sbhun+gfe0Y17ar8tXBTTiD8vgwTpwPRPLYZjOV9eB1/SzHHvdmNaK2zIl/BES/hQvVmam4ClK850ubA6kY6c3gI2paSrsfV8KvvBlYEenXIx2Gvif04GPUvzYmN4B6zOz8arLhVKnEx+kpmFbIEMt5qU1nojLANV6eK6rZ5/Ma9Hhb8QLLlHbBQLsg3gI4W+ex92shF8PQhyceJDYUx2G15T8X3PNNWqnXC2FohUeWvLhYjYuVNMDFtNyMOUgpv00t8fP259//nnt4Ec1HZqt4+d75qknGipR4o8eKJmXrl9jzsyG+VLSR6tAWlrIPHTeehDWknz1iick/CT8OvyYEX5l6cYmZU9svkXpPtV5/FPz0KFkMIw/dkf26AHoMb4QfccORuqfToIxwI9ek4phzMyHb+4wdJ00BI5LusM7ogt6Pl2ArmMK4L3hRBhX90T3ycVKNUh9NSiz7OML4be/jeJPJgL698/fJtVx9O+cv0/9W2X5WhWH93lPp9P9Da/1b5p+9ks89Fn3JQzTeeizjqfTq4RH8IdlsA/UB/NnGPOt79Dl2eMwrKUu2uXGW3v9HqzLTMV4w8BMjwfrcjtiU6YfazN8mOXyYLu/A4LOFOzz+PFhZjpKDQNveN1Yn9kRn/jTMdsw8JrXizVZHbHLm4qY4VXmRC3LQ9buuskk+HXzFsJf35spYe0ZAd1fCeFvnregWQm/HnT04EfLFm+88Yb6FE3iz0GYB+9zAObBnXaHDx+uFvjq+3rA5eBFP6Xo1MfnAKgnBcyDEjp+6iYZ5/WxPjSxV0NyPKok/DS/psNbIuFXO+1OL0SHGcVw3XMmnDd/E+6bT4b7zyfCfdOpSHvyQqWTT7Ucx4x8tbC3++g8BP51Oly/7QbX1V3hvvU0pD59ITKnWV8MtPlPpb+v1wzY1XoS6wesdQWi0nOs31spvy0jwE23Wp6VHi7ajXhc2BsI4JOUNLznduIdp4H3XQbedRnY6E5BjSsNpsuDGrcTn6f6sTItBe87HXjX4cAChxNLnH58ltYBn6dmodyTgrjhVhJ9En5K97lOwLK/3zySfiH8bfl3JG07EgSE8B8JakeeplkJvybyfMgk5yTwPJPca2mVJuYk8vTzzHvcaZfxmJZEn4fOh5/X6ddpeE/rznICQD/T6LyPHK6jS6mJfWsh/Nxl1zOjUFnVyZpZjMwplpWe7EncPbcAuRPy4Z1ZCOdsfgnIV85XWqDUdjpMzkeHSfnoNLkAHacVIaukCIFSbnhVqBbq1pJ9IfxH91JJakHgqBBomYSf0nES87Dbhd3eVHzu82FjmgMbOxrYmGXgK48fIacH1PUPOQ2Ue1zYkRLA5+kBbPL7sdmXis0pHbA1NQvbvamocvrUPgLMV9v45+ZeQviP6uWRxILAUSFA3sZDJPxHBWODEzcr4WetNPEm+SYZ5zXPJOuatNvjMVwvhtOEn9c8mAed/hrA9DqMZ6Zl/jodr4/l0WIJP01f1iNhp4UerdbjLSlAGi31lBQhY1oROpQUIa2UakAD4Zw1EJlT85ExvQDuWQVwzMqDe3YBfGUF8E/Pg3/qQKSU5MHPyQH19g+Q4NtUiXQdDrgvEv5j+c5K2W0dgZZL+E1K4F0ORB1+BJ1elHsN7Eo1sC3VQJXXryT71dTH534BTgeq3V7s8nmwK+DHV4E07A5kYo8vXZnjDDs9MA0HVJ6JfQTihiMxCSDxT76UXyT8bf23JO1rLAJC+BuL2NHFb1bCr8l9XWLOa97jocm5fhF4bSf0dgKv7+k0+h7Jvs6rPr+6eQz+tArCbyPblMIrs5xlRfCWDYZvlmVO0zezSEnzHTMHwnhuIFxz8pA9NR9p0/OsDa/m5sF4Pg/GvHw45+TDPysfqTML4Kfe/mEl+rYJgbLYI4T/GLyqUmS7QaDlEv44pfHKUffeq9Rwqr0GKr0k+V5UeR2o8Buo8vNrACcGLtR4XKj2eVHlCyh7/NUO7rzrQ8xhqfMcSPidCcLvFMLfbt53aWhLQkDzPJHwN89TaVbCr5tEgq4XxtknAbyvyT2Jun4ZKJnXljL4NYAH72s/r3V++h7TMi9+DWB6rf+vEh+jP62N8CtJPM1mzsizrOmUDoIxfSCMmXkwyvJgzM2HMa8A7rI8pE0ZAE/pABjPDYIxawCMOQNgvDAIznn58JTlw1F6MYyS/pZ0X0vy9dk2yaiV/tfeE8J/jF5XKbZdINByCT93+uXmWxHDCzh8MJ0OxJ2U+hsIOzyo9jhQlWKgJpWE34W4w6m+CMTcLkQcHoQNr7U7sNMLk/co2ddOTSScapLQXGo9IuFvFz8oaWQjENAcTwh/I0A7iqjNTvhJ0usj9WwDyT9fADoSehJ1+zX9JPBapYfXWqpPP/OlYxk6HfOlX+d3FFgdddL6CD+3Uuf3CPvGWzGE4Dreh55jL4Fv+hBrc6pG7zjbWKJsk6zbCTgX4z43BMbcwTC4G67aEZe28/NgzB4E18yB8E4fAM90kvyBMF7Ig39uITy8//xAFeaaNQjGnDwYz9VRHaol9XXK1uE8H0G7nbMGWV8a5uSrLxTOMqu+TtapjHXimoOh6DP6UgR6BmhfhW/JUT9fyUAQaH0IaMIfw6Z338WN6RlYmNMVFV4fSLi5uDXociHk9CFqeJT+uyLNSVaB4YLaGr+BfX4D1U4vok4/YoYDEer2OwxlcSfscCDsNhD28kuACzGDBN5A1LAcw0xK9h2cDCQmC7WEn+o8bsQMqvo0n4R/fWYOJnXrjQcK8oFgpep3VM/DPxz71GjAEeHYG5lofe+y1Lg1IWC98ta4e/vtd8hOu83w8B64/35MmTxZceKGFrfTMFRUQ3samtBOwpmGJJwEvb5whtkPexym42GPY/fzHuNwMsBDl6EujuEftoi2h1TLTMtKD+k+a8nVBcpKTzyGOAl/Px/6PjMSgZKhcJQVwaCbbTvb/XXv173WcevmoeOpM8l1wYFuNolywpF4zy2E8VwhjLkFMKi2MzdPSfe9M62zYw6J/QC4Zw5UzpjL64FwzCLJJuGnvj7bMTjRloOc1f3EPRU/0e6D1V+3T50Tk4Q5+VZ5ZYMt7MoK4J6dDye/NpQVwVc6HL1I+PsEEtaSDnzfjuFrIkULAs2KQDzOCW8Im+a/hb+kpeGDnM7Y5/Eh6jQU6Q+SVLucSk8+6KHfWviaTL13Rfi9htLbr3Y6EXWSvFs6+FD280nWDURozcdlgGY8SfZj9DstFZ+406mk/ircYVhfB2oJP3X2SfpJ9pOvw8+FwhUuL9akdsSkbj1xX2E+EK5IjAiJk+b47IqkO2rW30CyC6vLX/S15jI86zBdF81bdBx9zbP9sHMfHZf36+ZnT9OsfnI55RLvtWnxIPY68cS7fsftd2JG2WzrBn8H9t+A/i00JEzHqZumvmuWU5+z58Gq26rD6ERfV1HdrJsHZSi2rFXR9kzUw7FlqiLUubbH1/5DpGN55JFKcKx7FaZjAG/GKEgHHrn/AZRMnHIAdz7cu6B5fqMJ/+Eybuv37c8NZhQxREDazxe/Oh5DNG7CjEaAWA3cvX045alL0Xn6SARKh8A3I7kuMGMwDud8M6jDPxjeGYPhKhsMx+wiOMsK4ZlVCN+MQvgTzjOzEG5u3FVWqO7zTOeZVZT0dvhnDEGgdDD83Ml3djF8pUPhLy1WlobSZwxG+qzBSJk1FBmzLkPv0Zcj0DeAoBkCZWtyCALtEYF4mKNCEBsXvIU/Z2Xh/eN6Y6M3DZXOAIION8IOSs7p3GrxbI3Dh+Zw1Q4f6IIJF3L4EDZ8iBjWmdf6no5rP+s66jg8h4z9aXS4jpfMM9cR7HOk4DNfNqb06IO7i/JgRvYihqgS9nAw5lPgWEDhD8do6ZHazq+RRJyaB9RaoJ+OAkmtqsxwXmsNCE3iSe7paKmQYfQznk5PhDSx1/d0PF3msUaRhsfJczRR5ovNHURohD0WBeLBOO6+9Q6UlpUBoTAQ4eakUUTM5LpoPKrKiceiOKij+fSEY2Xt9aKf6Uw2gs8kkY+OEzajoEt2O6z8Y4jwHYvHETLjqEYU0XhE8clwPIY9CGO3GcPd992PqZOmYK96Jg17M4TwNwynr8ViB147N7cRfnbwNWZcSfhhMoYl4T/hkaHoPG4IOo8vTLrrMq4IlhuMLuMSbuwQdB5XhNzxgxNuCLInFCFnwmB0fLYIWROL0OHZIhWWO74oEZfxrTDG4X26TrXxkt+WbuMK0GVcvirXqnsRcicUoNvEAnSZXIjMZ/OROXYw+j40DIFeqYlpsAyvX3thJaB9IKCkQBGsW/AOLsvqgLLjv4El3Xvj0045WN+hAzZmZeHzzA7YktEJW9JzsDkjBxsyc7A+q3kcy9JuU2YOtNNhui7267p+e13XdciB3dnvJcO/ISsHG9KzsCGjMxZ27oPR3zgJtxflIxrco8gA4WfvwzOJEEk/v/NKj9Q2fn6agLM1ei0hN+is7yBJ1wT+cISd93lw0sA0vCbp1wcnBgw/lgdLD8NEUOktJPiPaU1q+Z6rmW0IuPtft6O0bCaisRrEo4wdUQJRCkWT4TjNrut0OaaacpOV1e/sdWPcus5+X+eZ7LOqs2nVl/6Qal9Iob4XVfgSNdiCIG5/4L+YPGUyyu1c9DAviBD+wwB0sNt8+flzVD/BBOFnx646es7euct9OASYIbh6edHn7gHofV9/nHTPhTg5ie6Uu3+JU+/qj1Pvugin3HUxTlFny3/y3Rfh5Lsvhj5/M3F9yl398e07++O0O/rjO7f3x3ft7jYrjOGn0d1huVPv7A+Wldy2XIjT7rgA37njFzj5nl+C9TxZlXkBev7rhzjh3vNw4gP9ccJ/B+C0WwYhq2MACFHMcGw7xoO9MxIuCCQVAb72ZJlxE58uWYhzOmbgzyf2xr0n9MJ/++Xi3n7Zyt3XNxsP9MnF/b274sFeXfFoj854rEdu0tz/euTikZ6We7hXLh5KuAd75+KB3rngWYfxvo77qE7Tc/99lYZ175OL+xLuv31zcW9fK4xpk9kW5v1Ir054/PhuuK1nV1z9jV64fmgRovEaawUXnwEHgdrBgR4GWIQuqc9fMk86AprwcxPRVatWKWKuwzZt2qQmAdxLqC7ZZ8VI2in957pFpqmsrFR7Em3evBlffvkltm/fjh07dmDbtm3Kffzxx2Ceev0jz8f64JtsTWItzR6+1hxu1dQkHAeCYdx1+224+9H78N6qBVi4agEWr5qPJUl0H6+aj49WzceHnxzoFn4yH4s+ma/Kt9dh6ar5oGO6RTbH+HXdR8wjEceeRzLbs3TFfCxdNh9Ll1v1ZPmsK8tcsGoB3l75Id5a9SH+/Nc/o+TZSepda+h7IYS/oUjVicd+vbZPtxF+/iSrohGl0qN2vUQIjm5uZP72VASu6ovAr/sk143qg5Qr9rvAFX0QGNUH/lF94f91H5uzXfP+FX3gv7wv/JfzvN8FLuuLwGV9LJcI913RF/5RVr5Jbc+oPki7rLdyLCclUab/yt7wXn0cfL/rBe9v+sB7ZT+k/fo7CHQKWGpUx1gSUudVkUtBoHkQYKcUAfjZd/GKRejeIwM/OqMPzvpeT5z5wx74ztk98K1z6HriWz/phVN+0gennt0b3/9hL5zxg544/Yc9cWbizOv6whoSx57ujB/uz+f7P+qJ7/2oJ7774574zo974ttn98SpP7HOvGY47zMey1HxE+G8d9rZlvv2T6x0TEv3rYTjfaaxl8n26Ov66tWgMFsbmN93f9wDZ57VE2d8rzdO/34PDL90CMJUJSTz4QDArWXIipTUlhRJCH/z/ACSX4om9w8++CBuuukmReJJ5EniX3rpJWzcuBFvvPEG5s6dq0i8Jv4k8m+++Sbee+89vP7663jnnXcwZcoUTJgwAc8995xyM2bMwLXXXqvSzpkzB3fccQdKSkoUodOqP8lv4aFL4NCqhlelS27TWWOyaAyxUA3uvv92dDz9OOQO+Aay+vdB5oB+yLy4X+J8vOXn9dGE6TwT+WQM7If0Qf2QnmdzvKbjvYH9wDgZddKpug2w7jFOWt5+x7S1aZiubtra+ifackCb6oTpe/p8sLwu6oes/v3Q4cK+6PDLvsi8qC/SB/ZF5oC+yKK/f190GvhNdOx/IrJP7obpJZMRawTfEcJ/6Pf7oHcPRvjZtVOLnIt2EYtYEv4T/Ojz+HB0nDwMmdOGJN11mDoEHaYWK5c5rRjpJZZLm16M1ISjn85+L2U69eOLE3ryxUgprScO78/gvSFIL0luW7KmDUHulCJ0nlyIjJIhyJpWjMySIUjnpmHTBiGtNB++0kKkTB+G7k+NQKBfABH10ZHgyyEItEMEYsC+eAivf7IAPc/rh4vvGYafPpiP7z8+ECc/PQD9xg5En7H56DWuCD3HFaPPmCE4fnQBThydjxNG5+PEZxJn+usJa0icuum+8Uw+TnracvTz/vFj8tFvTL6qS9+x1jXD7XF1Poyr4zNN34Sjn+Gsk6qXvc467DDt0WWw3fQrp9McJOz4cYPwrccH4mePjsC5fytEwbXDUGWGuZTLIvtUaA5ztV8ssbaLswCR8LeFXyMJP8n3Aw88gGnTpim1G0reqX7z4osvKmn8kiVLcMMNN+CFF15QZJ33KL1/6623FNEfOXIkJk6ciHnz5mHx4sUoLy9X8davX4/rrrtO5cEy9OSC6TlxoDvmB6vA95yvNCe1/KKoJZ+xKKKRKtz64L9w/DU/x/Gjf4XjxgxF52eHI5duou1s9+t7jQmrG/fZ4aqcnInDQZedcJ0m7fcznPVgfei6PDscXScMR5cJVt2YpsPk/Y5p/5+97wCv6jjTvr2qdySBRLUd2zEYMO64YGNAuv1eiWYbtzQ77hU3sOOeuDdAQl26XQJsb3azJc2xk2w2beO0zSab8myym+RPNrYBlfd/3u+cERdZFGEuyHDP84zm3Dlz5pwz+uabd775Cu9hXVVPvoXtjH3+gcom8I2VHc2Y0t6EKe0RlHdGUNyt5TVtEVS0NaG6/XKctPlq1K1chLZkO6jsc7CIJwf4D3EE7Qvwk/aFvbPC8BBGqMM/w44Zm9Ygv5eGp0HYEtlNjoQfTPaEH9aEFjGXUXPp0pLJnPLDkvTDmvTDngqKAa4pSQ8+QRhfi8CwnZ506MknBCPvYzv9YZj7QzAOhGDYQfeibCO730EwnxfzIy/qgyUZgj0eFiNjW8IPZ8ILW9wj0YMdsSbUb1krXnqGcoD/ECk6d9ux0APkP3/Bbnzxx2+isnEW5r3YjPq2AEp6PXDFGmFNemFmlOxkGOZEE2zxCOyxIJyxAByxAJxRPee5KttPPl6dsWXuaACFPX4Ud/lQ0hNAKRftvQG4e30oTEaQHwuiOBZCSTSE4m4/iju9KOz0wt3jk2uFibBEBnf1+eU3I4Tn9wVQ2BtAUU8AJd0BlHZrOZ/F71BJvYt825jvONQya8oPd18Q9a2rMW9DBL7rm/Ae7bU0aY8AIUr7qVn8V+yWRHXP3PHR6QGCbQWwM8/VF1DCT8BPdZyf/vSnUveHP/yh6OATrFMVh5J8qveMvf/aa6/Ft771rVFA/5Of/ETUezZt2iTlfO4PfvADkfTzefsD+2phoN5rojnb5vsxqUOpEKnvZzmfI79Ff2d4b9BPpsODRq14D/c9dz+m3LIY+T1NcETDsCTCMJPfZClZE2G4KRDsCaOgl7xF++2MhQUzOFNNcCQjsESD4Lkz1Qx7NAhXTBNaOnsCcPYF4WD9VBOs8RDsSfLFENhGPoWkPUF5hjWeve9Q/WNKhWBKBWEi9ur3wzigYTZHPABbLARXXzPqtl6B6tUL0ZFq19z/7vn36f+M8bMc4B+/Xw5Yyv4lfxda191y0u8yf7Nc1MhH9gD+mVvWwt0XEZBsptebrCUCfA/M6UZoPuw1d5r0s2/ob4QhtQLmHX4YEw0w9F4KQ+9lsCQaYaPLzgG66PTA8HoAhjfocrMBttfCMIlrTq/kht5LYEiugOmLzRJpN3vfofURFy22hObz35QKy0Awp3xwJL0SHMyWCMDd14RZm9bm/PAfkGpzFY71HqBM+W/YhS/9+Oso9c/ArE1hFPcFYE3q458udSX+RhiGVBOMyYju6nZM/IzM+B0f8pxRvq2JAFz0Chb1wdCxDMaeBpjjPhhjXhiiHpiiXlhjPnBSYz1nMgRLKih80hBthJHRvV9bCXOSAggKAAKyu0dAnxfljl8ABPvkR6MB/z7ke++znYEALMkIKtrX4OSHwwhc34z3CZqU5HOI8vwRvIchWXxxAZYD/B+9kUeAqzzt8O2pW79161aRwi9btgxXXHEFvF4v7r33XvzmN78RiT7VeR5//HF87nOfg9/vxzPPPPMBwH7dddfh7bfflg6h5J8LAKoHMXHn4Mknn8T111+Pq6++WhYCCpQTdPNQ70TJP5M6FHCfSM57VRsqJpJqj3km6KcYmRhHS7yogR2uFRQO2oV3cd/z96P8tvNgS0S0IJ8ch5nxeA7zOb0Lkg8U9Gm8QBb9cY3nkB8Y+xpgHtCElIZoAwzdy2BOB5H32irY4gG40xE40mFJrEv+YiTm6GuEsc8jdVypMNzbmrU4Sof5/T/QN8RhjHPEwKc7PDC85hFcZkx7xNW6NRXBlPY1qFo7H52pdojqeA7wZ5Lt4T9n/1KSrwid1tzjAX4JvDXTjvqWtbBHI5of/qwSDCX1jQLWCdglSu72Bhi2NcKwowGm130wpJbBkm6Ee0cA+dtDcCe9cMcb4ZTVJIlqOQz9K2De7pNgXPlpP1zRRrgSXrjov5/RdxPLdL/+WR7MKfra1/3wj/r8Z8RfL8yJBtiSGuCfTcA/NRd46/BTeq7Fj1YP0Gne+/jqO19DmUcD/EV9dLXrgSXVKIkLZu7OUaJli4dglGB2XFRnMTHeB2N4pBpgeiMM8xsRLQYIY2wwMZAec9bbTuGDXs7z14PaBCjBAAOaQIITIqODs15ai8lhSukBCrP5HYz/kSLPaUbV1jU4dSMBf5O4zxshAGLS/X0zLovm0WNQk8J9tAjpuH9bBXYJiJXBLM8JuNevX49XXnlFyv/4xz+Kbv6Xv/xl/PnPf5Z+Izh/9913RTLOAtUWzxXgJzDnIoILhu9973ty31e/+lXZFaC6D3X4WYfPY85jbK7KVLlUmsAfehqim1BlSMx2Ms9V+3x/6opTfeRvknQzFR0HyVKEKmwj7+GB5+5H1S3ngW61zQlNOk2ek61kSfpgS/pgT/hgTWrPEcxAPkD+QB7yWlB4i+WNCCyvh2FINsCQbISx3wfztiAMKS8MSQ+M/X6YB7TfLDdROMJrTH2XCRbJ1neodve8O+MjEfQ3aviNQlt+T38Yxd2rULZuPtrSbRBvkDnAPwGqP4Sq+wL8+qJ31C3noO6Ws04i7RLwEyDrAbCykqvJU4uMK0CfYH+7IpoGmAY8sKe9sMcbYe9djvyoB+4+D8zRFTDJAGHkXdbzwpLywp30wR31IC/hgz3JgdEA446gTnzZ/BY/jGkvZGXLQF+2pJLZAAAgAElEQVQciLJY8sKc5o5Dg6gluaIRzGRgM4m0S6XCg6T+Q/i/527J9cCk7gGqlgztxNvvfB3lDTNFwp8fpUTaA7MO+E0cO2mq+wVgiwdlDHHSzFbiRMaJ1bCDwf7IL7ww9ftg7ffDkvDIpMpta5nMWGcHzxkA0A8bg+txd2KbD0ZO2gwIKJMg2+NkngH8OXnLYiZ738I+ssd9yOttQkXbal3CH8HOEd1toh6oR1jQII14hylC1S0dJzXl5F4uowcE4OrS88xzguHf/va3WLlyJW699Vbs2LEDdMup9PhptMvrb731lhjk0lCXIHo8wM/H8d7bbrsN77zzjgDviy66CF//+tel3UceeUTeSD1ftcOcCw+Wq5Tx6hM6ZVvd3d2SuOjggkU9h23znIe8AxcDGMFfMCyuIGmqolT5BfAPDWN4aCcefPYBVN+0WOz8LHHymeyOR45JCcKpFvrEMBQGiJSc5wTNFDg0iNaDOeWBKeERVRkJIiq7nhSEemBMEVv4YEo0wrQtqNWhZJ1Chx2MVZT9byEPE3UeEXaS3zXCONAAIwG/BEkNo6BnFUqumo/W/jZdynBw//acSs/B9dMHau0L8LOcxC9GuyMMxbIT5ll2TGtdC1ssrEnTKLHOYqJ+/ai0jsQ/mrh6DcDcH4Ar7kdBzI9i6td2eVHUG0RBf7NIrwzbQ5ouP1fOiSCcfX4UUm82FoI7FYaD22MJqghk9zvYR2YOwBQJXY/syxX3gFeI38gBnPbDEYtg+pY1cNYx0m4O8H+AWHMFx1EPMOrTIL71zlsoXzELMzY1wRUPgSDfSDW/NAUB+sQhAFlTmbPH/bCJEfyefLwyVYegl9cz6+yrjDY3RgoKKB3fFoI95Yct5oUj6hMbHQbQc1JnNU4Jmw/GHWHY0wEU9HhR1ONHQdQPZ9QHU4zv74NJVA85kVMFUeUaz6PNknoPqgJq76jyPd+q6sj7T7CeQ749hOKulTjpkQACN4Swi36zCex0/i8nNGoUjz1qFXAckeFH/FMJqBXYzdSTJ+B/8803cc455+Cpp57C2rVrcf/99yOZTIoRbiqVwve//338/d//PTo6OkCJvQLQqkuUhJ+///CHP4iB749+9CORrF988cViF8CFBNWCeCj9ebZDaTwPnqukVH3kwgT/sA0uMoqLi3HWWWeBBsWf//zn5RvpNpQHv1n6QLzUD+M9DOJdsU7UVJdF00EHRCODu7DxmQdQc+NicQBiSVDYQHu/7AFlAmTBIsILMoC+LgwwUjC4PQg7cU86CGfUC2d3I5zpIEwUJFIAsT0IK1WDyAtiXjhTAdgkyCg1DCjhp7aEtrDI5rdobQdgSQRFIGNJEutofFtwEBcn22iroAB/ew7wT5DmD6n6eIBf09wcH/BP3boW9lhYDGa59Zy95IeZkWlTNLgNwZDek/ib16zxINzdflhfvgSWhxfAdO9cOJ9YjNK2AAp6Q7D2acYhhYlmTOu/EnkvLIV54yKY7jkV7pcvw7Q3roG9l+o+/ix+hyatsye8oo4gkv20LuEn4CdoSTfIQKfRTl3LGjHa5QIrF2n3kEg6d9NHvAfIk2S5OzyCt975Jkob52Da5lWwJyK6zRCl/ATVBPwcP9qC3dgfEFVDLWfUbf13OqifZ5TJtYzf49UZLVP3B2Hd3iR695Y+Pxw9XpifXwzjg6fBfP/HUdLmQXmsCXl9QdjifpgTQeR3+1D67CWw3n0a7I+djYqOAIp7AnD1ckGi6/YrftBPvqDxBuM4z/7g9+x5r3Hrj9dGZlmaO49BuHsjmPNoAKEbQhgcZswVCZmDd3UHJpkqPh9x0jouX5/qLpkGrDwnCI7H41ixYgVisRi++c1vCrCnke4vfvELvPzyy+KLn8CfHnco7edBCbk6FOBnGa9Td//HP/6xSNcbGxsF1NOt54YNG0bvZV2VCNIVCGcFLgLUtYnmvHf58uUwmUwwGAwwGo0C/mfPni0LgXvuuQeMOcB2B+lufPcujAwxwvCIFld0ECCdC61zzTu4GxuffRBVNy+GOdmk8xW/tpDnYj4LSQk3R9vWVfwsKQosfXBGPSiJB+F4dQnMD82F6c4T4fjcIhRvXQF7nJoOXjh6GlFEJwJbLoN542kwPbkIpqcWwdF2GcpeIw/1wbGNWCo73zD67uwf8poUjYNDghdpf8ndWdphGan6qFR6rpyP9jR1+PkPUNS1/zwn4d9//+zz6sEA/pEMCb8C/FztckWazUSQT3BvSWjJlNRBPz3yxAIoTa6Ccf1pkkpafCh5bhkM66bBcHkNyl/yoCa1DgXtjLIbhv3h82BoLoPtttNgv2seDFdVwfbQ2ajubYIjvvfKfbxvylwNj3d9f2W818HBqO8mGFP0HkRJHrfjdMA/4IMlEcHU1rVw1juR89KzT5LNXTjGe4A8iWCTDgO+/s63UOqZg2lbVsOeaBoF/FTtERW5AeYE/AFt94x6rKI2F9Jy/h6v7GDqZN4nO3MhGLobUJFejfJWHwx3ngTHE+egoisEy5PnwXbnXFS/6kFFVxiFPUHkbfXAuWEhjFdUwHnvQpiumQrjFZXI/8LFqOqJoKAvJN66RJhBux5K6lKcJLn7F9Lee6930L/lsJWRB/nh6ovgxEf8CF2vA34aeTIOi54o+WTiju9BzsfHOIV+dD6PoFodBPpKiv7rX/9aJPuU7hPUs5yJOwI8gsGgqOc0NTXhi1/84ijQJ2BWhwL8/P2nP/1JVHoYxIsHjYCps08Xn48++qiUKRCv3omLC3r0efDBB2VRcN9994HqP1wgTDTxvrq6OgH6FotlL+DPBQDLzGYzTjjhBGx8cAN+88tfAbuGgN1UVxvRFPn56UwC+Iew4dkNqLxlMYzpyB715VEtg0yNg8N8ntb0+J1i/O8D88JeH2YmV8HxyBnCd2peWYGTtoZh/tRMGFaXwPWFxajqCaG8K4DqNj9MV1bCcPMsGB5eAMMnp8B+z8mo2OqFc8tlyEtTJfswv/N4/ULhxaiglk4IuLNAGyxN5ciUDqO0axXKr9CNdtn3e8hVaGZff3KAf189c4By9i8ZuQzjYRrKkbVr/lCVSs94gJ+6WSSabCVZ7W73wTjgE905DZSrSV2zXK/sDMJwbR3q2+mrP4yq6BrkPbYEhrOssH2GEjf6fW3GlJd9MHpdcN45H/WtIZS3+mF/4nwYLrNh1kuNKIgFxZMGLdqtdNlJib+sTgMy+XICzvTiM9FvFn05pdLD7TRa3OuA30QpJSX8A35Y47pbzjonRmTKPUjqP8D/OHc51wMftR4Q3j8ygjff+SbKGmejfvMqiaehLaw9MnGIxy5ONGltnO6xKeLWOLe4mWugVjvPLDuYOpp6jWqLXjTyYiFMbQ/DsGoK7LfPQ2l3BBa6/uwLwrQsD1X3nYPqVp9MvtVPXgTDmjK4Hj8XNa1BzN4chPO20+C4ZipqWjVXnPTSI2p+siWvqRa5Yj5xFzz6/vxG+Q6V63YC+yxT35xZb7wyrzynqCuCj31OB/xDu2SlxflAxd0iF1Lpo0ZHx/v7ElwzEcgr9R7m9K1P95tUe1GAP7POSSedJF53+vv7ZXeAKjuiDsPdn927BczTKw+99LB96vA/9thjoA9+6v2vWrVKJPb02d/W1iYLBt6XCfqfe+45VFdXS6qpqUFtbS0qKytRVVU14cR2HA6HAHtK9wnwmTMR8FPyr8oL8gswfVod7rrtdvz6P38J4pth8URIlTVNbW1keAgbn9mAypsXwyIaBpoqnzYmOQ6zkDjOX9NsetwE+X1+uOmCN67xiinPXgrLJ+tQ/MJSFLZ7UR1fhanPN8CyZipKrpqNmZuDKG8PYFpLEK5rZqC0heqGQZS82gDDNVNRdd+ZqO9qhqOLglrFC7PwHapvlLq3cu4i3sb4PM142JoKorgngtJ189BJCf8EmEwO8B8iZ2Mfj0puJgD4Rb9e/UOzkZNodnhg3OaBLekRCTkne2XcZo15UdnhhyFchPqOJhRGIyjoDKFucxNMS/Jg9VWiqqMZlVvDcNx2GgzePEx5aimmdTejtC+C4s2NMF5qQ95nTkARt+DTIfHTTx/9hqQuMRQC1dzjEfQTqGtgXVMhUKoEB869umtR6h1rgJ86+wQsJhK/AP6AAP7p9MMvRruUsfG/kztyPXD89YBQ/sgQ3nznLQH80zetlGB75AGU7Gs6/LpHHAX4s8GHMtokz6Ov/8q2IAyX2GFfV4/KxGpY0yHk0XXfmWZU3DQXtZ1hFHf6YFhVCcvaKuS3+VDWHsApPWsx9XMXwejLR/7Gs1HSRbVFGgBrRsDcDqdePQG/8LqMZx+Yx0yUJ3Hi5RY74wpEcMrDSsK/Swy32P/kQJwbRifiHDv6yA1EAmwF+NU5VXyowkMJPN1nEvBTtYZqMaxLYE71mNWrV0swLf6mr37ez0UBXXAyqi515gn4Vfnf/vY3URVat26dBORi4K7vfve7+Otf/yqLBdZToJ/PoYSf7TAabzqdlsR34e+JJu4kzJ07dxTkU5qvwD7zoqIiuU4XpHQX+tWvfg30SkTa3j20C7uGNRXaEV2thAuAhwj4b1oMK8Ex7e+yPh59MND74GsaDyjs9cMV09z20lWn68FFMAQLUPjMxaLd4O7yo3aTH/nr5sC6rBRVzy2X3cXaLyxD5b1nobSb8X4iKOwMwvzZE+G+aiZqXvFJ7A3N7e8h8IwJ9QEXSbSRJNZRboZ57hPX6LakH0W9YZSsm6sB/gmMrhzgn0BnZVYlD5+0gJ/6uQPaFpAYfZDYdIMWDkIGqTFcXobKdgawCaOoI4A5bSthOscOS7BcwH7d1ghcV9TAsGYKpm+NoLgnjLx4Eyp6IjCGKmD2FImerT0d0lxvUZ9WgndxBayIdI+kX7bbJ0T0HFQ5wJ9Jc7nzXA8cqAcmI+DnhG8aCCE/GoIhWAjr1VNR1BOCJc4gXBEYzreh6PbTUdQVRH5PEIalNtium4VC/u70Y3pnM054zgNDuAyFt56K8g4GDaT6DqX83FXU3PHRJR/Psw8wcoD/QHT4Ub+uVHgIsAm41W8Cd/6mSg/BNsE/AT8l+Yye+53vfAc33XQTnnjiCfzsZz/Diy++KGCddegBh378GYWX5wrEs00a+N5www3iyvPnP/+5+PLnLgIPXuehnpW5EGE534dlh5L4XUuXLhWQb7fbRaLvcrlw9tln48477xRPQzRSpuoR6+7apUUVpkR/cGgXdo/sAt3PjgxpeuRHDfDrHrtojO+OcscvAMboYYyOgqcvguHycrifPBeFfWE42z2YujUM17VzYPCVofDFZSho86Fi/Zkof+YyCeDlSDYJ3sm/dyEMl7lR/vRSuBMRzalJ1nlMDvALwU+mP5MW8JMYZXWo6eqKhTml/gT8A5qhbUkiAtezF6K8rwnu3iCqe5tR+sTFMJ5rhvPu+Shv8WPac42wNxTDdOPJqOxugrkvAEcigtL2IOxXnwDT0jy4WlfAngjCQl1+qvJQYqgbz2nb+XuAvxbEZqKTcQ7wTyaaz73L5O+BSQn4yX8GvDD3+1HwhQtQ+twSFPeFUJhoQmVbAIYLXXA9eBZKkqtg3bwChoVmuG85XaJmuuMRlLT5ceKLflhX1yJ/3QxUbPHIZE4eQ7/ZtPWhEwRK+kVlINsTck7CP/kHwod8Q4JbAmgF9HlOgE6JPgH4s88+O6py85WvfEV88tMPP6/TeJdgmXr8Ho9nFNgTmFOa/5e//EXejr+5UHjppZcEWNM+gM9j+t3vfofLL78ciURidBeB5byHB98hcyHA9zuUg/ctWbIEVqsVCxYsAO0BqE5EFSMVJVj1A5/NJM/iAkOiTOzC7qHdRx/w6/iGvIBewajyxyRqPV0BOJ6/GIVbPXB10PNXEOWbvTBeMxXWT81EWVcY5d1hmNdMRcUmL1x9DPAZgSMaQvlD58JwjgkVTy6R3UhqKmRdoECvQDkJ/6GQc/bumcyAn1v3YphHolE+ZmVA0KuOFna+NLESRVTniYZR0eqD9bppMFxRicotPtR2N6Hu0Utgv7AArgfPhoM7AtsicA+sRvlmPxxXnwjjhW7YXl0Ke8wPS8wH6pVZqMc/FvCP1UOb0GScA/zZo+Bcy8diD0xawM9ggANeVLy2GhWJCPK6vaiJrcK0V7ywr6tDxdYACpOrYXriPJjOsGDaw5egMN4MUzyIwp4QTnwlCFu4Bvnhaah6tUEkeAT8tImiJw6R7NMNn9gmTFSwMMH6OcB/LA6dD3wTgS0l8wpYswIBL0E9dfR/8IMfCCgmOGZdlVQ9+uAnaOdCgUCf7Sj1H9ZVrjt/9atfjQJ5litgTVedv//970cXHZTwsy3mo8CbmgZ6BF71/Ink/BYG+eKz2A7v5cE887t5Tf1mPrRzF3YN7sRuCTiqR5oTVf6joNIjQk5tDNNOUOwkae+X0kC/MxZCcaIZhb0hUUuu27YOhgfnw3B1JRxPLUZ+ZwD18cthaKpCVVsI9Ppn2NYEW48f5RvPEcBf+eQSuGKhnIRfqOM4/DNZAT8Jnq73xGerAvz66pfBbcwDms69rdeP/HhEVry2B+fDdMN02F64EMXxMCp7Q5j9yCVwX1yI/McugLHPD8Mbq+BIrkT9lggca2bDeL4btpcvhZNbZ1EaCAdEyj8q2VdAPzOfENjnAM4B/uNwaOU++UP0wKQE/Bz35EHbvDDSoUB0OfJ6vCh9cRlcd85DyaselA1cAWdXGM4nlsB8rgOzHl2BvN4IjMmg8KmZL3lhj9SgMDINU17RAX9a8/HtjNO/v67HmwP8H4J6creqHiCoJajmwZxAneBYAW11nWU8CIgJxtUCgeeqjrrO3wTSbIOgPRNcq3aZq7bUdZaxPeZMPHhNJbbFtg/lyHxHPoPPVu0zV8/ks9S5VoFq/IwztFvcYB9NHX4N82TY72TovgvoT4Rgoy5/tx+lPWEUtzTC+JlaOB5dhKLuENydAdR0RGBZW4+KjjAsdEby2io4uwMoWX8GDOeZUPnYhXD2BDTboQnjmAkKFHISfiGxSfXnowj4RZeWkSK3N4k+Wll6NSxPnQ373R9DyTMXoFQCa4WQ1+3DzCeWwrWkEK77zpDBwhUvA1zN2NIEd9MMmC5ww/HKUjipLxfTonZqBi26Dn8m0FfnEx4oOcA/qYg+9zKTvgcmI+AX71zJRjheo8tMD8zJBhT2emG773QU3HwyiuMrYaLUv7cZZU8ug2meBZW3n4PC3iZY0mEU9K9E3QuNsDZVI6+pBpUvLRcJPydzGrCNAv439IXFhPnMBCfknIR/0o+Dw/GC+wLRBL68RoDMQ4Fh9Uz+5jXmBNDMmXhPJsBmO+oa7x0LtnmNBxcR6npmu7z/cBzqHTPbynwvlvO9WTb6TJHmD47q8DMGBQ15j4YOP/kL7XcY0VfUbSRq9x5bQlM8AHcygrL4SrhfuhSG2+cg74F5KOttQkm0CcXxZkxpDcASqkZxV1C8muUlmlDQF0bh3QtgON+CqscvgrNHdxaQbf6SA/yZpDg5zicr4BdQL944aOXNpHvkEBd1mts66tu7egLIb1kB+/pTUb2lETU9jBzplSh07mQINc8vh6OxBIYbTkBJTwiGRBD2aBjTW5tREJ4O8wX5KNiyArZer+jJUcJvotEuPfQogD82n/BAyQH+yUHtubf4qPTAZAX8DKDn6FsB+4Afxu6lMH/hLLjvPx31r3iRl2yGKRmGq68Z5Z9fDuNCC0qun4/izhDMUT/yE02Y1RKGIVyB0qtno6aVerralr016RcPPTkJ/0eFQnPveUz0gOD7IZHxS6BLMp6jCPhtYwG/xP/QeUQ0gPzeEFwvLIHprpNR/Ng5qO6IoKIzhOJuOhMIo3prECVrZ8HashyF3UEUtnjEYUDFhnNgONeM2i8shZ0BA3M6/McE+U74IyYz4M802jWlvBnBIvwwbgvD2NcI8+Nnw3rTTEx5YRnKt3ol8ETVlkZYnr8QjoEIClsaYL2yGobVlajZ7ENBogn2VAQV7SFYFjthaSxHWSdDUQfhSIZEh3+/gF/5kp0Q6M8B/gkTZu6G47oHJivgz+8PI6+rAaW9PtifOhP5D34cU1p9mNYWRhk99mxdCmdyJaZsCcFwpgnuq05EVWcEZTuugKVlOeo3+2Hw5aPs5lMxpSOoeelJc4td0+E3UqWHvrhzKj3HNf3nPv4I9cAkA/wqwCeN9xmbR2J0DGjuwEvizXC/cCmMt52IokfPRW2LH3N616KyxY+8Fy9FUacfla1+1N15JlwvXYLqvmbU961CWZsfVevPguFCB2pfbIAzzgB/OaPdI0Rhk+sxkxbw01PF9j1uOW0Jr2x3ifcK2eoKis69cU0JZr3sw8fbVqFmawDTk2sw/dllMNwyGwyk5YoHYbnjYzBcasFJr4ZQ0uaDqbNBjF6MF9pQev3HUd4bgjMZgj2phboX15tjpfr8PeqXf4Jb5zkd/slF9Lm3mfQ9MFkBvy3mgXXTEszuCMN4eSmKX7gUdd3NqG0LofzZS2B+4gxYExFURlfD4K+AM1iJ6pYgnFtWoKgzgDkdTTCE8lHw2GKUdHM3UdtJpI9/TvYMNCixRnKAf9LTaO4Fj4EemESAn1oNSo9feAF1+BmjY5sWaLRwSyNsd34cFfcvwsmdq1G/OYC6l32YviUE18aFyH/xEkzpCKH+6ctQ+MTZKNrSiCktftS1hWG6th7Fnz5RFgTWqOYNTNSGJiS4nDjuyXnpmWRjZNICfk54r3tg3OGBM+5BUa8X+X26y7rtflgGgnBvuQyGS+0wrCgUH7OGFS4YGpwwLLHBetPHRL8/vzeA+s4wSh87H5bramG5/1RY7j8RpjvqUPjYWajvDMIVDcAU98kCgWCfUXZHVXp0kC/leuCtiQ+UnIR/kpF97nUmeQ9MTsDvhyMZhunz58GwogCGS2wwLHdJUD/DMhsMjW64Ni5CQSwMeyKEyr4ILBvOgOXGOci/dz7Mt58M+2dnoPCV5SjoDsAa88NIQQL98FOI0U9VxSM1GecCb03yIZB7vSPRA5MJ8IvbX80lL+15qOYnEv5tAbijARg/MROGi8lnCjSe48+DwZMPw3InLNfVobylEcWxMBy9PhjvmA3b/R9H/lPnwfipOuQ/sAClrY1ipyhBP7MK9NXCIOeW80iQ8ISewYlVwtjzrpFBDIMGPMMSXJHlQ7o+227shHmWHdNa18Ieo39Xv6xGxZBNX5keznPZ0n6d3jC8cMW9KO71oaCPz9QGgbU/iMIOD+rvOhNTbz0D9Xeeial3nIFp689G+e0LUPz0pXDHwyjuDWFqexA1rX5UtXrgfPQMFDy5CIUtS1HS0YjCXh8ciaAE3aIqD11yatF2/eIOi0CfiTpvKh3Kd456HNIj7cp3SKRdRvBrkAnfGm9CPSPt1jn1OJcCeyb0/8xVzvXAsdADNONjyPuv65F26zevFCO0vSLtKrsePdLuoYzLidxDnudIhFDQ6kH+xnNQc9cZqL1zEarvWoTau85A1f3noOLFFSjpC0tMD1uPF0XdQVQ8eymqHj0frofPQsVWP0p6w3BGg7CkQpqd0EBQA/39NKaj4wC6HdakfRN5v4nX9cKS9KOk84ORdjkBfCDS7rFAWLlvyPVAZg/sD/A/rUfaTRID0EV4dsekaC9s8wsWcMap4sdz7gAG4Y4GUfHohZh655nCc4rvW4Tah85FyR0LUL3+TFR9YQnKe0Kg9J4xhfLbGlDAAF1PnY/CJ87DlDY/yvrCsCYVr8nut2h9RTVs2l9yEaPhKAPxW783F2k3kwaP9LmClcMY1N1TDRPzi8E6Af9uDOE9Av7ZdtS3rIUrGpaJgpNvthIJhoRuTAdhiwfhjAXhiIVgToZgZFTcVAjOaAjVnRFUt4UwpTMiurJVXRGUd4SQ3xOCPR6GKxYWv7V5PUEUxiNw9wWQTy8+sRDsvX44E/RXS7d4Pi2l/BJufux3jV5PHsI306NQwgt7QiN+Y4rfRcL3wDigAD+t8yOY2rIWznonhmS6Vf+ZI00RuefleuDo9oAGNnfjKz/+Bkq8szBtS7OAbY0vqPgclCBRIq65mRs7Zg//b4LxIFyxCIo6g6jsIs8Jo7IjJHl5V1gi75LnWBjILxaEMx5BYV8ExX1NyGfEXUbIjIZgi4dh5m5BKgRjKiw8jeeWhJ6S5EOHwGsmcA+jl1Oft6K9Cac8HEDo+hAGh3fRRYn88+nYUDlJpEEjI5HmjlwPHAs9QEoWahZSH8IIBjXAo18YGR7CQ09vQNWNi+GKU6WGLsKzOx41IWoQxlQINp0PkCcwOeJhlHWGMKU9jKqOMEo6QyiNNqOsPYiKrjBKesJwk+9QhTkRhiseFl5T2BNEQW9IPPXQ/74lqXjNkeEvFn2hJE5YKDzVAb8h1QhryofCvhCKrzoNHek2ETIfLG39wWCQqgZ1crA35urt6QHC/V30RzsyPCr2J/3vwhD+RsA/x47pLWvhpgQr6xMSpV0awM96LiA/e4OZiwVH3AuHAH7aAgR1yZ53D+Dv98lAnda6Bs7pTnBHRbwG7Pn35M5yPXDc9AAd+NE3tgB+30xMbWnaJ+Anf2A0SnOWx7G0TzufI8GXZEcxezyJ4MWa9IoQpayjGSc/HETw+jB2D+/WAP+INgUIKBJONKx7MjluSDD3ocdwD5CuZTGrA35yG03Cqa0E6JZz4zOahN+tA37O49kF/cQ8xw5/MafoDUjbGdHUFQn4Kcj1wpBqgDXtRUFfUAB/e7ptQtSmcH4O8E+o2/aufDCAf8aWtXrIZrquVLpa2cr5jCORsvX+e9pVxC86eYziK3q7OuBPNcDUT7d8YdRvWSMS/mEQ8uQk/HtTaO7X8dIDAjRHduPNd76BMs9M1G9uhivOnT1uResSfhV9O00pORfSOZ40EZ5sTHtl8VLU1YwTHgkicEMYO0d2a8BHB0Ta/3fgK88AACAASURBVIF8iGqeWjCj44UGc9957PYAKVpmVzkh9NcBv6j4ALtGhvDgsxtQduti8aRFlZ6JjK1Dr3sk8M6R4JM6sJegqbrXMXGEwnMCfkr4/SjsDaNk3Vx05gD/kR9sBwT8s+3QAH8ERvFTT7WUbKUMghE//MoffzZyPitb38F2CVJ0fTZa3VNnV4z1vDCLPlsDLCk/XNEIZm5eA+c06vDnAP+RHwG5J06aHhCMuRtvvfMNlK+YhVmvNoufaUrZTHsBfgL9kJZkQsnuOBbpVNb5kdJ7zea3sG2vqA/k9zRj9mNB+G8M4/0RLeIo6YAwSGImUcWHu745wD9phkfuRQ5TD4wD+Enp72EIDzy3ASW3LdawzqguejbH5LGEeWh/4JUAheJ1bLuyR9DLU40SbLCoN4zSdXPRlWqbkHwzJ+E/DPQ/Cvip3Uaqp8GurtLzrm60O2szVXoI+HXQKpPsfoJUHfJ1EgbdctKgtVHPM89V2dh8vDr7K+PkykGcjW/Y06ZmhOfV3Gz168Z6jKxHKVuiAbZkAO6+JszetFYH/NRiFhnEYfjP5prI9cBHrAdI+kO78fY7b6Fi+SzMfmWl6MLbEj5QL5SgXxmD7Q3494y5wz+mD8STyGf2x2syr2WeKx6myhr3fFs2+VKa9g+0d2rGLB3wv6cDful+BfjFc0MO8H/ERlDudQ/UAyRywTl7S/j5i4D//g8A/mzyFrZ9IP4ylk8ofsE881zVG5urOkeIv9DT4jYPDAT7FHQKL+M30htZI+xJP4p7wii9koC/fUJwJwf4D0Tc+7tOwh+h/GYQO6nDnwn4abQ7MoT3sROWWXbM2bQW+b0RWJJa8AYazGUn+WVSN6UbsXfiZJ9ZNvY3r02kzCMeh7LzDVrf0LsPLe4lZPYArdWpgsD+88Ge9MIab5CImwT8s3KAf3+Umrt2nPQAWRJGhvAWAf+K2aOA3xHnWNJC0NPIje5zlU59Nsew1jZ5klfnP+PxmEy+NFE+lHkveZJmjJytbyJP4m6JPR5CSWczTtyHSk9Own+cDLjj7DOFvwiP0fhMpkoP1wA7MYQHn9mAilsWw54MwCJGu9nCOqrdTMyTyV/Uucozecv+ytQ1lav7ss9fhG8pfX2Jm0TcQ3fnmjqRKdkIZ0IH/KLS0z4h8WYO8H+YAbsfwE+GP6gA/0w7Tnx1LYq6I7DHg+Ldhh5uspfoueZIpGx+AwFKAK6YH+6YT8AJPXRYxTsQvQR5YYs1ip6gM9qE6bpbTnrpyRntfhiizt37Ue0BsqP3oXkH+wrdcnpmY8amVSiIku8EYE/QCF7zU02wT29cTPSgkz1epHiEtnDPPl9Sz8teTp5U1BNCdWszPr4xiND1YQwqo91MlR4N9edUej6qAyr33h/oAR3y6FLlDAm/SPxpt6556am+cTGKexmrh4vj7I3FPXzr2OEvFHJSOEPhAm2s6IGMRskU1FjoxCTpB1V6iq+ai7Z0uygMji7EPvAf27sgB/j37o+J/RoP8LNMd825e4Q+YzQvPbOfb0Z5ZxMKomHkxY5Giox57tjffKcPU3b4vyk/GkJpbwBlPQT9YeRHtfej9b875hXQb4n7YY81o2bzajhnO7ErB/gnRsO52sdMD3DO/ROAv2IY//iTt1EYmINpm1ciP0pPPUGRDOXFuVgOwJHQxjsXA3lHlCeNx2PG8o7x6hxs2di2DvPvKF35+VHdFsScltWYu96H0A3NGNy9Uwu+MsZLDyeDnNHuMTPEjvsP0SG+9MMIMtxy8gIZ0OAQHnpyA2Z8+gLUdAZR2uVDQTQ0Bnsc5jG5F57K5BPqXOV8rjpX+Xhl6prKM+tk8921tguiARRE/cgT98RaGR0vcMfEJrgnhKJoM4quPh0t6Q4R8rDrD+bIAf6D6aV91dFXtXup9FB/f2gEw8Mj2DW8SwC/qc6KytvPRdFdC1Bw93wU3H16lhOfwcTnqWdm5mPLM68d6D51nXmWv+Ou01Fyx+kovX2ePKvwLj5zPvLumQfn+lPgfuA0OO+bD9f6M1By2/lwVjoxQn/YIlnb1z8tV57rgWOzByhreH8Y2D00jLd/+G24zpyCss8uQv76hXDfOw95985F/vq5yFt/OtzrOXbnQxtTWR7Hwie0sbs3P1J8R/EU9Tszzzw/mHrZ/5aiu+ei4r6FqL5tEerWLkT4U80Y3vU+sJuSnpxbzmNzdOW+ij1Af1O0kiP0ocNZxiBSbjlHdg5RrQEPPbYB5YGTUXLXPBStn4vCbOOEA/KXTB6SeT4eP+H1zDrqtyrLPn8pZL/dOQ8Fd52O/LtPRyHze04XHu66/zS475mH/DsWIG/ZdHRGOzC8U+M7B0OhOcB/ML20rzoHAvxDlDe/D9NUK2puPw9T7jgDdbctzG66dSHqbj0DdbcuGpPOPMBv1h9bZ39lfEZ2v6X+1oWYedMCzLxpvvRZ/S3qmQtQefPJqL3rdNTevQi1d5yFGTcsRkGRE9g5OBoAZ1//tlx5rgeOyR4g4uds/N4Ivv/db6N07hTMuPYM1Nw8H1PvWIipd8xH3e3zMe32BfKbfIJjLNvjWNoXnsTxOx6PORCv2h8fGntvdnkS+feU2+aifP0CVPOb1iwYF/BT4En0T7uuIQxOSM/2mKTN3EcdEz2gAL8m0B/SaJsCNmLOXUOyy/XQ4xtRETwFZXfOQ9Xd84TfZBX3jGKeffGX8XjOeGVjecl4v7PLX8iPp9+yADNumY/6WxYIf55+y0LJybdr75yLmpvnYeqNC1F14Qz0dnYA/6c7izkICssB/oPopHGr6Ko7HzDapYRn97AEXRwc0WT/5ll2nPh0E6ZuCWNqaxBTt2Y5tYYwtZXPiuh55rkqG5uPV2d/ZaEj8B1B1LcEUNfiR2VbCLWtYdS2hlC71Y/aVg9qO/wob/ejvDWME77QDPc0NzBClsR/Tu7I9cDx1wODssM4jK9/701ULZ2DhS9ejtmda1CzNYiaNr+Mneq2AKa0B1Er/IG84kiMZf054/Ik8pn98ZrMa5nniodllmWZt24Nor49iGkdEVHpOe1uD0I3NGFwcLxIu9okkVPpOf7G4bH6xUqlR6NsLmW5mNWd8A+PYPfOndjw2AOi0jOtk3YuHtRuDRwBrLAv/sLysXziQGWsv4862cZubL81gGktxDjk0cRAIUxrDaJmawDVrV7UdzZhTtsaTG2ej86eVm275SAJLgf4D7KjPlBNAf5hzUvP+9ithVAn7dMdm2x/DWJI99Izf/NVmBq7QnTRnfEwcunAfcAw13mxEJyJIEzpCJzxJrjiEbjjIRQlIyhMR+BON6MwdSWmt1wJ50yXqFDljHY/QK25guOgB7jh+NeREYlE8c8/eRvlgVNw4uYrYN/cIL74qRPK5KDhezICR7wZTkkcWwcej7k6Wh8V9PmR39KImZ1r8fEHA/BdH8J7Q++LagM5P0UO/F/ozvj1kuOAAHOfeMz3gK7UIDI16vAT8NNKhcduUWcbwcbnHkbV9eejuMuH0nhIAv/leMdE+KuGeWzJ8KitlTu2B/fkdQeQt8WPoivnoW2gU3T4tf/AgckvB/gP3Efj12APk/rHAfxqwbt7mCo978FcZ8cJzzShuLsZ5mQYxlQ2kxY9k9bdktIMy6ynlB9GlUbL9Hqsn1mWeZ55TZUzFzeZ2f4WPW7B9jAM6Yj0nViv9zTA1MfkgzO2GnWbL4dzlmuPxGH8/1quNNcDx2wPkCXRS8/O4SH84w+/hpLlszH71bUoia2GM0avPJq3DC0WSBiGVBOMKW1MHRmeRP6TwW8UX1F5Jm+Z6Plou+R/2eRJYdiSQVlA1fSsxZyNPnhvaQLjrVDQoCSgjLkF5Yefu44HOyMfs9SZ+7BjoQdGyViE+ppKD013SfcMefkuA289vQFVN18AdywASx9dWWZ7TIb2xi7j8ZNR/jAGF6nyA/EbVS/r30Kco2I1MTBiWDCjcqFs7vOK0Li0dzVK183H1lSHaHGO/l8OQGQfGvAPD4ssY6/HjOhGk0NDJAOAdVTZXhUzfvA6k6qrfo9333hlGU0dsVP5TFFfG8TuDAm/rANYPsIVML30ODQ//H3NMEp0S/5D6VtVzzPPWabK1Xnmb1V3X2VSrgejoO/Wfj0k84AWsdac9MDMsh0+MJIb/Vabk16Y6ft1GyPWMRQ2A3fpYZ3pR3cgIHVHA0FsYxAIPoPvz2BYzHVCVd+Xzvyt18l858zz/X2TBNXg+6rIoOyfAKz9flj66X83CHt8JaZtXgvndCeGsTun0nPERsDRfZDiFft6C8V/9nVdlat6Y3nOeHxmvDLVzmTISf2UuL3542+jpPEE1L/UjLzeMGyJICwc5ymOcRW1mmNUj7Z70ONxHP6kxq/KP9AWx64XhnSjhIY39gdgJN9g5Gz6mu73anxHAs4w2ExQS3JN42Gm11ifAfgUP1M57yVv8wovI2/Yi7dmvkvmufCsMd9ykGUUmtDrUWlnE2ZtaETgpgjeH9mpzV+6GYXMfGoiyDkRmAxD47C/g+IbmRhI8QfFSzKv7esFWFfVY5vq3n3VP+rlRJdjAD9JnQ6x39f98JfddD5scfrJ57jn+B+Defh7bJniH5l55rmqP3ac8rf4rPfqPM6r4RfiGcE0PhjSPpgHNNeWEodkO/ke/ez7YCLGIOYhJtrGKLcaTzEQ5zClPbDtCMMQ90jgVA3DqSjlCgMR4+hJvo2LnMw6+verd5ec/TI2+WFM+0EeqXCVJljVFjWWhB+OWBAFnWEUXzkPHekO2kkf9PGhAb8iVhKqSrt3c9oBBgcHwXPmrMd8X0dmO++9994o0atJXV3n/TxXg21f7WW7nH1Mpi59PcJtLS3wFn/zKyncGVGAf5Ydda1rYY9S8sR/MIkoe4mBGrSkA34S8EAjLAzaEGuAjZPv6x4Yd3jhSPiQF2Xu0Ymdg8ADo4R09sHW1wg3CXmbD0ZOxAL0OTBIwCRKPQmRZ0rvNGC+N0FP9Jt92rtwMPL5snJnG16YCBIIIPoDsMabUb/lcjjrnPp0O4ERkG1CybWflR7g+N+1a9con+BD+JsHeY66rh5OnrGvQ022mbxq504dwGUIK9jG/trZV/tHslzELyNDePOdt1HWqPnhpys6c2pPcBoB2Jwg9TGbTV6kAsYY+hthTK+QSJFmBs+LBWDghEjQz3GcbtCAP39zMt7GCdMP67YwzJS+cYcv1QjDDk7C+oRO4YSezCkPrEkF+ifKZyZYv5/Awo+SzghOftiP0PUhDNI72LCmTEgqlJmOJKfSkSSC3LOy2gPkF+QvCucoLKKwCnEOy5gUb9nXC7EN8hrVHnPyGNUW8wO1sa+2s1qeAfhFpUfwDnHPEDY+swGVNy+GVaTiFCAScE9wjE2kPgWYAtI9cMU8sCcI2vcINYkRjEkfrBQO9vlhjfphfL1Z3stC3/byLC8MrxEvNcL0WgC2NyIwxFdoAtNkI+wDjFXihTkZEP/4DJClLVgUMB+Lg4J76onQkkJStp+ZiGE0YYWRmCtNHtkoiyQRzOgLJVMyJEFa2YfmBN2RB1Hc04TSdfPQmW6f0L/5kAE/CZPAXBEkiZQTrpoo+RYsYz2VDjRZsh7bY64mX7bDMt6buWDgc47mQT5Opi4wYlgD/JpsbXzAP3XrWthjBPwkfG3Fma1crQhlJcvBsF0D/NZUI/ITXliTjTBsa4Qx5QH1UUt7CfpZ5oHhdT2cs6xsvcjv9KAq2QwHJ+moB6beRhijPpi3RbTVKQF/xip17JZ95rWJfy8ncG0gcMdBi0LHAePRAT9DXhPw64G3puUA/9EcE0fy2eQH77//vvAJ5ooPkW8ofqH4DXOW7e/429/+the/UvXJizLbUef7a+toXhN+JID/LQH80zetBPU/OYFwUmG0bZGUU5pOIC0TV3b5kUj3txHULweBOXcbbL1+2BNhmJKUZhG4U/rvgYHv0x+Gpb8JealmOPr8sPf5YI37YeMCJdag1ZNolNyt0HYH2K5FeEW2v0XbBeUCqrgrglMyAf9QDvAfTdo/Us8mD1B8hpiHvEJhlkx+oa7t770Ub2JdhW/YBhMPdX1/bRyVaxmAX6heX9hK4C0C/ps0wC9jOst4R7QYdMDvHgv4KShMUovBD1vcj6JoGM5OH0zEL/2aNN3SH4B5G/mOF7a0H6auy1DQH4a1ZwUc/UFYBgKyKDDFGgXEU6VYA/w6yFdCT5XrfFXwivAz7qiSb+hJ9UeGwEL4H3kgFxwpj86vtfYFzxFjUaMh6YU9qQH+Eh3wC88/SCI4ZMCv2v/zn/8sEy8JUxHqu+++K4RKUM5zdahJVP0em6uB84c//EHuVwNG3TeZiJ+dPHkBv7YK5aSkbYNTQt4Ic7oR7oQHlkQDqJ5jS/lR0RVAVZsXhT2NMHLQvK6vllONsqKtbvejtsWLqr4wKnpDqB+4HGXxZpg6G/YQfQ7wjyXl3O8s94CaHPkY8gUeBP7qNydk8g+WMT/QwTYI+inEYNuZ7R/o3sl0XXpiEgJ+7iYaUpfBFG9AYbIJ5cnVKI41wUI+QlWdAQ8MSe5ChuBKNKGgtwklnUEUb/WgrDuIvLYGlKaaUbx9FdzbIjCOTpoa4NckZEqamGXQ388JOQf4JxPdH6l3Icb561//Ko9TfIf4hHyDx//93//JAoD8Q+GWfb0brxMjKZyj8JNqK/M+PkstAjLLj9r5JAX8rrgH9qQu4aeUf8AHY7QRjnQIBYkwpibXwLV5BWgQa4hrEnbrjhDs/UGYe1egtMePaYlmVHR6UdbtQ3EsAFPPCji3hWEb0KT2mpBkH2B/DOhXAtBxhZ37APyinigCjfEBP22IinqaQMDfnm7XhM4HSQiHDPhJgCRWRdScYEmQmYNAXVPlB5pEeS+TGizqPrbDxGvM+ayjfXykAP8ODwzbG2Hsb4QttgLG2HIY4o2wb12OvM+dg/xHzkJB2zJNZYcS/gFK0H0oSoZwYlsExnXVsHymDpZP1MJ4w0wUP3spqmIrwbDWewh6b0m/kuyr69ogmehEnJPwH206n8zPV7t85AeKJzAn/1C8RPGO/X0H66pJl/XJd5irBQTPD8S79tf+kbw2KQE/pfAE/Nu9sMQakNflRd7Ly2B75ExYn78QFl09j/ZFRclmVLZH4H78AhhvORGWz86A8TN1MN31MVS1elHQsgKO7kZYkzovUVIzXdI/7sSqFgeHK88B/iNJ0pPyWeQHBPeK75BHKKCueA/5iLq+r49gHZUU3+I9igexXbY36Y5JCvgdcU21b9QGsV9T5XFE/bBtvhR5n78AxjtPRn48ApOoKgdh7KcdYADlPUFYHzgdtk/XwXFVBYw3zUD+MxegjDukXStgTGhqxQrbjKozK5CfmetCUOIe7gioRKk/hRWjAguqV+8F/KnR4BXbgtH2xc6KuwR+GFJeWFNBEYgUH0nAT4IkgSvp2T/90z/hm9/8pkyUJFKW//rXvwbL/+d//mevxcH+iJdE/9prr+GXv/yltKEmWrapJng++2gfkxnwK+ISPTBKzwj4dzTCONAIW8oDU6IRhpaLYHjibBhWT4HtuunIb1kKCw1Tdnhh3OaDsz+EkrZGmK+phfXKakx7sQFTnlsG26dnwvTJmeJX18nV76j1eg7wH22aPJ6ez0mQvIG8hbyC5+QRlNJ/+9vfxne+8x2ZkMmHDjRhqnt//vOf46233pI2FK9RE+7YfLL29aQF/P3LYXrdD3PPcthfWgLDvafD0FwK24MLYSFoTzXAlvShItaM0seXwHzdTLhuOxU1r3iQ/8QFMFxbA/utJ6K2PYDSWAi2BLfjMwQIskvAyTOjLPP64TzPAf7JSv5H5L3IT8gniG0UXyAP+dWvfiW8g1oN/E0ewnx/B4UKb775Jt555x25l+3xPtUu7+XzDsTD9veMrFybbICf47+f6oJU7VM2PppTEgc93VCg+cSZMHyyDoYGO4o7A7D3R2DcQV19j3gUqusIwXDdVFQ/fiFO61wF932nw3RlGYqfXwJ3jw+WZAbGyQT3+zrXPf9QMGrTE9vQ1Csz+JQSVowCf+r1U/1H30XYF+C/SpPwTwQNH7KEn6CbhKkA/wMPPICWlhYhTF4jgW7btg2f/exn8bOf/QwvvviiAPl9EZ8iat77+OOPg+1x8lbgnqvp//zP/5QVc+Zg2Fd72S6fzICfIFwD/bonCwX4tzWKnqsl7YO1YwVKX1wO95rpsF41Hfmty2ATw7gGWNM+FHb7YP/cmTCsMGPK4xeivlUL/jD16ctgvNSOvPsXIS8akEHAZyngP7r6zVjhKin/xKVvOQl/tun4o9q+mgDJW5SggWXcbn/wwQfR3d2NH//4x3jqqafwta99bb+fSX7CxEXCddddh29961ujUrff//73o2qJrKP40X4bPIoXJzPgN/99CObOZSjZ6kXRkxfD4i9F0fozYKMhW7IRjmQAFV0huG44DbZgFWqfb0DNFj9mdTSjeMPZMK8sQdnTF6O0KyAeQJSkjJ7GjAT6Sk/2cIL78drKAf6jSOGT49Ff+MIX8MILLwg/IGgnsP/iF7+Iv/zlL4Jz2tvbQd5xIH7B6x0dHcJ3FK6hhP9Pf/oT/vd//3d0h4DXJtUxSQE/7XjEM1C/BvatCR8cqRBcPV6UbmmA7YYTYbjIiCmdYdhj9BYWFNWeokQE1c8tReE9czH9FQ9mtQRRv8kD23VT4bjpBJR10thXl/ArIH4QOV2dO+IBuGIBOOMB2UmwJLV3G8VDwrvoGVFPsuO5f8Cf39eE4iMJ+El8ikBJtATp8XhcgL4izv7+ftx2221CtP/4j/+I8847b5SISdRcLPDedevWYfv27bJi5qp58+bNslDgPf/yL/+Cv/u7v5NJ/JFHHpFBpBYHmQNADSx1je8w0cT2+F60IWDiOZNapavvZT1OrO9RdYA/hnbp7iCHxSUe1/RjvfQcWaPdMYB/O1V6NGLitjkHhLPHj7pNAZRfdRKsV9cjr32FgHdLKoDCRAi1bQHYr6mFYXUZajb7RJ+2rDuM2s0BGH2lsIRKURwLw54OyxaTbSAMgxjg6d57MgD/nsVAxqp2vIn0A2U5wJ9J47nzPT3A8c6xSen+d7/73VEJ2P/7f/8P9957L9544w2R8EejUZlMuRvJe8gfmO/YsQPPP/+88Jd//ud/xje+8Q3hX3fccQc2bdqEL3/5y/jqV7+K66+/XhYCvI+Hul/xG7WDoNrm9YnwHdUuQQMBAgEDy1R55vl4z1dl5FHyDlJALz2TyGiXE9i2Bhhf88HZ50FlZxhTXmiE3V+JyjvPgFWXytmjXlR3hGFcWgjXmpmoa2tCRWcYtd0rMfWFBhhChSi5/eOo6A6JOiGFC6akii1AVcQxRnEf4CcT5T/7qJ8D/KSyY/ogb8kcg2q886M5vp955hkkEgnBBhx7HL8E/BSC/vSnP8W1114r/IR1ebAtgvjPf/7zIggltiHWIb5pa2sTPkOc8w//8A8gP6Kg4pprrhGhp+rovfCHzscy2+f5RBPbJt9Rglt+p/pWvrPiK+od1LcMEbsNM7DoIIZHhjE8NCyg6KgY7XKc61JyzZZH2+kjsLYnfLAybkYsiJqOAJw3nQrDxSbUtIfg7gvCnorAFPWhamAtyj93HgqeXIzajjCmbA1gSqsfxffMh8GXh/LnlyIvGoKZjgPEnfAYL4Vjwb/uZYhOWgrSzajafgWK+1fBEfOLtJ/OCkzESHKfzrcI/PVkFM8+QfFWZhoIw6hcGCcaYO8PazZOV89HW7pNvEVm/n/2d37IEn42+sc//hEDAwN45ZVX0NzcLET76U9/Wgia21vcqrrxxhvxH//xH7LNTmJetWqVSNwU2CeBXnTRRTJxsz1K7CjJ/+EPfyiEz8nb4/Hg6aefFuIjEXJQKaLk/SRKlWcS7P4+fLxraoBzUBqNRjidTthsNlRUVKCpqUlW4j/4wQ/w29/+Fu/v2ike33cPDQrgHwKt7An8tUDqRxPwcyKkVF1bSeoGcfTAw4kqqVmtO3uCqHs1hKorT4bpqulwtTeKuydG4izv8GP608vgWFYE012nwdXJLfcwjOkwijuDsF8+A8YL3HC8ehlcSW3y5aCiT/zRbSgScoa1OncB9tqCP6jJOAf4x6PTXBnwk5/8BJ2dncIXCNIjkQj+/d//Hb/5zW/wxBNPIJlM4u233xZp/ZYtW0TwQL5C/sDJmZMsxzl5Cccz7+N1tkG+xbavuOIK+c17CAB4qAlVAQL+5iKDdXh+KIdq+zOf+QwMBoPwHvKf2tpakJ9yccItf/JHxed4D59JPsoy8i7+npQSfuqpDjSKD31n1I/injCKX/HA6qvE1FvOgDPugyPmgYNB9J69BKbTzai++3wU90RgS0bg7Ath2iY/DM2VcF4xDcVb6FCAPq4DsCYDcEcD4i5v1GXwQfGWfYD5g7k3B/gPhcw/UvcQU6hD4QICdvKGrVu3YvXq1YJ3brjhBgHnVF8mv/nd736Hf/u3f5Mx+4lPfAJ9fX2juIVCRJbxOnnQf/3Xf0l98h2Ob+IjAn1iqYceekh4Ep/NpAQLPOe7MZF3cezLuP8Qev6XXXYZrFYrTCaT4J158+aJgJULD6o58r0Vj1HvMzI0jKHh3dg1QsyjgX0yn6MF+Kn3TrAv+vCi3uODjdL9uCaVd8aDmNLuh/uzp8BwoQnVbUEU9mgB9OyMQL7VA8Paari6Ne9hjkQY+T1BFK9fAMMFZlQ9egEKe0MwJXT3ouJtUdNsIO4xiSt05fVM3zmgIXA6CHdvEDX9l6MivQbuaEgwE1V7CPoNjIsisQo0fsS4AOa05iqUuwPEUwy6xWCJ9M1PF6J56Sbkd4ZQetXp6Ei3YSLTziEDfv7jFRGQ+LxeL3p7e4X4fvGLX4jEnio+lN6TmLkA4CTFxPrqXkrelixZIosCLhw4Uff09OCTn/wkNm7cKNJ9SwrIvQAAIABJREFUbs1zUlWTHHMOGLbDcx5K/5bb+5TWMZ9I4jb+17/+dbn3zjvvHJ10ORDMZvPo7/r6evj9fjzx5JPof+01/PRnP8XI4E7sHnofuwd3YmhkeFw//EdSwq/cTXE7i8F21EBgbqHhSdIPew8n0TAq150C07r6PYA/ERavGNOfXg7n0iLkbTwHeT0E8wzSE0ZxdwjuK2bDeLYL1ucvhisRhDVG/7BaEKy9AD/931K9SPddmwP8agrJ5YejB8hDOHl+73vfE37yr//6r7Kdfsstt4gKIXkC+Q7rkVdwYiS/YHr11VdlscAdgltvvVWEC9yh3LBhg0zmsVhMpPwE2WN5HX+rdigAoM0AeQ7BACf9ifId1ifv4aKFvEaBfnVut9tx8skni8SPuw8EBgQYfAd+mwL9wlPZsZPQSw/dzdE2yB7zI68vDOdmL0yBKky75Qy4Yz64oz6440FYnr4IpoUWzHpkBQp7IzClIrD3BlC/KQhjczXszdUofmWFDviD4uKTqoXkMQZxrfchgPzBgH3WyQH+wzF8J3UbMpZ0jJMJqDnmCLQJyDkWqXZMdWOOyVQqJfyGAJ6qhQqQ80PZHu2NiGu4I0medfvtt8t9xE1c7K9Zs0Z+U7WQQtLMca3OycfoGZFtKIEG80PBPOQ7tEU466yzBOxbLBYwUdhA3lNQUICzzz4bN998M1pbW4Wv/fnPmnBjaBfjDg1JwNHB4UGJQXG0AD9xhTlFQ1ddJUZcdO4B/MQkFEhWdvrhIuC/yISq9iDyeoMi5XclIyjqDIg9I8G5ORYQyT8l+kUE/OcYUPHw+SjoDYEaECLI5O4ihaoqEeMQA1HLgXX0etyBdPf4UZu+YhTwO+IhmOJ+UbuWunQFqifGBaD3RBvbJ+AX/KQtHBg4jNddqTDyO4Io0wH/RNZ6Hwrwq4mQBLhw4UIhYK4KCcZ5cGuLOvxc9XJ1/P3vf19WjpzcSLg8mF966aUC2O+//34hKhq9UKLP1TEHGw8ONBJ95sTNayzjgiAcDmP+/PlYsGABTjvtNHCVOpHEe5l4z9SpU4XwueLlAFCAnxOxmowtViumz5mDCy68AP/8pb/DX/72JwwO7cLgMDe5jqJKj67LSp1WAn6bRNfUgmmJr2oB/Ax5HULN5gjK150C81XTkdfhEV0zunxy9wQwlRL+S4qQ/+A5KO2JwJ6IwJyMoLQrDPeaWTCe44bjxUvgjgVhi/lFHegDEv4c4Bfazf05/D1A3sPEbfBHH30UBN6KV1CiT/1aTrgE/HQCQJ1bgmTeQyEDJfzkMdxR5A4iJ2SWkzdxwUCpPw+2wXY5qfPgORP5ECfMc845Z5RvkPecfvrpE+I7rE++M3fuXJSVlcnEqyRtCvDzNydh8p78/HycdNJJaGxsFDsn7oTym2QBMshJeDICfoJwD0wDPuEV9ngY5q1eGEIa4M+P+lEQ9cMVC8L07BKYFllQu+FSFHQ3wZQMi4R/zqshmCPVyFs5DeWvKgk/dxeDYkvEHUTDdt3f9cEC90OtlwP8MhaO9T8c55nAn7yA6b//+79FU4FqOwTCrMNy4h4F9Dkun3vuOdF24Pgkv6CknDt2BPsUTnAHkdeYKOyk9F89kzkXE2yb96oxzpzCCAJx8g3Fb8g/JoJ3VF1iJQJ78ppMrKMwD3Mm8h3eEwyG8fLLL+PXv/wV3t/1LnYOU8g5NCkAP/GNxBJi3KF+DfBTpYeCAEray7r8cN6oAf6yziBcsbAkWzyIko4AjCunoKA7AGs0AEcygvxoCMX3LIDhbAPKPne+SOdFsEBtBarkEODHfTDHfbDE/bAkApII/HmdKs6sU9ATxFQC/tQauKhGFAvBGNUWB6IGzXp6XXPcCytTwqftACT9MMeDorrIRYE57oErHkRRZwgV1yxAR3orwz8d9PGhAL8C4S+99BIWLVqEe+65B1dddZVI12i0QinahRdeKFvnX/rSl2T1SikYpWYcHIq4Fy9eLCo9NNSl3j8XBtTX55Y7J3LuEHBgcSuNA4AHCZ9tMOcA5Iqb+rY0uqPuG1fSE0nqHq60zz333NEJlhOtSpT2c1Bw4rU57DDbrDjz7LPw21/+B3YOvov33vsbhjm4jzbgZ7AJHfAz6pw1SVdVetJdS5n6QpiyJYLSq0+B9aoZKGz3wBoPwpgMwBb1o+b5FXAuK4L5xlNQ1RZEXncQzmgY5e1h2MJ1MF+Qh8KWBjFGodTOlgppBEpdswx9tpyE/6DHYq7iBHuAEyJ5BtX+CIDT6bTwHqr4XHnllXjyySdF/576spxgCdrJPygkoHSOdkfcBWhoaBB1HvKd119/Xe6l1J67fjQAJv/hpKsO8hwmqgGRx3DinwivyaxLnvWpT31K2jj11FNHt9YJ8slnONmqc+ZMLpdLvpcTPwUpPPhdTJMW8DMwVr9fmxjpA7vDC0OkSlR63F0eFPb6YO3xwvzSZTCcZUbeLYtQ0rMSlngEBT0RnPC8H8aGMhQ312PKq5wQtbD1lkRIm4ipTrgjB/gVjebyD98DHOMKbKsxRsxC+x4u9Al8A4EAqBHAsUibIOIW2g1RN59Yh/rxPNgWz4lPyIvIX6jeTBVCqify/qVLl+JHP/qRYB7iHbZFXsV7mfPZPKfu/9VXXy2LB6oUkf+Qh2TylYM9pwYGBZxKoECeQx5DvkOsQ7VmXuPvadOm4frrPysq2e+/+55oNLw7+K4A/hHisqOk0kMJPz3z0GB3LOAncKYggNLxYqrr3HSK6PCXdAUF1DsSEZhiQVR0RWBvmorirT7ZgWSwwvzeEIrvXgjDuWYUP3YBbPGQ5ppTB+iU7lOl0JFgWyExDranQmLTKAIIAet+FPaGNcCfXC2An+pC5kQQlvSexIUEFw3mGIUitD3wa7sH6ZDEDLCkNOm+JeZBfiKM8p5mTLn2DLQntmiAXzMxOyDRHzLgVy2TAKnOw21xeuWhGg+JmFJ6EjgnVRqzsN7dd98tkylXwzw4QXHRQAkbV78PP/ywED6JntI36v9z0HCAUJqmtrlI+OrgeeZvtncoB9+P9/Kd6FGIhK/APc9J9GrCraysRKS5Cf/27z/E+zvfFx3+EdHo1ybcTMA/hJ0wz7KjrpWRdhkwRo+0S0m8bA/rhhrqXOXqupJCqd8qV/Uyc3XOYBMDGsC36UCfq18ODG0LKQB7rybhL736ZNivmoGSrRrgN/SHYEuHUdMSgDNcAcPV01HXEkJZRwgl0SbUdERgbpoGS0MBSroDskVPQqUhiYGLiW2hvQC/0uPXnpvxrepdM/PMc/07qZsnenlcxIibKy3SrpF6emkt0q4l0YS6lrVw1jkxAgZZOkjqPxRCyd0zaXqABq4E+hQKcOJTB3kGJ0DyH+4+ckIkXyLf4TjnQoES/meffVZ2Iamix51JSuW+8pWvyAKAwJ+/qTKkQDV3ABR/UTxH8TK2q8rUexxszsmcx0033SR8h3yGwgUmxYccDgfId+666y7hlZltq+cy3xfgpz0PeYBE2qWBG3mE7lJXC3ufMTb3x2PUNZWPM2ZH+VrmNfqWHtD0VrlTaGrzwBCpFJWe/C4vChNhUNJW0BGAYYkLjutPQ3lHGHm9IVT1NONjLwZhCJSh4pMnicGdAP5+hpyni86QZj+kJPzq3TLzzHP1XodalvaOBt46+XMBhK4PYXB4l0g52f/8b8rykD9UyvyH5c4nfQ+oMckXJSaQsaXbD9LBCMF5V1eX7Agq1R7yAAolmbMO9fwzXQZT0Ek+RcECVWloF6jUASmUmD59ujgKID8j3mGuApfyHfhO5F08+AwmHoonyY9D+HPJJZcIvlH8JhP0E+ifcsopIiAhRhui7v5u2i0S6wyJ0e64kXZvXgyLOO7ICIaXOd4yzw9lPGbcr1R6RHWZtoqU8A9QnVlLtO0xpwOCV2w3nwLDEhMqO2i0G4YjSkAdEUDuunoOyl5qQHlXGCW9EZR2BFF6z0IYLrSi+KmLYKcqTlID4s5UCPn9TSgYaEbR9lUo2LYS+QPNUuZOR0Dgz10FAnl3LIy61BWoiq9Cfm8QVCGisbC6J6+/Cc50GLa0tlhwpIJw94fA8oL+VShJrUJBqlmrE/OjKNWEmr41mHrdmdga3XRkJPykK65+abTLLXNK2LmyZRkTiZAESik/t6u4zb5ixQoB7WoAsQ4nbQJ+Ei/1Z6m/xnPqpXH7iyCfkjm2yUHHxPsP96EGENvmjoWS6pP4KVGj7v7FF18s23SUCg4ODQpTlyE3TG89XGhogJ/LEXnFkSEME/DPtKN+FPDvLQHPlIYflnMGZxD3TlpkXXFTJbpt3NripE6PGSEUbvXhYy2rUHrVSXCtm4nyLdxKIlgPwjQQQUl7APZPzIDBm4/6l72Y0kWD3QBqOyMwXmyG9bp6ke4T0I+mDMn+YfkWWqoLOGEcAS6QghBw0u+BAP5+DfCbk02obV0LZ70TNJ7WAtwfbgrJtTeZeoDjlUIB6t1zi5y/yW84fjmxUsLFcu4AUEWH+rOsQz5CfkJXeNyF5FgmXyJfUXyLEjvyrUyeoK4dbt7D9hRPI7+jkEEJF4qLizFnzhxRV6SeL3klj/29g/Cjkd2jXnpmvLoSedGIbBGTFzBpi2jNGIx6qDJ+D/vYVR4oVO6H4fUmGGMemcSKXlkBm68KU29cgKrEKpgpGdvWhMIOP0wN+bA3V6K6xY/yVh9O7FuDuqcvgyGSj4IH5qO4N6gJLqizL3r7e/RqDw/fUe+8r9wLM8PbdzXj5IcDCF4fwm4Cfi76qAa2F+Cn5FM3apxMAyj3LvvtAcVPWIk4hWOUB/XzyRuoRsgxSZ7DuhyTzCm1J4in5Jx6/eQbTLxG1eb169eLCjLxDeuo8c/rZ555pghHFS9Sz+a1zDJ5kcP0h+9Go10KGZQkv6SkRFQMuRvB3QTW4cH3GF3AZrrlzCines/GZzag/ObFmg66GNJyHt/XWDoc5XswDwOMShInJXT64YMtFYS9swHVfc1w3PIxGC4246TWZtS0R8Qw19znh7MngJoXlqHi4fNQ3x5BNT2JtfhRee8ZMF1Rg6r/3955wNlVlP1/Uzeb3isgRVBAmvhXX1/bi4oipGy2ZFNJKCpYUEQQBBTpoMgrdoH0bLI1AQKKFRFRiuW1gFIiQnp205Ptv//nO+c+m5ObvZu72bubbPLMfs7OuXOmnd+Z55nfPDNnzrzJ6rVoQrDCs9POsLJCjSmfquGlheHdIz7c1a+iQCMfmanRj8zSgAqWQFMv1t8X6MTKi3TMkmlhSXTO0jz1rZiioeVTNXZFtLY/p6IgGC0wanYvn6S+5ZM1avk0Hb98to5fNkvDi4uUU1Kg3iXsOFSok8ou0YmfPkfFKxYFnRMN/fbfKNpl4acTZZTLqJO3y3lpxRonRSMo7DDBSJZOl84VAaFDpgETl8ECy2g4v+GGGwLhZx0cL6FgpWOJj+XJCJMyySPTzsqgzqy9Y2Q7bty48H4B0/pM0WHpMwFtYG2d2ZJbIfxNEP7js3XsAzOVvQwLfwcT/rCdE2+rX6AeldG++2FtGyPiR3KV9ZPCQJpHLyjQKfdP0ZCL36Les9+kUQ9MDBa2Hg8VhGU9QxbnafBdH1TWud015psf0ch5uRqxKF+D7z1HWR/vqSHf+lDYU7bDBTmM/hm18wJwoqPHWshAIFj4eX+gUEc/OCMQfgZYbuHPtHQcevmhS9hr37blNH2CfNJBsR0w1jTIO5Z+9AaEmWvoK2SaJTvkg4Wf5YFY8DEwYLhgqt72weY9ANKZ4SGTaKB3cORPB8uuYCeccEIg+SxppI7Ui/szUsF5KreH8D+t4eNPVDLht5k+SH73cixW0W43HSvHdOrovXx1K52oQaWFGnbfx9Qrb7jGff7tGlacryx2vVjB0sFJGnb9u9Rr6nCN+s65GvXDC/SWBVM04Noz1PPS0Rr0vXPVrzgxUwnZD1b9xAt09mGcDiUXDC4mhZ0zIsKfp7zPFKiuqa4Fws8aB8h+vaukVA32EA1HHpFNDjMksHEIM4FY3jE2wE3QKcgj8fHf+ta3hpUMbAsMl+C9Ia4hu5B8lhlC/DFGQPi5RjzyZBkPSxHRM5TL7CH6yXRaR0BFGcxWMIPIO0joIAy0LDOywYzxraCDEttvRuvGMWhGONlAoGXCnwlS31oe0aw/W/9mPTQ+OjB6Lo++WAsRH1g8WaMW5iv76rcpa0KOjr9voo6bP0VDlhWq57JJGrhiqgb84KMa9MVTdeyDkzVuUYGG3Xeusi4erX5fOUus+e9Xmq8epbnqX16gMRXTNK50qoYumaycpbnRXvuleRpeOTUQ9cHlhWGZc9ZDecqqyNdbKy7SCUuma8TCAuUUswyoQKMqZ2hM6TQNXVoYvivSfQW6mPX8E8KSnhGlhTqpco5OWjpbIxZNUc6y/PB+wYDSKTpuyYU6Zs67tbh8fucQfhohnSgkmIZw6623BmsbjZLfOIg7y2NoSOy8Q8MhPqNGa8SMlCHTNHzW4jJAwPqGQLBjDyNmdv0hT6z/hCMg1ggzJQSUj6NevAjIAIXyETiEgusIIdepC+dtJfx9lrHrBFs4RbvXmM/UevzcptqTw5J/t5iOJUPhi22Q/fGyJT1s9xR9hRIhyNPA+ydo0C3vU+8po9W9cIhy7nqPev7onOiDXWW5Grxksvjy3LDr365us0Yo+xv/rb7feI96XHGMBl9/psbMnRQIf7vqup/77l6RG0bo0ZIeLJJ5oX58R6AXS30qsPCzr22hjn1gRljSE9nX0h3vZqr1eD6djQAkHP2CxY2lN8glB3qBQQBGBKaimT5HXvHZRIBzOml2yKADp2PDws91ZvZY0kOerK1Hp2Gc4EVedADEO9OOOqNLqBd6D32IZTCaPt8zo2l6h/vjPJVLRfj3LOmhI0QXQFyjJTFxvRI/z5Rskyfb0PXixbbyycqee5763PZudT9vgPrkD1f2Ax9Tt5WFynokXz2XTNAJ8/PV7fI3qceVx2vgtz6gAbe8W91mj9CgW9+tsUtY5oNeYL3+Hgs/U+d80TK5/sm/k3WmXTc/fj1lGGuGy/ITFv6I8Nc3OuFP1Sa7YjgyZjJnfT/6Bn1BuM0ucg3dACchnOUxkHZ+cw0OwTkyjlxjpECGWaaMIZQBBDONDAYwTLD8kDTkBb8iDbqBvDLNeXgu5MmGBvA0ZibQd4HbJL4tQD3soB5NYb/xsJhhz5Ies/CHdxf3tfCbHonLVqowkznz42niYfFwlklHs5bjxW5g0cFSImbiJqlX8QQNWDxJfe77kLpfOlZZH+mpftecpUHfPlc5C8ere8lE9V0xRUMX5yrropHqe/PZ6v/dD6n3DW9T9jVv1ZDvf1SDlkT757Nuf0BlocZUTteY0iINXjRJ2UsmqveyScpm4LA0T8OWFYgPeWVX5oetNAPhL79IJyyeHt4VYGvOfpVFGlE+TcOKCzVgUeKjXhhFuJeKieHl3AFLc3XC8tk6sWSOhi0qjJYfleRpaOV0HbtklsZOP1uLyzqJ8NNYaOg0AixmvGDCuldzCAfLfGjMNGDW+fMhG0a8rJ+lEdGw2IqO9FjYmO56//vfH16GYd0/HSzr+nmplzVvjz/+eBAU0pE+k448ORBO1v1Sf4SMw+pKecThnu3l3NDBpmnh77u0UD3L80Knx0sddFLBT3SILYalEyeWFyQZgtxt+fjwom52GbvvTIje+mb0uCJfPZcXqNvd71HWVScr65PHKeuSMcq68RRl3X2WuhdfoJzyyRpQPElj2MlnQa763vluZd10urJuOFm97n6XRs+fqHEV08IHJPapP3Vp7X5idd0rXiw8+vw0JAGCwNp9SAodel7o1HlBpzfbcJVfEN6J4N2I4++foZxjchIT6k74Mykbh2JeJocYAyD8yC0HpJ53hegoeamO3SwwEjCIx2CAnsHgALlGf9HR8jIanTQzlMxUQvjpfD/4wQ8GncVLesRFF+BnUvdwH+SJw7LHwX1QBr7dp4URTj1SuWTCf9yPpooX0KLPubOcJ0H4Ict0SKw1bUH2WgxL6CKTzxbjtJAXRLxfWZ4GluQqe+kEZd11lrJuOEVZs0cp6+Jx6nbvf6nbQ7nKWjlZWeUTNHxJrob++Dz1vP0d6nbDqcq64XQN+eYHdQx7Ty+YpL5LE4SfQUu4j2hA0bs08kO9qEdcD7VQr3Trv2+8iPAPW1ikt92Sp/zPFCgl4Q/LedzCn6q9HsrhgeAmuAYyanJKnfnwFjOByCMHcstqByz1kHYGBBgWWMrMdTgF3/bg/SJ4DUuh0TvsTAjZ5hqyjq5hiTO6iBd5WemAM/nPNF7UG65jugYfR12otznDwiz5WPj3WcOfRPhZN4++2Vd+ErznAPVJyG8v2WaLS7YfHx/Ko8zomBj4Q/+KAuXc/1Fl3XSWsq44XlkXjVXW505S1o1nKHvBx9T74QJ1K5uofsUT1O+e96nbV09V1i2nK+vGt2rA/R/V0CW5yilhVnGSei7PV9+KfI0sL9K48mkaWTpF/UvzwzeM+I4I7yPxcvCgZbzIy4oE6lagk8vm6M2LpmnM4iINqZymYY/ODvv6s5Ji0OK8YOEPs5zsbLgiV91KJyi7GJ41U8eVz9HQJVMC4e9Tkq/hD83SsUtna0yC8De2ge4c8JIeOh1rHDQKpsj58hwdKo0ZCzmdqTUUBgPsQkFjZjcfXkahE2Y/WRoWpJ8OGmLPoICBAA2ehseLv29+85uDJQ5rm3WC1hgz4VOHuPWM+lBOS45wrrTVwp9M+OMdp52bT6PmPPm3hdtgwa4Hn485JAg/H7phva4RfrangjyHj0Tw5bkleRqxME9HzS/QyEV5Glg8SdmLztfA8jwNqixQn6UTlL34fPVdcL6GLpmkEcWTNWTRRI2umKKRy4vUbcHH9qrfXvWICSPhLV1LLywi/GF/3QTh783WVzHCz1ZVfZzwt9RMD+sw9AqOJTh0svzm5TnIPlY4HHJKp8yuW+985zuDXkLOWbLHNc7RNezqQ6eHsz2xsf5jZWeWAP1jL+6GSBn8F3RJQs9ABIzMcz92j8RB16KfOG/NhathDX+0pAfC37c0IvzBEND8Pk+C8FdGhD89edybRKcr2xD+vksmaOCSiRpAJ/jgh9Vv0QU6auFknbSoUL0XnBftob2Sdf756jb3wxq6fIqGVhRpwMIJGrE4T8dVztSgueM1oqJI/fk6Jhb+JMJPOXYfyfqxWW/GdNOBh7HlX77SJvz0FK0/ttYeqV87SAigH5IH+MghcgnhN0s8OgiDJ8t4cOiUvLy8wFdYLkMe7CTI6gVzWPiZzTN5ZpAAZ0L+sfpj+OTbG5xTD1xHzDCSL1yMck3nUJ7de3yQY3FCW94P4R+VeGm3W0VE+E0uzT9w2UsMFvaS44jws4Q5WrJohD/iPOw62GfxBPX+8XkatjBPYxcV6ugFvC8UbV3enfceyydoQGW+xlVO1dDyAnWbd66GPVykAWWT1b8iTz3KohmD7ssh57kaVlqoo1fM1NEPzdKoR2dpyCPT1b+sQIOL8zRs8WQNZtlOyeSwq0+vikKdWnaRTlw8XeOKp2n4ipka9bNLmgn/kOICZbO0MixrnKxuD7MMaKJ6LJuowWVFOqp8tkaU8tGuAvUrLdCwyhk6uniWRs1IWPj3jMuseaX0D5jwkyMNwIgxU1VMh9P5MqVOgzECTaOmsfKbzpWGzoiX9ankQYMjDgcCRVwGAuyQYZ0eO/ewxp8RMiNnE5SUd9bGC9SXPKkPB85+c04Y9bf6HAjhb2lJj01Txf3k8/hvm8pKGcaSHj488RBW/gnhw1t8cS4Q/jK+4panHsvzNaCySINKCtV/YfTRmx5LztOAUs754i5LZhjNRktn+pVP0sDi8RrK9puLz1NW2fnq+XC0nr6lelgdzW8pTnphsSU9K9jj1mZHonp1q4gs/L1LC3UcS3rcwt/GVt91o5s80rlikaczZQocmaWT4rp1XOgSOlPiEJ+p67j+4BzCj2yju7Cusc6W9MxQMuXNdfQOLp42EwhSrukf8ja9SRj3wWFlxs9Tlt0K4Q/L41ZEW9Wxpj6y8u9ZChOXy/i5yXKy31Kc5DDId7/SyRpQMlE5D+Wp98o89a6YoP7FF2jYwgs0hPeGmIrnhbuf5Kpb2cfVrWS8sssmK4dZgYXjNaA4N6zd7710orqz1Z6RfSz8y6OP1FBOctnx3/Fzu48DCWO2hC36hi8o0uk3xyz8jckv7fJmI72xE/6UbfUQvWBEF7lDDpFRkz1+Q/axvvO9Dny7Thys5qTH4j9z5szAZ9AnGCKIB78hX7iODeT5HgizjoRzMHPJF8MZWFAeacg70w5dY4664SjfnNWHOoRwLiUOWjtblzTv0hOz8Bvh5/sbJmvJ/oHIXnIe/LYlPWbZDxt9sISZXQl536YsN+ygM7CiUEPLitR//kQNLS5Qf/jEcuKwDGiC+j9SoOwlH1d2yXh1X/Ix9X04X92Wfky9yserx6N5ynqYHRYnh5UNQ0ryNbKkUCNKCjV0BRb7mRr+yIyw1Gd0yRQNXZqnnBJWceSGzVBOr7hUpyy9UEctna7BldM06NFZGrViVljSM2hJftjW076syzJljm58KXhZnkaXz9KYFbM1sGSKBpdP1bCK6RqzeLpGzDw7rOG3Z5WO3y7CH28YFMZvaxj4LYURh4Zr8azB8Zsj3qiJa2VYfPttjTOdm0w3Trw8K8fKtTzsN428rRb+8NJuBeu0sK510EFHyG48YWsqprmiaS32o2U9G0LGsp7u5XnqVZ4fRpa9V7C/7AUa9DBCwOBggroxaHiEL9ddEIh/v9KJ6lcyQT1KzlfWo7wAHC2z6bD7CPjYFqbRS7s9GGkHAZ+oHqzht5d2ywp1DIT/2JywK5Kb06y1Hv5+sh4w3cKd2zVkmXN8OlgccmzO4pGWOHbNfhMvmQBY2kz6Vq7lGdf/dvSRAAAgAElEQVSFpnfsWio/dNXpEP6wu01E+DtWhqMOObtysnqUXhBktvtjdGjj1aN8vAaW5yqn3GT5gqBXejyWFzphdqvoVcngID/sjsFHAcPXLFnrauv3uY8E6Q8dZkfp1Vi+7PzBFn0j5rdM+Pdsy+mEP1U77Srhcbkz+URH2MF9cG6yavFN39h9xo2ahFk8fA7ix8Ms33g5pqcsz0z4lj++5W++1ZN64SxuSsIf34d/r205O4jrxGQy2r2PLbztsHcWo+284Q3scZ9dlqfeSyepb1mBerKNOEuOIPIsgy7ng37j1YuVERBuPhb40CR1XzFe3R/jHs4Pa/JZZTBo6eSwdGfgwonqX5KnQSumavjD0zV2+XQdXTlDo0qnqG/iC+C9SvJ0RsUlOqX4Qo1ZzBKgQvVdXqSxKy/SiNKpYUkPu/xgiO0Gf6ukzMliNoEdhIaWzdDYhy7SkFJeCJ6pYaXTNGLRNI248GwtqpjfJrrTLsKfiQbXVfOgYz0gwt/Ru/TQ+T0M4Z8U9qLlBT1GuXRS4cVdhIRGFT8SW3nycS7W+/csT3zA4rEJynoU8j9BvRPvAoTlNYQ/Fn3Bbq984nlm5BxB5D4Su/RUJnbpWT4xti1nbvgC8FFzI8LPdw98W86uKlVe7/Yi0BLh32cNPxZ+9ERlgvBnRFaTdEpSnnwIMMgxhoJHJyhrZaRjmIJn6WGYeQh7aCd0j9WRfMJaYAYO0XnQORD9+JFUXkfqJdbyspZ2pBP+9jZXT99VEYDcq0F1qo82I09Y/RubGnTzt27SqM9/QL3Clr8Jw2CHyydGhATnSfbjOiSxUUj38sgQkcX3fJbzfRJbBsQSpOgIOilwD/gHxs+J6v5QvtiDf8iyfA0rztOQJZMD4e9flh98dtY59qELNW75jED4+RJvz5LJelvJHJ20eIaGzc0NXw7vXV6g4ZXTNbZypoaXFCk7fHl3snouh+OwC2GuuvNuQZgZnarRyy/UyPIZGrd8lobwjYBFRRo+5x1aAOFPvWnbPq3LCf8+kKQXcMgSfho3Fn4OGj4dbWJ6K/ITHXPcQsYLc4kPVbD0hynrMGCA1D/Kx7QmqVd59KlqBg/Bwo+VP1gJW+/o29fx7k34o334Kc8Jf3qt1GMdaQgkE/6wLWcJmwXYh7cSL+3yclhF9NJusPB3dIeMUQEjBN/TWJk40FEJg0Q0sI/prLC98B7r/T56BP0VPzq6/rH8Ifw5JfkaBeH/ep7yP12ghoa68OEt+t5mCz+mUF/Sc6SJ4GF9v0G/cIfpEH62yQ2D+Y7kCMZnkgh/2IkswX9isru3HonSwHdYARG4zfKI//A7GEjhUMalEh8u7b+8MLy0O6I4X4MX54ZNBHKW5SqneJKGlxREhH/FDPUtzVP3slxh4T+ldI7esmSmhs/PC9tr9iiZrAFL83VU5SwdtXxWePG32zI2V8lVL77QW8HHU9nRsUD9lxVpRNkMHVV5oY6qmKmhiws0ZHGRhl78Ds2vnN+5X9o9rFt3Kzd3IISfNfzsJd+hU+ihccdGujHCT4MOa97iL7yFTjMi1pCCsPQHwk8jp2N+ZJKwzvEeQB+EgGt02hyUZVa3DvGZVqOcyMLfvKVp5UT1jG3L2cuW9LzJl/S00mT90hGAQIuEP+nDWzbTx9aSPcog/R0tx5DzBOGH9FsHGtNNZphA3unswuYDLc1GWuedrG9ShSfHy8BvdGDfthL+I6Dt+S0e/gigX4z0Y+GvTbLwNyUs/GOu+IB6JQh/p+iXYCAwgt+CkbMlXYJOWh4ZM/uUJgydsd8s+TFDBDoz7BhYMiF8VIt9+McsLQzbcrJrWN8Svqg7WVj4WdIzuoLNEqIt2PmSL4T/pKWzwracfUsL1J34xZMD4T/u4Ys0rHKqskvYgCRXfSD9ZSzHZplPoXKWTdGw4iIdVzlHR5fM0JAFeRqyeKqGXvIOzXPC3zlCdyCEP2dpoXol9pIPa8oSW8dl8tx2zghvwye9xEY5gdSHtfzRiBYyz0svrO1nlwsOXn6zF0jwEdx+y6KDtWaEsdaMNJms+755JXbpSVgJepdG21f1Kp+o7PKJ6lHGx8V8l57OafFeSldAAAszX/3+3QvRLj0n/HCqBi4rDC/t800O3s+JrP2Twzp01qLHd87YVwYzI+OmM9AtrIHtU0r50a46ZnUzHWTX0DvNL+KicxLT8YRxLegr2wUsoes6qv6WL1hh/Oi7LF+j5xXpzJvylH/5Hgs/q533svCHLxRl/mXLrtAWvY6HHwJtIfy9g/wmtuXsYK6A7kDHBE6S0AlBRwRdMUk9KyJCz+xcWOkQZgAwKLIxwGT1XxbpEwyYbBbAb/QQco9+QmdB6nuWTNKQyiIds3ymjimdplHLCjW0fIqGLGe7zSkaUTYlrN8fuqwgpGcbzz7Li/SWktmB8I8qLgpf2e1RmqcB6JDSaTqm8kKNfmiGeKm477Jc9V02UQxAgr6rLFC/4kKNWFKk48su1DFLpmro/Mkagn/pOzR3uVv4O0XK2kr4j3tgZnhwfUrzQkdHZ9cRB1tB0TA5aLC2VR0dFefZpZOUU8pLZ5HVPlqqk6vs0jxFdctTb95eTxyE91uWF7abYsupAUupP/vh5wXB6Ih72JMnX7CjnhOCIPddlhfuK4cXiEsnqnfJBepdnqv+Swv1lh/OUM5Rvg9/pzR+L+SQRaAlwj8oQfj7lEbv6EBY6cBYlgJxNYK9R+4yq5soi++PoFf6L2PdK1vX5WnwEnay4Au8zHrmhQ/roYP6L40OLGbUjfRG7jk3HUenjJ6jw6buXOuoe4jni07i4zlG+AtihJ9+wQn/ISseXrF2ItAS4W8IS9ci03/cwg/h71k2oVNkMuiIhDEBWUUncERcaG/OE95nZMlMJe//Qe7zNKgYY2Kkh9BJ/Ib3wINYlQH3gPvwwu/A0nyNXlYYPgI4Ej1WWqBBFVM0uGKKhpcWavjSfA1cAqfixdt8ZS8v0nFLpun4xdM0YsmUPYS/pEDDlhRozLIijayYqkFlBeq3NFf9i+E3uWHDgm7leeq3dIrGLJ2mY4un600Lp2jYPLb9nKYhn/h/esAJfztbdJrJafhR50pDZ2sqrDiNYborhPM1hCZ+16nnm/rotO/N1lEPTtPY+VM0dn5hhx3j5hXq6MRBOaMWFGrkwugYvaBQY+bna9z8fI2dn68xC/I1ekFBoi5FGju/SKPnF2nUgugYM79IR80r0jEPFum4B6KDc8KI25H3YXmPm18Q6sw9HD23SEfPnaKj5uXr6Pl5Gj0vV2MWFOqYB6fpHd++UDljciQ+cd886Zjmw/RojsBhgkDQPU31evqFP2j0eSfpzG/P0DFzpwU5Qd5N5tEL4+YV6ai5nSPHoxdEOuP4+4v0lh8V6a0/LNKbf4w8F2nwkqKwJnXEwiKhcwhDzxw9lzqisyI9FumvKAwdd8xcdEKhjpoX6VN0gemNjvTHzC/Q2HlTddIPZujdNxSq4FOFakys4adfQAPxHCKHzX/PLwt13xHoigjsTfgbVaeGvV7abWpq1M333KzjLj9HoxZO0Uh0TgfyHZNzdAM6DR1AeegN9EJ07OE8oxfka+SifI1YVKBhiwuFzkHfvOnBiPuwNn7svOg3unHkgiINXxTpSeJQHnkef3+hTvxRgY7/cYGOngenm6Jx8wt17NwpetMDhRr3ALt4sda+UMMXT9PJP4yOY39cpDGLpmkodUTPhTyKdOzcIo15MF/jHizQ0XMLdPTCQo0qnqrBQddM18kL5ujU+2fq1B9N0/E/LNKb5s3S6Dnv0gO+S0/niRGNP3IodY4oJAhFYuuuxsZ69Rs7SDmnDFfv04ao9xmD1fuMQR16ZJ8+SByhnDMHqVfi6H1mUrn8bg6jXoPV+8zYccZgZZ/e8tEZ9xHHqdeZQ5R9WuLg/sDwtKHq/f9GKfv0Eep7wlCNPG60Guqxr7lzBI5MBOobsbc16Zm/Pq/ssf2Vc/JwZZ85XL3PQPeY/CPr/B6i3qfHw+16B/jolYQ+6fO2wcp522D1OS3SLT3PGqxeHLE4kd4ZpN4xPRZ0VUJfmY4Lei45TvN9dsB9BL1DvYaqz8lD1f+kkZp68XTV19eZ+o/1BEdmG/S7PjIQgOfsYT3RPbN15+333KmcE4ar9+mD1fvtQ2N6p4PkEZk0LtPMZyLdEfREXB8k4vU6a5DCcSZcItJDcB/0kOkpfHTSXmFBRw1S9mmD1Oe0GM9KlGF6Cb0F7+oZyhmsPm8bIvRe9mkRv+Ja0G3kYfmgxxJHvw8cq2NmvU/jpr9Hg88/Tf3/50TlvGO0cs4aoexTqe9wZb95iBZUFLfJvOm79GRYNmnwfG2YvWz5xgC/+WBP2G+3+WPUfLDCj3QwwH7APEnygbLZBc5NjeHgd01dbZsaf4YfvWfnCBx0BCD8QSYaG7W7li1qpdq6un3kJy5P6cihx9mjr4NOSuxNjl63j08e9IfvFXAEDiIC9k0l+A/fO+Fr5RgfGpzrtInv1apR1bt36s8vvaDHn3pCz7/4N23cuVU7GmpVpyZt3Lo5rCfZWVujXXW1qol9PG1/j98J//4QOoDrkPxA8BMfEuN3bV2tGiGnYfda99PFAWICaWnpgNw0gm19ner5sBKfCd+16wCemCdxBA4PBCD7yAGD3wY+6tOK/BCP6+nKosdL6O2mhmDQ4WNs6Hb7Wurh0YL8LhyBA0MAzhM3dCIXcB7+XHekjwGknnUKu9UoTJi7GxtV09io2qZG1WHIge/woTSMyzU1Qc+n+8Sc8KeLVBvixRu9dQiERQ1/j6XIrWb7xwJC0tJhln3IPqS/rqE+HJAYd47AkYpAXX19s4V/V83uQP7DwDiFHCFbrof2r4fiGDUkCH/cqBP/KvOR2vb8vo9sBALBT5B++A59cX0DktM2+YrL2pF5zpufiaOpUTvrarUrQfJrG/jQmbQ7GHQaAtmvYzlhms4Jf5pAtTUa01sIAB0B50EAsPy30vH6tX3xwb7f8p/C0imeC4MqlAsNn+lEd47AkYwAOmdXYqaLc/RQyzK0r7y5DkoDE6yWsSU94Gv6/Uhud37vRzYCyAR9MQ4f3YMF2nVKGjolxgvDsswElhG3aQrE3vR6Y31DWPLQFDaGkRobGAKk55zwp4dT2rF4QHS2+HQCcYcl2izT7kdr7/eHg1nRkn0j9ggBU+v47hyBIx0B9I51vMgEv3HJ8hP/vT8Z9Ov76ioz4hzp7c3v3xGII4BeMUs/4RgaXH/sqz9awwSeaA4dvheP5FKTVLNrtyD+9bV7NguwNK35TvhbQ6cDriWeV7BI+3nLa/PjuHTAI/AsHQFHIIZAXN78fP86CYzcOQKOQHoIuE5JT6cYTgFV+5Gun96jkBP+NIHKVLR0n5/Hi4QkU7h7Po6AI5AaAdc36XfKqVH0K46AI5CMgOuWA9AtbQEtGfBWfjvhbwUcv3QIINCWhm9xD4FqexUcgYOCgMlAW/yDUlEv1BFwBBwBR6BFBFLp7xYiEzVd54Q/XaQ83sFBIFXDby384NTUS3UEDj4CrclFqmsHv9ZeA0fAEXAEHAFDIK6rLSzhxy8lf/gsKeo+P53w7wOJBxxSCMRbd7rnh9QNeGUcgU5EIF0ZicfrxOp5UY6AI+AIOAL7QaAF/RwPguizJYwdXEvHOeFPByWPc/AQiLfydM8PXm29ZEfg4CKQrozE4x3cGnvpjoAj4Ag4AnEE0M9JzlS2kfy430L0pNTRTyf8LcLigYcUAtbS0/EPqYp7ZRyBTkYgHRmJx+nk6nlxjoAj4Ag4AvtBAB2d5Ext2zIefDuSoqb86YQ/JTR+wRFwBBwBR8ARcAQcAUfAEej6CDjh7/rP0O/AEXAEHAFHwBFwBBwBR8ARSImAE/6U0PgFR8ARcAQcAUfAEXAEHAFHoOsj4IS/6z9DvwNHwBFwBBwBR8ARcAQcAUcgJQJO+FNC4xccAUfAEXAEHAFHwBFwBByBro+AE/6u/wz9DhwBR8ARcAQcAUfAEXAEHIGUCDjhTwmNX3AEHAFHwBFwBBwBR8ARcAS6PgJO+Lv+M/Q7cAQcAUfAEXAEHAFHwBFwBFIi4IQ/JTR+wRFwBBwBR8ARcAQcAUfAEej6CDjh7/rP0O/AEXAEHAFHwBFwBBwBR8ARSImAE/6U0PgFR8ARcAQcAUfAEXAEHAFHoOsj4IS/6z9DvwNHwBFwBBwBR8ARcAQcAUcgJQJO+FNC4xccAUfAEXAEHAFHwBFwBByBro+AE/6u/wz9DhwBR8ARcAQcAUfAEXAEHIGUCDjhTwmNX3AEHAFHwBFwBBwBR8ARcAS6PgJO+Lv+M/Q7cAQcAUfAEXAEHAFHwBFwBFIi4IQ/JTR+wRFwBBwBR8ARcAQcAUfAEej6CDjh7/rP0O/AEXAEHAFHwBFwBBwBR8ARSImAE/6U0PgFR8ARcAQcAUfAEXAEHAFHoOsj4IS/6z9DvwNHwBFwBBwBR8ARcAQcAUcgJQJO+FNC4xccAUfAEXAEHAFHwBFwBByBro+AE/6u/wz9DhwBR8ARcAQcAUfAEXAEHIGUCDjhTwmNX3AEHAFHwBFwBBwBR8ARcAS6PgJO+Lv+M/Q7cAQcAUfAEXAEHAFHwBFwBFIi4IQ/JTR+wRFwBBwBR8ARcAQcAUfAEej6CDjh7/rP0O/AEXAEHAFHwBFwBBwBR8ARSImAE/6U0PgFR8ARcAQcAUfAEXAEHAFHoOsj4IS/6z9DvwNHwBFwBBwBR8ARcAQcAUcgJQJO+FNC4xccAUfAEXAEHAFHwBFwBByBro+AE/6u/wz9DhwBR8ARcAQcAUfAEXAEHIGUCDjhTwmNX3AEHAFHwBFwBBwBR8ARcAS6PgJO+Lv+M/Q7cAQcAUfAEXAEHAFHwBFwBFIi4IQ/JTQHfqGpqUmNjY3hqK+v11NPPaWf/vSn+tnPfuZHhjF47LHHArY///nP9fTTT6uuru7AH5ynTBsBa9/4tPf4kXYmHjHjCPAc0Dk7duzQE088oV/84hdCNlz3dJzu/cc//hEwB3t3mUPAdExctzjGmcM30znxvNA9//nPf/TrX/866B7XO5nXO+h0cEW/b9iwIfDMdJ+lE/50kWpDPJRSbW1taPwIwQknnKAvfvGLuuaaa/zIEAZXX321vvSlL+nLX/6yrr32Wn3+85/Xm9/8ZjU0NLThSXnUA0UAxU47p32D+e7du5sHuAeap6drPwI8D54LJPSDH/xg0DfIh+uezOledM91110XMP3MZz6jyy67LOj79j89zyGOAG3Z9EtNTU3QM67f4wgdWuf0CTyve+65R1OnTm2WEdc9mdM9YGm654ILLlB5eXngmem2BCf86SLVhngoJRo+jvPRo0eHDoFzOmM/2o8BlnwjnPgQzoEDBzbj3obH5VEPAAEsCytXrgyWZNq6PQ/vkA8AzAwm4VlAjv7v//5PF110UdA/hLnOab/OScaQx/biiy8GcgPZcZdZBJiZihsSTN9nthTPLVMI8Hx27dqlm2++ORBR6wuS5cZ/H7gu4lmBKzr97rvv1uLFi9v0+Jzwtwmu9CPTqHF0vsOHDw8PycLSz8VjpkKARm8KhTh0uAMGDAjEJlUaD88cAs8++6wmTZoUrJxM39K2t2zZkrkCPKcDQoCOAPf73/9el156aTjfvn37AeXliVIjYLrnpZdeUkFBwV66KHUqv9IWBC6++GJdfvnl+vOf/xzw3bZtW1uSe9xORmDr1q3hOX31q19VZWVlIKXOeTL7EMDTdPw3v/lNzZ07V+CernPCny5SbYhHZ8CSHh4OI95x48YFQTArKOF+tA8DMAZDfLNgYuEHd3cdj8Bzzz+vOXPm6B//eEHXXnudfvnLX4ZnwTNp2aUKbzm2hx4YAuCPPPzxj3/UhRdeGOTB5MN1Tvt0juFnHS7+P//5T02ZMuXAHpanahUBlmz+7e9/1+c+d4We/O1vXb+0itbBv4g8MCNzxx136KGHHgr9M79Nbtxvv/7ZuXNneNBg/e1vf1vFxcXNA4B0WoAT/nRQamMca9hmBTILfxuzCdHJy0gtAfGXUq3jIZx4cWfE19bVcY34Fs/qaHm0FB4Ps7ztnlqawrZrFtcGPfFyrTziWP4WP+7H48XD7dzqb3lQdk5Ojl0+jH2eM4qjUU2NDHYa+Nkmoc8EOM89/0fNuvAibareqhdefElfuuY6VS5/WLt316mxiWcblRI9n0Y1yZc8ZAL3dPJAR/zlL38JS3qQI2SjJXk1GTNZIm/imkxx3a5ZWPy61YVrlhdhls7O8S198nlyOq7H62rpKNfyjachHGfX4mkJj3eQ5GXx43WOh5HG4pGnHYRb3vG0WPgh/IR1TRfpk6BEUCThiO6E+21CmHEJrzHWPqILHfOf4q66+tqgX/729xd17Vdu1GM/+Zlqanh3KNIvobYBd9MviUp2TJU81/0gYPLBkh4s/Om40MYSspMsw/zGIZ/Ilx0Wz65bHHwLsziEWb04b0lOLSyeBkOtxbfrISDxz+rET9Mf8XPSWF0I5zyeP2HxOFaGxeN6KmdxsfCzpCd+f6nSWLgTfkMig749SHswEH47b2sxNAATCvKgIfLbyDQ+cejkLR5lEM5UPuEsK8JZvayxkhfnlp44nBMf3xxxrFHZdX5bWnxLS3nxOFYmPofV19KSjrxIx2F54Vsaq0eyH68jcQ9Lwr9PH8Zz4ZnxDkO96mp3R4S/oVFNDfSEyShl/jdF/P65P2rWRZ/Quo3bVL1ll1b9Z73u/uZ3VF7xiGpqG1RX3xSqwm4x1LOxyWdeMv8kUudohJ8YyIbJFTLDb/NtjTS/IccWTnxLQ3zi8duuE2Y6gHM7uM6BLHMdXUI6rhNOPjiTdUtn14lj5XBOOHqKc/KyOrK8w8o3n7icWxmUY+VbXvzG8Zu4dk5aHD4H1y2N5Um90F84znEQ/sLCwnDeNf+hT5KPCB+eUW1NbaRf6htUV1unxobGTtMxV335Bq3buFXVW3frxZde0513f1s/efzXzfqlsakptIc9+mVPn9U1n0XXrrXJUFsIf1w3IG/85kDmaH8cJqvk35LeADXimG8ybD55Iff8tnim9yw/KxMfZzyFNHZugwCLyzXytTytfHzKtPLNJ56d2/1Z3SwPrtt5qEgr/4zwkyZd54Q/XaTaEM8emj2I9hB+GgTH0qVLA4GnMdBIrSOzzo2yiPfwww+LzpB4HIRbI+Y651Yva+y/+c1vQsdleeBz0LnauaXbvHmzvvCFL2jZsmWhPPIkzne+850wqucch2/lWxiCU1VVpV/96lehjsRj/RnXWQdOnnY/1I3D0rYEP/mbI95hS/j3kmfuuV519btUW7tLTU2Rhb++tl51WL8am9TQ1NixR6P0zHN/0pyLL9PGLbu0ftMOrd2wXf96ZY1uuvlOrXz0ce2uaQiEv7a+VrV1kDy38Ftb7Qw/mfBTpskjMss5HRjy9swzz+jVV18NYRbP5N0ILnK/cePGveSRPEz+Scc5jkGelUE9/vWvfzXHszogrxzWYW7atClMUb/22mvN4eT1/e9/X+gn8qRO1Id0cd3Ab5zdk5WB/5Of/CS8z2Bx7H64ZnXknJ130EuU8be//U1XXHFFKAcdaFhQBuXiCMMdroQ/3Jy0572cxqbI2o9NoZN0zDXXfU0bqndo/aadQb/89R+rdN31X9dvn/pDs36pqatVXb3plz39gdXf/c5DwGSsLYSf2pk8c27yjV7661//GuQNmUNGuWY6gLjEWb16dYhDOHEsP6uLya79tjLQdzjyII7pE4uPviM/tvpm628zNKAz2AHtt7/9bfMggjBLxzl6lfI4J3/yiZcfryP5Gs8ywwbp0nFO+NNBqRPi8HDjD7m9hJ/dUEpLS0ODpzHQSdJAOY8sqE3Bp+G8/PLLuvXWW5s7SGt0VifqFW/cCBHr7T75yU82k3Di0PhIG49r0H3oQx8KHSn1sIb89a9/XTNmzNCNN94YhIF0NHYc+ZEXcQn70Y9+FAYNa9euDdfZ8YV0S5YsCYMaa/hWXiqffM2R95FE+JtUp9pa1kc2qmZXwsrf2BQtp0GJduAB1Xn2+T9pxqxLtHrDZq1Zv01btjeoakuNXn71dX3xquv03PN/UfXmrWpsagyEv7ExPSVmz9P99iHQEuFHBnHIpskOndkPfvCDEI4MQbyRUfQKM4TEIz6upKQkhBNmch8/p9OL6wTS8HL3VVddJTpQdA15mUGCc/Ih3Zo1a8JLxq+//nqISzjxP/3pT+u73/1ueCeB7UX/8Ic/NJdBHOqK3iMvK5/8CSP9DTfcoB//+MfN9aVOpLNySVNdXa3/+q//0r///e8QDmFha0GuEQ/HfZEf90uZXMMdzoTfdDb3WVtTF2YQa1iyB/nvQP1C3qD7hauu0xvrN2vNhm3avL1B1Vtr9I8XXtFll39eL738mjZv2RYMGxgUXL+E5nhQ/5msHAjhp+ImwxgW2GYbQ4TJKtc4kGtkD1k0I4HtRY/Owlkaqw/xkVtLR/gHPvCBwGFMf5E37Z18OcdxDZ33v//7v80vxpKW5UrnnHNOMAzccsst4T0e0qEjSINDd1JXdAVGTX6jZ9BNDGS+8Y1vKC8vT2eeeabuv//+kJZ0VueQyX7+OeHfD0CddZmHZg2JMttD+F955ZXQYTGStcZI46Gj4YUNRps0ZGsolMverJBq4pvS5rrVizh0bqTjOh9yuOmmm5obLA0UaxejYK7jSGPlsL835SIYNGjy/da3vqVp06aFj2BNnz49XCMtcRBg8vr73/8efOrH4ODJJ58U98f2a1jyuCfqxQ4jWOYQGMpN5eLXqMORQ/gZQEXWDjBuaMCaEFn64Scsu+3Igxbx+2ef18w5n9TmHbu1ev0WvbFuqzZW7w5LfF569XV97oqr9Jsnn1INFlkx6xARpFTP0sMzi0BLhN9kGJ92g7zRYRlJZ6CNXOOJAhIAACAASURBVCOP8+fPFx0KH3iBrOMYkPMRwXg+plPw0UsQ/HXr1jV3mvy+7bbbgo6gTMpithKCz2/yIi2Df8j9G2+8EdLSeaO/PvvZz+rxxx8PAw0+Xsge1OhC6oo+sg4UPYLu4CXae++9N9wD17k/Om3TXfiUaQd1oPMlHvVgBpK99dFXNquBT5nMQhoW5IM7nAk/9xc9H2Y0mtTYQB/SsbrF9BY65sqrr9fWnTV6fe1mrV6/LVj612/arhf+tUoXXfIpPf37Z4SFP+gXNyiE9ngw/yE/uLYSfuQch0zR58MFWKlA20NfIHPI2fPPP6/ly5frd7/7XbPOYnMC26nGZNvqgc/BgAC9YIScMthZa9WqVeE66ZiFZDco4kdtPpp9hGPNmzevOZw8qNvnPve5oBPY/phvDjAIQJeQnvw40KXoFQy2GC3gSPx+4IEHAheiTOpCXBtkoEPJIx3nhD8dlDohTrzRUFx7CD8NbsWKFaER0ihoHHSoNKKJEycGYm7h+DRW3Fe+8pXQOSNMpLFGTN04mKqi8eLYYYVZAetEIeh80IoOzuLgIzh0zO9973tDh0rDp6OlodPgZ8+eHfKuqKgIQkvjpU4IKsSBgQUHVkUElzDK5v4effTR8Jv7uu+++8Ko1zrXUMkW/tm9col7OiwJ/z73zfNtVENjvVY+ulJ33Hmnbr/9Dt1xx926/fa7dNttd+q22+/Qbbfjx490w+JpWs7r1tvu1Kc+e6VmXXyZ1mzcprUbd2jLjjq9sTYi/Ws3bNUrq1brxq/domUl5apvaAyrhPe5FQ/oMASSCb/JvXVKyPMnPvGJYDk33cBAn0G7GQPwc3Nzg4ySHpLOBwRt+1XTK9wEcs4XNvkwDIMCyiEMKx26hTI4KAPLFuFWF0g2HTezjBgBHnzwwaBruM5SG3QCDgsZs5EYA9AtlE9d0FcYHkwfEG7l33XXXWGAQRjxwIV7sbLRZ7x0S96kR3d97WtfC4MUBj7PPfdcqOsjjzwSPvBHehz54Q5Xwg9Gv/jlr3Tnnd/QbbfdEemV2+7SrbfemULHpKtf0ot3y2136qovf7VZv2zeXqvV67ZpQ9UuoV9eeuV1fe3rt+nhRx51/RJa4sH/R5vBpUv4LT6yxMFvDI3s8sO5GSxZ6osBE90BSUYHmT6Bs0CgMQoQFs+LuqCD4BbXX3990BXEgWQXFRWFQT16kDTUGT2FXrB0xGVlBfoIPYCuoF5wGGYt4T44DJTwNHgZjvxJS3x2mqLOlEEY6fHj9SSM3zjumTqn45zwp4NSJ8Sxh4qPaw/hpwPFumQNwhoNjYJ9iukgabTWaLiOo4HSiJMbGtdJi/BYXggLQmbWejpGpsLphHHkjSWNESsWu/e///3B2oflDLJOY8dKlp+fHzpkOkqmqSiD8skXsvDCCy+EMimXETeCwnXyR9AI52MSCxYs2KveoRIt/CO+OfI40gj/BRMu0He/933Nm79ICxct1dx5i/XA3EV6YN6iyOfcjnTDLL75KdL9eMFS/fLJZ7Ru006t2bA9Ivzrtmvtxp3atLlGazds079eeV33fOu+BOlPz2phz9P99iGQTPhNf5ieYGkM23ZaOD7k9bTTTguyjjwSxse7Zs6c2axfsJ7TgVpHaenRKSzHQef86U9/ao6Pvrj99tubdQ16hO1cWatvpBvyT54MNjAiIP/4dPQMDlhyRMeLoQArP+fkg/xTPgfnHNwfPgMBdAzLgCALzByQHx2wxSEeemry5MkBbAwalIUF8bzzzgs+nThLB9CJ5MnMA+nsvg9nwn/pJz6p2+/4huYvWBKO+x9YoHkLivUgeiZZLyT/Rn+0I+z+eYv01DN/CcYE9Mvm7XV6I6FfqrbUas36rfrrP17W3d+4V48+9jPVs2GBu4OKAHKFS5fwE9fIrckx7wey5MX4AOEQfLagRO44vve97wVSbXEwXt55552Bb5An9bBr+BgMWMFgMovuQq+w/Jkw4sN/mFmwdKSB21A2xk90GLqCWQDeV8RYgq7A+o+xkyWA6LG4bkCfoG/4OJ/Vy+6TMjnHqAKHiy9HsnqGRK38c8LfCjideYmHyYPHx6VD+CHFOGsQ9tCZwjYizsjRHHlD+J944olQloWbD8Fm2slGpYSbcJEfFjJzEHQatFnUsbgxQ4BlHkdZpKF8hOXkk08OAwrOCSMd5H3ChAmhUyQuI2/KMyx4EY6ZAYQVgWEgw9o48qDT5B0AOlbuiSl/0hkGVs9kH4zNEf/IIPysz2cbOul/PvRhvfzv17RxM5avbVpftV3recmtE4611Tu0bvNOra3epTVVu7Wuukbrq2q1duMubdpSp207G8POPf96+TXdftc3tfyhyEprbRDFyjNz1zEIJBN+KwXcOegA6dDsGWBZQhY//vGPh2Ut9pwYFDANjSwib+iEc889tzmdyTj5QKpZvkPZJrtG+K0cOsFPfepTwbpGmTh0CDN96A+W0lAPOkDiUk86c/QYega9xXXSUh8GF3S2dL5MmzM7yId/xo8fH+JjtcMwgU6C8PPb7oWyLrvssrCOlvpRVyz84MNn65muJ5yDNJSLs9+cHx6EH+siujSSR/5zzJg5W0/+7lltrN6mjdXbw3K9DdU7O0W/oMPWbd7Von6p3lrfrF/+9sJLuvHrt+pXv36yuc/l+eGsbYYf/q/DEUAucOkSfuLH+3CIMUv4GFhzza7DR5B9+82sHfJszxf/kksuCbN0lE885BUfh6EAA2bcoeeYkTRHnXnXxxx1WL9+fRgIEM45dYBXwbmoJ7qHuplBAJ2FkRNH2cRFv0D64TeUwcACfcpvfK6zBBrjBPdkacPJfv454d8PQJ112RqmNbh0CH+84Vt66suIl2t2ncZtDuubfeXUwsynIdKo6MRwNlggHxom0+6MSOnAadBXXnll+M3omgEAHT2zBChPyDt14hzL4ODBg8PIF2sbgkHnS5yPfexjwfLGG+x06ljxbOTK9BcvxhGPfOhYWdKDYLK2H4GkwSO4WNjScYYJcanfkUT46Z4h/K+89kbUGVdt07o40a/apfWhc96p9eF8R8Knw24lLI10kP3oiAj/2uoacUD4N26u1/qqGq1dv1PVW+vCi3Yvr3pdV14dDVztufLseGbx9mzX3G8/Ai0RfjC3ThKrNlPNkNhkOUImOZBfvqaMJQzH88Kdeuqpe+kkwpBpOi3WvzOQQHegeyDZ7HiD3iAMnQOZhuDjrB1g1T/rrLPCsh6IuBkMFi5cGDpJiD46DL2BMQK9Qxy7J5bkvPOd7ww6hXypPw4LP8YI6sfUPIMB7oP75l0iwt797neHAQWzDDiuf/SjHw31R39RFuXSmZMPZVr+XZvwo0U4jPCH229+IXfGrNn67e+eDcYEiP5aDAqbY4TfdEVb9As6ytK1ooda0y/rNu1u1i9bttfo7y++rE995gr98U9/aR6UcSfWrnlm7joeAdMP6RJ+amRpeFYQaQyPyDnyyTUO5BwfnoFOgijzmzSmA9A7WN/NWVrklPeR2BQEHYI8oyuYtYR3INOEY4jkHSLK4MAxY4kRgjX6rE4wmYf8s9SQFRDUldk/ZiQp3+pE+RgsmCHA2IkjjDysXXLOgX6Jh4fIafxzwp8GSJ0RxRojPi4dwk88a2jxTgVLOA2EMPKLE6RUhJ94EH5GkwwISB+vE8Sa5Tl00HT6vIxHx0gYjZNBAFP3NHKcNUzqwCBi5MiRYVodazxpafhY0d71rneJDhorGlvpkTdlkx5rGRZ+fDp9BMwGK5AT1tiRPwMN6mD3axiGiiT9M8EhmHiHJeGnCUXNqPnusfDTRQcL/2tvaP3mHVpTBQnHIrY7cUDCk8/TCUsnDvnu0JqEhT8Qfqz7HJt26z9rtqp6W12w9LM//4aqHfrHP1cFkkcbpz3wfPHddQwCyYTf9AYyw8GUNiQch+yYnNEBco7+wGIOKcaRxp7dKaecEuIkyyiWLqbCmWJH9iHDvKuDMQHdwqAfgwKkGz1AnuRBB0xHD/GGgP/3f/93INvkg8UevcGLeQwKmB1kDS1Leqin6Uw+QMPOHrQpyILVjdkIOl7iMnPIi3OUS914FwAr3Xve856gV1k6CU7oRwY6LFWkDuDEwAU9B8HAWds9XAk/wwAI/5NPP5ew6O/WmqqdWrfZdAq+6Ypkv6VrbQ3b1Yp+2aItO+q1cXON/v36Bm2s3qn/+/u/dNVVV4flEdZOXceEptpp/0yHpEv4kUMc6XhWrMWHuEPKCYNMI48Wj6Uv8CGW6Jkcco0DHQOfMEcYeSCn6DAMigza0SPoAZYlowuQcQ6W7UCgLR31QVe9/e1vD+v1eZcJvcMsBPxl1qxZQWdRZ7gS6ZlJsKWG6CD0HTqJNOgWiD2zBPgcDBy4xv1audTXdIvdSyrfCX8qZDo5nIZmD5Ci0yX81klZWho7DYn8OKzTtttJRfi5zkiYRo6VjfxwpgCxoCNMNCw6NxoyL6pxTlzC6ciw4KM8TehowKyxZ0srrHUIGJ0hFjnqx0t3jIoZCNBBUh5pOejwsfDT8DkWLVoU0lMWnS5WO8qG8NtImd9Wd7vnuB+/RvlHDuFvShD+j+il/6wOS2vojNcEgk/n2/HHms2xDhmLfiD8dVq7qUZVW2u1ev0Obaiu1Sam5TewJGCHLr/88tCmeG60iZbadPz5+vmBI5BM+MEcvJFnOiPkDDKL/HFwnXB8LF50XpB3OqP4dQYCLOkjnuVp1+m80BmkpyzC0Q9Y5OK6jeU5GARMBzHAR1excxdrWlnqB0ln/TwHM4c460CZQSRvDhz6h6U/pCVPymTwQT0YLFAX6sqgAGME51jlWIKE0eP0009vxsbq+eEPfzjoIcowHWb52L1R9uFB+LGAR30E94R9IRB+lvQ8/XyYOYTor67aqbW8n1Nd2+E6Zs3mmj2E34wJVeiX3cGY8Pra7UG/bKzeFZYaoV9e/OdLYTbJlrny3HA8U3cdjwBygWsL4UcWcaQtKysLlniMDoTz/Hh2yKDJJYQZQwSE2eQQnw1D4A2cx8PJm3yRd/IjX67zsTxkF51H/uTHgIJzDuKxTJCZAPQG7w3xriP6DWMFfIV2hmNAwbJDyD5pKYcy4F5Y+CmH9wNsRQUGVXQUGwEw+2mzB6Rpi3PC3xa0OjAuD84aFsWkQ/gtPj6NBofPGi/yszy5bi4V4ScuhJ+0rCMjjQkM12igdIyc0zhtDX+c3BPGm+gMAnCkx4oP0We6m87d8qSe5MVImYZP5wvxJz/KpgxGy+973/tCp8wSASx5TOuTjmsIEPkwWEAYcKSN328IjP2LXyOfw5rwx3QBp8HC/+Fz9a9A+HdpDWvp6SSrazv+CJ1xRPjXYPFr7pDrtXpDjaq21GtDVZ227mwMa/qjnTW2BWsHLzjxnK3N0IbcZR6BZMJPCWAO3hzM1PHCGWHW6SGnyDtL7dgtI75ulvTIG9ewfpPOHLLHNTpE3jkiP8JwyDLr+olv+oAwZvQg5IRjHKDzZPkieoswO8iXaXWWIEIkGAww6CCc+0CPsYSIsvnNPTCrgK5iiQ56BUfZWPbQT6S1/NFjWPFwpCec67wDwJQ/YRxY4zCM4Cwt54cP4UcOo2fG/0D4Z83Wb55+PszmNRN+XpjtNB2zU8n65Y31EP4Grd9Uqy07GiL9Ur1ba9Zv0cuvrAp9FjM31j7seYUH5/86FAGT+XQJP5UhDfLF84Ig894hM36EI8txWeWcA+OhzUTyG9lmpy0MCcgmjnDy4GA3Q/ShyTc+8eMv7ZKOtfT4pKEOGEGZEUBPQuYtX+KwDBrCjbGSwYNtI841DnQgSwmJg/ECwo/eQqdycI7BBcKP4QHH/VI2dU/HOeFPB6VOiGMPDR/XVsJPg7S0rBVjv1hrBOaTbyrCT2OjU8VqRl6WH3lyTudKx85BGB0jHSG/sejhsO4xzU4jxFqGdY0GinCxVharHOWQhjypF8Sdzp0Gzm8TQM7pWLG2US+EBEGio7Z0dMzkww4ejISplx2hQi38I6054h5JhJ/u+X8ShH/tlt1aDeGvPjiE3wjA2qp6bdraoDWbduuNdbv16n+qtXbjboU1txu2B8JkZJDnxbm7jkGgJcKPvHDQISG/EGl7Hsgxso71nGUzdKiQaeIj00yh8xs5ZWtMnp/JPec4Omys+bauljAj/FY2cSHOvGhLeZSP/sFKz3Q+hJ+45E09cVjlsbiTxuplZWIdY0qdAQGdMNY/rGoQdqbd6dQpg4OlRLzwZ5Y4dBnXTzzxxFAO/wijXIwaLBPAeMHgCEMEeUI2KNvqdrgT/icC4d8VLPur2RLzIBD+uH6p2t6o1Rt2afW63Vr1enXQLaZf5lx8aZg5sjbNc6Jdu+scBEwm0yX89pzMh2Tby7cYA9AB6Ah26DFDEWWgI+Ak6Al0EgNzliSbvuJuicdBnPPPP38vaz7h9m4ScsxvHHvzc065LCXE6o+RgGU7hFM/a08sWUQnoUOx2FNPrplewMeQwfIj6oWBkzysLMpDB7OCg9kHu4ZPndNxTvjTQakT4thDs4ebDuGnWjS05LQQY6xVNAJrCDQmhIQOjZEl6eKO6yyvYYrLOjCuWx5Y72mc/MbH0k6nZoJHfnTKEH4Lo/FzcI11sQgZjZz6cjBqpeNFMC2cUS2O+tBRshTI6mAf0OAaeUEqyJulBpZ3/J5aOjc8uEYdjiTCHyz8H/qIXnlttdZWb4teomXKvbOW9WzeobWbY8uIgpW/Xms21Gr9pnpVbZE2bq7T1u31evnf6/Tlr9zU/Ah5VtZGaJ/uMo9AMuFHznBgj9zgs4TGBvE8BwbqvMxLx2YHRBpdQho6WnQOOoP0lic+skvHR2dv+aM7bBBAfA7iYflC31h6wpmJhGBj7SIODh+9wnT92WefHQYjpIHk23Q8+pH1uFjjmH0kDUYLyD9bBVte5MeMJTMUOCsbQwbvHlmd7b5Ys4seIh5hOHwO8rT0XZvwc1eQC9rGHpLB3fIr7NLz9LNhDT8bAqyp2q514T2hjl8yGPRYC/pl9YZabajiq97Sps312rytTi+9ukaXf/aL+vUTT4bnZM/KdUwzHJ1yYnKSLuGnUsYv0D8YClhXj8EBeeSAc2CNR55N9liLb4ZJnjGEnHcHkUviIJscJtPIMnqF38TH5x0mlgCafFM+5fCbcwwQxGUpD6SfcHPUmRlQeBCk25Ywotcg7zjCWAqE4RRns6mWD2VA+HkngcGL6SnzQ6L9/HPCvx+AOusyjc4aG2WmS/hbqh/WfV5wpQHiyJfpIBo9I1JGtvEX4CibQQCNgXMOGpHVh3PSQsDpOMmXF2+ZiqcB0gHSidFYGX0iWKQlnR1Yv6xMrGWkY4aARs2sA2Te1uJSPo2cOHyhl3NGvOTPwIM8sdrxQhxxEETqhvCTtjVHvcwR97Ak/HaDSX5dfb3+55wP6d+vva41a9Zp27btWrehShvYSaOKXXg68tiujVt3aMOWHWHnDrbhXL1+pzZWN2hDVb3WrNulTdV12rBpp15dtUb33Hufyisqk+7Af3YkAi0RftMFyCDnvEuDBZvOEJnEck+nRweJbkEWObBU0fn98Ic/DLODpEX24geDANa3Yl1Hh2ABw3pOnmxLRxhyjT5jTS0EnTwtLwg/W90Rj3DknzW1zBigJ1iyw2CDDhRSQJ0tHqSAc+6Lg7pg7EB3oSsh7ugWdttgxsFwAH/KO+OMM0JYPA+27UMnmc7jXo2cWDmk7/qEn7vYV88SMmvWhXrqqae1Zcs2bdxUpU1Vm7Wxakvn6Jjq7UG/rNm0XVVbMSTsCvplY9AvO1W1uT7olxf/uUp33PkNPfbTn4Zn35Ey5Xm3jgByhUuX8Ft8dA/nHMg9egC5QuYIY607e+CzjSacBYs/Moi8Ir+stccYYflZLUkPseabGqw+wHgAX0EnoNfgMHAPM2ayNIc0yDx54aOr2CyAcxx5UB8MlOgiSD9x0LcMAsiPuNSHQQp6jbyYWUQfUl90IPoRfckyRgwtxOGe2uKc8LcFrQ6My8Ozxkox7SH8NGqWwGA5pwOjMeFDqBEA1pbiUx6OuKxzJZ51YNZ4CePghTk6URooy3tYWsMomXPCsO6TBx0snRz5mCDQmWJRo/OGMJAXMxB0sMSzN+lJywsvpCMcgWMKjLowyODDFbz0SyNHSJhlYLSLcCIsdj+tPaZ4HPI9kgg/z/EjH/lIGJRB2li+9dWvfk1fuf5ruu76r3fwcZO+8rWb9dBjj2t99XatXr81fHhr7foabdhUp6rNddqypU4vvLBK377v+yotK9e27dEayNaep1/LHALJhJ+OD4fMcCB3pgt4pwfLFL+RaeQTnwPdYmvtsXbROeKQN/Kwg3B0Cp0vPnoAks5yHazwyDdh6BYMGBgq6HitLmbhpzNkUwGIOYYJOklIAHqHtAwozjnnnKAPCbP01Ml0FbMSlI2jY6V8BjIsy2HmAgce6CXyP/PMM8P9UA5hXGOqHr1IGXavXMPFyzw8CH+4rX3+MduKnmZwhkGIrQ2vv/6GTtMxP/v1k0G/vLFua/jw1h79Uh/0y1/+8qLu/d/v6uGVK7Vz155v1OxzIx7QKQggJ7h0CT/6Boc84UjPAbdgaR56iGuEwQnspVd7P5CBAtZ3dEVLjrSUwXab6A5mABnE40PACSNPwsgDQwc6xPQK8o7OYzkO+g29hG6D8FMHdB+zmrx3wCwkBlL0GOmYSSRfqwPLCSkPPUgekH0GEgxebPmS3WtL99JSmBP+llA5CGE00PjDaw/hp8HSsFgDT0PkHMJvHZaVYx0VHSadN52XpaU+pLN60ahxxLEw0ltepKPhQuKJy8E1DuLREdJxUg6EgHxwxKMciAKzDAgjDsFkFMvyAfKG4NP5M1rmXkjD/TAoYFrM6kR4a476mCPNkUT4wYvBFs8CwgY5qqioVFl5pUorOv6461v36pJPXhY6ZPbV3rh5l179d3Ww7K9eu11r123TlVdep7Ly5drJfulNe56VPTP3Ow6BZMJv8o/84cxHdrGW0+mYPOEjTyaHyDVyjwxbPiabphPIkzDixeNwnYPyyA8fIwXWNcqmHROObqPzRDegw+jg0Q2EEwdHfEgAswYQecrCWZlWF6yANpggjM4afWNpyM90KbqJzpd6EW51Z6BCPlYGdeQ6vy0eZR/OhB/MmK1Fv0B8sGSWlpWF2brO0DFfvv6rzfqFGcvXXt+ijVW1Qr+sW7dNV199ox5Z+RPtYuDn+iXIwsH8h4zg0iX8Fh8ZNbkzPYElHFKNnBKGQ+44Jz4HsovOQE+Yszz5zTn5ojPgGiydYdcv4y4Whg+XoY2Tr8k8PgMC29UQDkadKI+8OdCNcCCMnuxgCPdBl6K/qKvdF3qC+hLf7pFyqQ9lEm55kiYd54Q/HZQ6IQ4PjoeIj2sP4ScfazR0hvG8ObcOyM5pjNZ5W/n4NDYceZkAcW6/8REo4tphZeOboFlHSedr6Ylv9bA0dLKEEYcwDpydE271obFTNj75miPf1pzlSRziHkmEH2y5f8MR7HajNBIrckG3I49nnn9es+ZcnOiQd2rNuh3avrM2TLOvWbNFn/zklfrtU8+oqnpbbO+P1p6mX8skAsmE32TEOhvkhbZjvsm3xSOcNkUbQzatrRHWUh7EpyMlLs58S8d12iz6gzAOwjioB/lyjt7Axa/z2+pHOPkQnwNHOsItjtWPa8SlLnbEyyQMfUNa9GP8Gun4Td3s3K5bOPkfroSfe+bAGZ78jsh1tC1wR+oX8r7qmmu1rmq7ol2+dmrr9hptqmaAWq2pUy/W7//wR23est31S3hKB/8fcoFLl/ATF7lD/syRB7/jMmnXuWYya7qL3+gBfuOsDpYfaS1PfLtuuoI2bWlD+04YSuNtnnM4FWkpy/JEl1mepCWO6Teri8UlHufkZengaoRZXHyLHwL3888J/34A6qzL9nDxce0h/JaXNXBr3Pab/GlsNCRzpOE3AwT8eCPimuWJj8CYS75GOHnjyIeDOBZGvhz229IT366RxgTKOleLZ/Xit8WxMuJ5hAq08I/05sjjSCL89vzj2PEcGhgEdDDZJ//fP/e8Zl18iTZu2a61G7bqjbVbtGFTjV5dtVHXXXernnjiD6qti1YHN4kB53Z7VO53AgLJhN/ki/aSLDd2LV4twiwe7Yp0HDjC7VpcXuNxLC8Ls7TEJy154pv+sXiWn8Wxulk6u07+nJMPR9yR1tITbnlbHcjTBgup0hGXupGP5YFPWaaD+X24En7uGwxMZ0NScGBHeGfomKuu/Yo2bo70y+p1W4N+eenldfrsZ6/RX/78T9XVJ/RLE1+P50Nse/qDUFn/16kImHy1lfBbuzI5Np1AG7T2RhzLH98OBgzWNuNx7MYtnuVl8mwGUGvn6BLLx+Sea9TJ0nBu9bEwyjEDK+m5jrN4lE9c8sfx2xzhVj/LO56vxUvlO+FPhUwnh9tDtofbHsJvjcV8GhKNg7xRxtZgaKR2bg3XGhG3n6y4iUue8cZNPMsj2ScuZeOTPz5xrAPmN2VQJuc4GxUTxxq8pSMt+ZEX1zi3e7A6Eac1Z+UQh7hHEuHn3sEaZ/iCQfTXGPPj51zld2th+4/ToCb9/tnndOGci7Vu0xZVbdml9Zu2a9Wq9br33h+ppGSFtm3drQY65DBAZKnE3qSstefq19qPQDLh5zmYvMRlkHAcPu0I38IIJy7hkFwsUsgpzuSW6xbH0hMnfnDd4lv++ITjx+Py2/Qb5ZgF0OJSBnlZPoTjyMPK5zq/zZkeNL0S31Pb8sW3ci0f0tt1S2u/Lf/DlfDb8+F+OXD2rBqDnmlJh+xfd+yte1rKIwpDxwQL/8bNqt66Wxs27dA///m67rzzPq1c+XPt3AH52qNfGhv3GLzsubvfuQjQPnBtIfxxOTYZM9kyWbN8TY7hGegjwpFVi0fZll/8zu26XcOnDPPtL9ZqggAABQdJREFUnDTkx2/SWN7Uy+IQzmH6jGu4eHzLF990CnH4zYEjP5zlh2+/7VoIaOWfE/5WwOnMSzxUHiAPjmPs2LHBp3HYQ3d/zyj9QLDgeVo6MOYcwm8C2JnP+1Aqaw+hp+PsqKNJz/3xT7rwoku0btNmrfr3G/rClddo5aOPa9eumhY2/UDJRQrtUMLqcKwLnRSHEX7riExW3G+f3gE/66TROxB+Xgg+klzH6ZW4vmrSVV++TuurtuiVVf/R1ddcr5//gu/H1Lp+OUQbm+kWCD/vlCEnEF53mUPAOCTYQvgXLVrUPIhIp5QNWVkhWpadpJPI47SOgHUIxGIkOmLEiGZy2npKv5ouAuAKzigZHOcDBw5s/p1uPh6v7QiA+FO/e1oXXXyp1qzboM9d8QX94pe/1s6dsY/cEMmOQPad8Lcd6banMOs3u3XxETscsuIuswjYi3sQ/vz8/DDIymwJR3ZuzCJce931emP1Ws2ec4l+8+RTkTHBYDHdEvQ/usX1i0FzsHzTM3ELf3yAbLzI/WiW4EBwsEEVxN8s/Oj8dJ3xfCf86SKWRjweCo3fpoRGjx6dRiqP0hYETJHELQhY+MHcXccj8Nzzz6uoaJpuvuU2PbLyscDtUWC1LNzHWYfcTPa9Q+74p5KAvqkpbAkH4WdJDJZod5lDAN2DQ/ewmwhbEFtY5krxnD7z2Sv0pau/rCd+89ugTmjHdSzcx7l+OWQbCN/OYBvx8JgSsnLIVraLVcz0DLJghL8tt+CEvy1opRnXRm62fgsLP+c8JB6YH+3HID61BZ4MsAYNGuQdb5pttL3Rnn3ujzrt9DO1rKRMu9glIfHCXKSQ6I3N6hb321uqp98fAugeZAELP/vO8xsLEL7rnfbrHcMwIp91zS/tgq+7zCEAT3zH/3uXHn3sp6qtr0tsuxk9v5Z1i+OfOfQPPCcMbrfeemvY4hJZ4bfJjPvt1z+GJ/qHbUD5aGpbnBP+tqCVZlzIPQedAMR0yJAh4YuWfE7ej8xhwAenmD7k4KMX48aNc2tmmm20vdFWr1mrktIybd+xQ3z1tya8n8JUJRY4LMp2OOFvL9ZtSU+nSmfAPvdvf/vbw0eTsLghI657Mqd7IDXgefXVV2vGjBlB17flOXnc/SPw8CMrwzag9KW1dbz/5vpl/6gdvBhG6G1Jj5FTC3e//YQfDMEVd88992jx4sVtMnI64e8A+eCBGOnnnA/F8AETprn8yBwGhikvCHHOx3LcdQ4CdfWNYQvQ+oY9uxk0NTGDZUTffCf8nfNEolLMks9HXfgom304yfVO5vQOWPIxKvP5OI/h3pnP+nAvq6GxSXX10e5LEb6uXw7lZw4ZNcvze9/73vDl2okTJ8qPzGIwefJkcZx99tnNMynptgsn/Oki1YZ48ZGsJSPMXeYRcFwzj2k6OdKcwzLaFpt1uJJONh6nExBwGck8yIYpvp1nvhTPseVu05fvHMotg21v+SItB1+h9SOzGBi2+GxR2hbnhL8taHlcR8ARcAQcAUfAEXAEHAFHoIsh4IS/iz0wr64j4Ag4Ao6AI+AIOAKOgCPQFgSc8LcFLY/rCDgCjoAj4Ag4Ao6AI+AIdDEEnPB3sQfm1XUEHAFHwBFwBBwBR8ARcATagsBehJ8ffjgG3ga8DXgb8DbgbcDbgLcBbwPeBg6vNsAAIastowSP6wg4Ao6AI+AIOAKOgCPgCDgCXQuB/w/1E9y6PyWqtQAAAABJRU5ErkJggg==;" vertex="1" parent="1">
          <mxGeometry x="60" y="420" width="714.31" height="230" as="geometry" />
        </mxCell>
        <mxCell id="Sw0YVvMUw1x_Csk0eEdZ-5" value="" style="shape=image;verticalLabelPosition=bottom;labelBackgroundColor=#ffffff;verticalAlign=top;aspect=fixed;imageAspect=0;image=data:image/png,iVBORw0KGgoAAAANSUhEUgAAAggAAAEPCAYAAAAnETxGAAAgAElEQVR4XuxdB5gUVRL+O03YXZaogiQDCkgQFcMZUDkkKBlESWJAjGckKkhGREHMgZwEEREVFTCAEiSqKDmoYCCnTRM63Vev5y3DHmHZhVt2rPbDmZ3p7un+X3XVX+HVU5KTk92qVauCN0aAEWAEGAFGgBFgBPbu3YsPPvgASu3atd0VK1YwIowAI8AIMAKMACPACGD06NGoVasWEwSWBUaAEWAEGAFGgBE4jAATBJYGRoARYAQYAUaAEfgfBJggsFAwAowAI8AIMAKMABMElgFGgBFgBBgBRoARODECHEE4MUa8ByPACDACjAAj8I9DgAnCP27I+YYZAUaAEWAEGIETI8AE4cQY8R6MACPACDACjMA/DgEmCP+4IecbZgQYAUaAEWAETowAE4QTY8R7MAKMACPACDAC/zgEmCD844acb7jwIuDGXbpyErcRfxwddrRjXXh7KVDoTfYu8X/Q+9jfriL2Ofyt/I2jnzt+Z3FMbHdXcekXxYnE+9h5vTMf61pP4tZ5V0aAEcgzAkwQ8gwdH8gI/D8RsCFNuGe9tcPm81i2VFhiJ2bU6VUaXN17m23d6cwWHPGBD2rscwU2AAtwfR5jUCwAEcANAI4GqICt0IsNhfYTm987bex/ZP4hvlcAR4Wj0m+50BxV7G2pUWiODsVRYes2VEeDorhwFRMK/YBL9+mRkaNth6lPjGgcc694kE6GXP0/x5h/ixE4sxBggnBmjQdfDSNwDAQkQSDjRv88Ays98cNsIXZ4tj2UXj8ZeyIJZHD1ww66OAmdWxIEP7nyUIRNJsNuAq73GVQzjiDo2QRBgQM1myAYEKZa/D4Z+iMJgisumyIF3quj2FBcXUQOiDN4d0XXSYSDrpVIwrEJguQ54jaOKzsckeBHixE4WQSYIJwsYrw/I1AgCJB/T4bTM6H/QxCkdXRdjzV4lji2OYIEHD5O+x+CQAaZfsFFPEEgU08RBMMLNyhEEIgwHI4gkO0WBl9EG2iLefxHYJSdT8j+1BbRCBeaq8FRvGtVHXnZFhQRh4gRhALBm3+UEWAEmCCwDDAChQIBz3wf9pNjEQR57TGPXLjRLhECyuursd3pyxwG/IhyhlgqQVCEQA6P3YEiyAYRBNovGosoeCmG+CoE71JkSiNGQmLEJdt/p68VF6ZCJADQbQ2WqsJRAJ/tXbKjWNCYIBQKqeSLTGwEmCAk9vjy3SUMAl7u3rP4h4PpMQc+LlJAbjjtR9ZbE9H5w4bbSzGIQsD4TdQpkEdPx/rF+eUuhwPzMkpAVtzwLLlK72kPXVyZyEKI81DKQocDDVrsBFSrIBIjsboIyzsCukN1DBRFUGDQ6QSvoJQFkRE6r3eth6/4CGaTIxKS47uEGXu+EUagYBBgglAwuPOvMgJHIOAKQ0uOvwJ6T6/xm0cOpOE//M1hgiCjBNKDJ+Pq+eFejZ8sUlQPzyCgoICYQOBAESF/IgiUTvCIhTyTdyVkqslwO16BIqUxKOXgqHDhExEAOkanIkZERarCgg8GnZJ+QRUlh7HiRYpUxCIaor7AS0vI2RPiekQ0Q8/GglIOrkvXKUIkh+swJCyCN8lCSfql+BTLkcLmOA5U9djfs2gyAoyAhwATBJYERqAAECAjJcyu60K+p1efzwfLsoQBk2SB9rMdG1OmTkXZMmVx0UUX4byKFb2ov8go2MLyKooD16XQvYMZM2dj9S+b8chjjyMY8EE3FPgMQ1h9cW4X8C7BgaI6OLBvF955+01ceEEltGnbAY5LMw48okDcRVUoHkD/VLi2DUWlmoUwvv1yAVYu3wItpQTuvv8eFAuGYEb24d3xM9CqbWecE0wWwQZTU2EQ8VGpANLBkoXzsGzZcnR5pBeS/fSZC8ulGRQ2Zsx4D6nFSqJBw1thmhYMXUM0GoGua3BsC7oRm8HhanDFBRIGLjTDq9NQFA379x/CxAmTcehQGrp37wm/3xBkyHFdmGYEfj9FSjxCxhsjwAgcHQEmCCwZjEABIGCaJnRdF+QgEokgGAyKVzJctm2Lz+l7IguapiFiRtGseXNcXusKNG58G264/jqv1IBMvGWK6YyqThX/VFRooX2H+/DetNnY9NsWFE1NhmFoSE4OinmJqqJCoyAAgFDYQiCgYdP6n3HV5VegfoP6mPbhTJiWBj1gwHIBy3ZhaEQOKCahwTWjUH0OTDsDg3v1w7vvzELgrAvw7eJvUKZECKGMnbjmpsb48NP5uKD42VADOkKug4BCRpxmUDh46fln8frrb+CnjXuQGgA0HYhYfqiOifbtWqH8eZUwbPgIuLYLXVOQkZGOlJRkZGWmIzk5GY7rwHUUaCpFGYBo2IQ/SHTHIwi//boNDRs2Fq/79u1DSkqSIAiWZcPweQSDN0aAETg+AkwQWEIYgQJCgIiA9GApkjBr1ixMnz5dEATp3dL3RBRC4TCgqFCgoUaN6ujVo4cw+rTt27sHSxYvhGuGoBHpsMP46NOvsGnbPtx73z3Ce05OMmBTaN0FqlWtjgsvOF9EElRVgeMQWXGxd+df6NnjGXz0yceo36gl3h07AYqhQdVcaDQdkZIJrg7XikLRwgg7aXjp2aGY+N5X6PPCOLRs8y/o9gHs37MZlWvehGvqtIE/6wBKlCqJB7s+jqsurQGbkhSOg4Xzp+H9qe/j03kbMOrtF3DtFTXwzfcboSOMX35ZhYFDRqB1mzvQskVzqBqQ5PejZMniuKxWTeiGjrlz5+K9Ke8jlBmBX/cjapvQdAumwI6IEmGlCvJwyy0N0aXLvYIc+Hw6MrMyEQwGoBCeHEEoIOnnny0MCDBBKAyjxNeYkAjI1AIRAjLW9ErRApkfD4fDIuVAf4sKA1E56Irsums70DQygC7279mN1T//JOoI3GgEqqFiwsQPsP63Pejdp2d2XaNBBzouzqtQCRecXxGGoYgohKpTmIAaINnISt+HW5u1wvqNf+CF4aPRpkNjr4bADSOg+oAomd0INCMLETMNQ7oPwAczlqPb82PQrM3VKKYdxO6da3HZdY0xYNgEdGhYH7169UGtG69D21bNoCkKNM2FY+6HZTu4qX5bNL6lDhwriqU/bMMDndsimKTBshRQmGP3nn144olHcOcdbdClS2dcWqN6bAok1SwocG2aqUHNlQDLyQIo0qH4EA6bCAaShdzYtlfTEY1aglQpqitSFoFA4ITdExJS8PimGIFcIsAEIZdA8W6MwKlEQBYiUgpBbkQOpEcbjUZF5ID+ptSDqhkifx+KRJGWlg7VdnFumbOF8VZcG+9PmYR+/QdCJ+NrO9ibFkLI8qFMuXLC+FpOBLriin3atWklcvaOo8CxLBhUA2BHATOKsJuFWpdegb93paP2Nbdi1ufTAF2BAROOZUOPUoogA8/0eQSfzVuEyK4DCKUFgRJVEUj1od61qej6VCfcevuD6PTQMHS69Tqs27gF9z/9NGZMHoea1S7E/v37kJxSBCkpKYBr4oEHnsScOfNR5/pr0H9AX2i6D8GggbTMCJYtX4qpU9/D7NmzRL2EbUbg03VolJOgAknXw4wIk2KYcFwTimLAtqh3o4ff3r37UbRoKiIR04u6KA4CAb+IIPDGCDACx0aACQJLByNQAAg4ji3y6OSPp6dnYOTLLyMjMx2GpiIpmITLr74W3y74DsVTA7jq2hswd95cUS24fdsOrFmzFnVvvgmP/echbFi/Dku+WygaGpFnTMV+LZs1wmdfLsT4qXMwZvwo/PnnH/jxh1WAbYniREor1K/fCDfVuVbcuetGodHxcPD+xDG4q/OTUIwAkopVwBdfz0WNGufBsjMR0HzQbSp0NKFqexA10/B4x8exaOkOdBs6Cbe1qomuXdqjdAkVH3+5BDWuaol/nV8Olh8IKSrOLlEUbVo1wJAh/fHDil9R+/LL0aHDzej27Bt46eW38dVn45EV9mP7nzvw048L0bzV7aIG4ayzSqFtx7YitRDOOIR333oL+/ceEKTAK5tU4ddVtLizFSZNmwyNiAGVVFoKTMvGjz+uRtUqlfDqyJGiiNEfCMB0bOhEyApg7PknGYHCggAThMIyUnydCYVA1ApDpUpBKvG3FYQyMuEiBKgh/Lx8ATre/yJubX8/Gl9WHO0e7IYhb4xE20Z1oTpBUblPbYkDAQOubcEKO4CWBsXdh/cnzEafPs+jZLkKGDNlBu5o3QFZWVkYMHQg2rRoIBohmjSjQdORpBtwdTKlURiKCTuSjpY3tcSi5T+g44P3YuKnc/HAg93Q/5lHoKoh2DCRFk5FCb8FzfoL6Qe3oFWDR/D9z7uhJJfD8HdeR8vmV6KYvg9N/30r6t/eHY936oB07EfDO1tg5IhxqFr5PNjpe9G5fgssWboEre6+HfuUIrjy+pvRt8fD0CwNWSEHlm0hOUVHQKzhYGDEhClo3Lw+dDcC+0CGmI7pIIKIpsFQotjy/fdo0PZBdOnVC089eC9UIg+qCssBgpoC3bVQxGdA8VGLaB1Zjg6qVYytSpFQssU3wwicKgSYIJwqJPk8jMBJIODAguU6Yqqh4RpQHBeqFgLc/Vjy9ddo1mko3v3wU6Tu+BZN/jMAI956DQ80uxmuVUTkzbNMwB+gkj8Lmu3D94tnoWePx7B3l4LKVarg7/3pSLdUFE9KAc2YqNeoIfr26S6KFLMUFyql+F0bqhuFEo3CZyhY+OUXuP3OR/HYY13Rqn0jjJ4yDp9/9gvmzPsEJUv5oLgh6HaqiCAYvt1Y8Pn7uO+uAdidVRSVLqmK1b/8iBdfH4QyRWyMGfkatu9VceOVtbF953ZsTfsT9eo0w8OP/wc1K56NxdPfw1dz5iGryDkoVaEs/KkBvP/+DHw240OMHTUBE7+Yi6XzP8PsMVPQo1s/fLBiOSpUOhtBmEiyFSghINNMw5zli4CsNJRTbNx0d2880qc/rq16LipXuggXX3SBqNmImg4CRBLsLIiKRy2ICCUgCIOTGDPelRH4pyHABOGfNuJ8v2cEAnaMIFCKQYcOMyML/hSqwM/Cp6MmoU2PN7D4l9U4sHIamnR6DiPGjMV9Ta+DrqWIMkVaBCkcdZEUsOFGgIyM3/HL2p/w52/70a/fEKScXRYdujyEFg3r46t58zBx3DgMH/kqql5WDVpsmWY4UfjdKBwLcGwFTz3YBbvMYhjx1ggUT8rE3r82oO71d+DfbR7E0BHPoohrwYhQK6Qs6MEMDH76KUyd9gPMpHJ44bUXkJQShh8ZcO00fDf/e/yyejtmTp2OZ3o/h3GfvI+nnu6DR+5thyQtCjPjD5iWi0uuaosxrw/Cb1t/RLeBb+LKCypix5692JqejtrVL0bo7z34bdMufLlxHSpeeDaCrgVfxITq+PDdonloeU973HtPe9xZpw6ua/kUHh04EMXtffjw/Wl487VXcPXVVyHTdBCxVJQMxLoqqT6YFHShzo+cYzgjnge+iDMTASYIZ+a48FUlOAKWG/Wq72nan6XA0DNEjQAiNvo88QQmL9mGlb98g1WfvIpmHV/AmxM+wN1Nr4GimTBN4KfVf6PqJecBCCPZ78eOnVvw0bRJ6NZ1KJo2uQ3/6dUHvfoNw95df1CjBARC6fhzz370Gz0VnVrXh881oSMDdqYDLVAMMz/8GC88/yJmzP4M55QtAV3ZD9fahVeHT0OPvqMxdvwY3N6iHvyKDkeL4Le/f8HArs/hrOTK+HzpegwdNw5XXFUaJbEDhuJiyY8b0fWxwXi4RTt0HTwQI6dMRrOG18NvO9i2cSWWrpqP+Qu+wzeLQ5j90StYv+ADvDrtB3zy4VSMH/sWRs2Zg+VfzcXX732ETp0fxoINW1GyTFGU8lkIuAqy0sJo0bQBdilRfPvlp/h96TJc3bwrHur7HJ5/vAMmDB+El94YAy0pGZ/NnYdzzy0j2kYaVHtAy0mLAsYEFzK+PUYgnwgwQcgngHw4I5AXBKhYTq4zQKWKinkIqhLFb5u24babWuK+/kNwd5fmWD13DJrcPgRvjpuOTi3+hai9E5u3bkPt2nfglzVrUaFCQBQYLvj6S2xauwHjx09B89bNMX/ZT7D9pdC+WR1kHNiHpjfchK9XrkaVm27CpZUvgs+hRsiHoFguvvp6Be68/0m8/sZraH1rPVHEqGgHYStp2LPbxe2NOuLA/r0Y+MIgNGzeEo6ThnZtGqJn98H4ctoXmD7nG7w6fRaqXVYWqUom3OgB7N21F3e2ug8rfz6EqdNHo0H9f2H02Olo2bwRli6YjglvjcLCZatR5br2mDt7BOa8OQi9X/0GY8a+hf5D+2Ltb7+ibbPm+HvDr/hu4SrMW70aFS8shaAdRsBV8cSDT+L7ld/hzelTUOOi87Bu8UJcc+sTeOLFoeh7X1O4WTvxUJdHMfvzeahQ7WqMmjwNF15QGkmuAz+VNVgmVOoseZyWzHkZVz6GEUgkBJggJNJo8r0UIgRcWDYtakRxbqq7z4BtZqBBnUYIR4pi/CcfoFy5JCz59G00afci3h4zDXe1qgPoO/D9shW4pd4TWLZsJSpXKQbVzRRLJd/eojXmzZuPlm1aoHy1K7Dox1/x4Zv98cHkCej3TD9cekM9TPp8tijOS4ID3TqA9T+uQJMW92PM7EWodWkF6Gk2kpNonaQQLIVmWiRDyYqiyrll8FdWFipd8W/MnzsDRYMRGGoSej/8FBYu+wUvvjcdlS45F0UUGwaiGP7CUAzoPRgZ9rl47Z0RuKpWWbTt0BWfzHkflcsCgx7rjlffmYYLmj+KOe8Nwtx3BuCThXvx3feLcUvT+qhQ7lwsX7gQnVq2w2NP9caPf21H0WIKkt0Ipk6YjF5de2P+wrkoV7WaSMusWbwQ1zV6Cj1eHobn7mkI3U7DT0uX49etv6H1A70wc+ES/Puq6oDpIoX6P5hZUA1qt8xVCIXooeFL/T8jwATh/ww4/xwjQAi4jikaH4l6Ak3Fzj9+Rp8ez8GOBtC//2CUqXwhNDWM9Stnol6Tnqh7c3M0rXc5bOMAFny3EBPHL0CPXr3Rt+/DWL/mRwzo0xdFU4rhqmuuRVJqENM//QKmryTmTB0jmiCZh/7Cne0fwKdLtuDDb79E/eql8d2MCeg9YCj6Dnsb9ZvdJpZPos4AVNlPqymKxZMcTdQUbPltPUaPGoc9e1U0b9UUt912A1Q3Hc893R+z5q3C0DGTcOkl5bFg4ut4Y/InuOL6OnjiofswacRgzJw7BxVqX4P16/Zi1sdjcUk5H+66qTnmf/8TKjW7D5+8NwJzZ43BlI8WIaCn4tIal6Bzp/YYOKAfVny/EnXrt8AtbZqgVq2acA7uwOB+/dH5gUdRtfrF6DdsGJYunI/LKl2EEaPmof+br6LnXbdAs9O9pSEVDW9O+Qx1mzfFOUVTEFAgWj4rIsVDd8oEgZ9IRuBYCDBBYNlgBAoEAVs07qH1EV2fge8XzELTBi2xdvVWVLzoAqTbgK5lIH3nalzf4FFsXfcXkvRM0ciIrLhtF8OHM2eiSeNr8cKQIXhh0BBsWLcO/QcMwvjJE2GqGm5u0g7z3p8ojL1q78dHM75A+wf64JHnB6Df/S3Q/PKaKHb+BXhn4kykliomCAL9I5MpTCct5uS4sKL7oCdpoCUb7UgRKH4NNkJQzb3o13MQPpq7AsPHvYdyZxXDLZXKoFilWli2/gc4mRlIdQ6gfoNb8PXPm3Dehdfhw09GoUa5ZNxzc2ssWLIK59/aHh9NfQ2XVy0NlKiAb75YiPPLnA3VocWggN49nsGbo6egVecH0a/vsyhfxIIZCkMPFkE0moVNf/6JWlWqIGADWUZZvD5tCro0uQqGlQb4ggAM7I344Po10TUyhaInFG5xooDqrVzJGyPACBwdASYILBmMQAEgQB0MFU2BDQejJ4zH+LdHY8Bzz+KWuvVg6UlwyUI7GaKYMN0MIugPQLddRO0dUDU/ssLFYPgdLF+2EM8PHIZXXnoRF1e9GFAMbNj4Mzrc/wieGTwUza+oKX5HDfgQDikYOnQk6rVtiVqVKiJFiQBmJtxgKViiaM9FNNY6yOcCukMhBAuuShUT1EAhAk0JwlH9sBQFirMb4159F198tQTdnu2Dp7v1xAPtOuGue++F6iduERZUwwzvxlN9umHVpgiGD+yO66qXB8yiopfBT1u3o2v3x6AHbYyeOgVlfCWhmmTXvbUfqOFDw2ZtcH3Dxnj8P/egiE29ImhtCiDgV2BqOkLpB9G/21OInF0NfZ59GucYJpTMnTB9qbAdHQgki1UpQzaQqjrQ7bC3OpSIIHA3xQIQf/7JQoIAE4RCMlB8mQmGgFiimToBAiatrmi70Gh+P7VW1qkyQYGPGilHbUR1Cz7FgELrDuhUt+DCUWiBoijgRuFzqWUxLfwUoeWUoGo2woqKiG2gqOKI1ROpHbNpe6sfRnwqFDMKvxMGdB2u4oftatA0qjnwPGqa/kdLL1NnJcehFRMVqGrsb1uHrfgANQzdNsVMDJO+MpKh0z1ETOpOhAhM6OK4LDiqi30ojlQ3jKB5CK6TAtfVofr8MFUgzQzD73cQjAahOgpcnwXVceDYLmy/H+kmENCBJIvWWzAQslQEDAVRMvCmBb8TwiG9CAzNRZKZCVD9BAyx/qSl+0VkxE9kh5aNNnQ4ChEiWtCJpzIk2JPFt3MKEWCCcArB5FMxArlGwLVg26boZxBSFaQofihRL+KdphxEkpoCNayLvj4wMmG7EWh2EUTI+fVpUHy0gFOWMHCaHYRjR3Ho0E4UL1keUTsLiqjQ94mwOp1CyciAmhQUCyCRN23bYbGMcsTWoSkqdFX4617dAZEKMcuCjCw1VPLDNr0eQ5R3cB0LKvUSoD+zsoQjbtGaSXoAqqtCtS04tomQP4hk8tZtExFfsjDm1HfBp1BkIbZQkqUgUyPCAREdUGw/IqYNS3cRgAmNCISig6Ahf9+feUAYfMUXRDQchmsE4dddaI6FXWkWShb1QyfioxhinQmHOk3qAViqgRQlQzROghqELdoxc/wg1/LKO/4jEWCC8I8cdr7pAkfApUWabFA8IOy68NtBaBRU8JPZz4QBHWrYB9gqtOR0OG4IKnVR1IJUFgBbjcJVQ1DhgxIJQtEcOG46VJXC6RRN0GieAqKmCV1V4XM0wDJh+2j1AgWmqkCYabEssisWPxK8QM0CEBHmmDxwB3QNRBxUQTbIYde0qFi/wVZSQKsrK7YJv59MuINw1A9DdcVaB1maHyUUIhSqqImg87iajYidjqDuE5EC1VKQ4Q+IeyqaFRFsxvL7xMoQRBBohcuI6oOrUkMpwBdOFxEEMvqa64r9LNNFkmbC0WiRJotWYRB1FxFXFw2RDFoR0wrDIIAJd92HkO2HT1O5AqHAHwS+gDMZASYIZ/Lo8LUlMAJkbSlZIHxaqBTaF28o60++tgqVChGEC2/CdWmhJT8QW4GQvHsKo9MBiihYoCWZo8Kz904kEgViSWVVoSRALJQuCvRcsU6BWCrK9ZZCFt+K6AHFBehHPf+aGgqJlSfp79hpFZFqoPQIRSmoC6MDnYyviDr4BOHwqhdUQTFovQlHpCy8MzsKtXimX6DzqiLFQvv7aOEE1RVkgK6NDL3rAq5Cf3vevipCGXQ+WqRJ3ErsTum35V16aRVX1bJ7TYgzEMMR61tT7YchjucEQwI/Ynxr+UaACUK+IeQTMAKMACPACDACiYcAE4TEG1O+I0aAEWAEGAFGIN8IMEHIN4R8AkaAEWAEGAFGIPEQYIKQeGPKd8QIMAKMACPACOQbASYI+YaQT8AIMAKMACPACCQeAkwQEm9M+Y4YAUaAEWAEGIF8I8AEId8Q8gkYAUaAEWAEGIHEQ4AJQuKNKd8RI8AIMAKMACOQbwSYIOQbQj4BI8AIMAKMACOQeAgwQUi8MeU7YgQYAUaAEWAE8o0AE4R8Q8gnYAQYAUaAEWAEEg8BJgiJN6Z8R4wAI8AIMAKMQL4RYIKQbwj5BIwAI8AIMAKMQOIhwAQh8caU74gRYAQYAUaAEcg3AkwQ8g0hn4ARYAQYAUaAEUg8BJggJN6Y8h0xAowAI8AIMAL5RoAJQr4h5BMwAowAI8AIMAKJhwAThMQbU74jRoARYAQYAUYg3wgwQcg3hHwCRoARYAQYAUYg8RBggpB4Y8p3xAgwAowAI8AI5BsBJgj5hpBPwAgwAowAI8AIJB4CTBASb0z5jhgBRoARYAQYgXwjwAQh3xDyCRgBRoARYAQYgcRDgAlC4o0p3xEjwAgwAowAI5BvBJgg5BtCPgEjwAgwAowAI5B4CDBBSLwx5TtiBBgBRoARYATyjQAThHxDyCdgBBgBRoARYAQSDwEmCIk3pnxHjAAjwAgwAoxAvhFggpBvCPkEjAAjwAgwAoxA4iHABCHxxpTviBFgBBgBRoARyDcCTBDyDSGfgBFgBBgBRoARSDwEmCAk3pjyHTECjAAjwAgwAvlGgAlCviHkEzACjAAjwAgwAomHABOExBtTviNGgBFgBBgBRiDfCDBByDeEfAJGgBFgBBgBRiDxEGCCkHhjynfECDACjAAjwAjkGwEmCPmGkE/ACDACjAAjwAgkHgJMEBJvTPmOGAFGgBFgBBiBfCPABCHfEPIJGAFGgBFgBBiBxEOACULijSnfESPACDACjAAjkG8EmCDkG0I+ASPACDACjAAjkHgIFDhBsCwLmqZBURSYpgnDMBIPZb6jEyLgui4cxxGycLSNvlNVFbZti31YVk4I6T9yB5IjkhFd14U80UZyU5g3KevxMi+fg2g0Kp6HYz03hfm+T8W1S5ziz0VyQfaG/uXm81NxHYX1HAVGEGjg5CCRkNPm8/n+Z9AKK7B83XlDQBKF+IeXFDwpR3olQun3+/N2cj4qoRGQOiX+JkmeEsF4klGjf5L4xJMgSZzjyVBhJ0WnWlBJb9A/wo/kQZIEkg/SNYzX0REvUIJAQk6kQG5ysE61cPD5Ci+yPxAAACAASURBVAcCkhzQwyoJQk4PgGWkcIxlQV0lEUkpR2QMSH4SgVCGQiFh2CjCKskBYUzOFT0rZPAS4T7/H3Ijo5HytyRZoL9zRhX+H9dzJv9GgREEqehpcCTzJ8PATO5MFpfTe205Q3/xZIAUP20kK/Q5KUoyALwxAkdDIF52pOdYmJEi+ZeEh4wYkQW6L6kvpWGjzzhNe3ikSacQuSJHlDCTUUiZ1qY946OWbH+OfEoKjCDI/CANjmRuiRIOLMyK6Ey4dikTOaMFskaBPmdFeCaM1Jl1DUQef/rpJ6xZswa33HILihcvLghlSkrKmXWhJ3k18VE0+WxI/UnfSQJExEB6x+wJeyDLGjdpY2SqhgiC1C+M1bEFssAIghT6nASBB+sktUeC7R5frCijS+np6ShRooSoQyAvimSEUw0JNvCn4HZIXi677DJs3LgRDRo0wNSpU0XYPRFqEGT0jO5F6s7x48fj888/x7PPPovq1auL+wyHwwgEAqcAzcQ4BekJWbhKBIqiCYQPpWZINuT3HDk4+ngXCEHYv38/unbtih9++AF9+/ZFixYtBPMlwU+E8Jg0XlL4fv31V+zatQs1atRAkSJF2MCdQPeQHNADu2PHDvTp0wfr1q0T8tKqVStx5IlmPBQG1RYvIzKHvHXrVuzbtw+XXHKJ8Hql0sqZMy0M91dQ10iYkaEkDFevXp3tRRb2dFR8+o3ek2d83nnnYe/evahQoQI2b958RG1CQeF/pv0uEQEae3reDh06hG7dumHp0qV48cUXBYkkeaHvEokgxNud3bt3o2bNmnmOohUIQdi0aZNg+llZWbjnnntAFyEHKREiCFL5k3ASGbr99tuFkXvyySfRs2fPbI8mEe71dCgESQCIWJFwE4533XUXxo0bdzp+rkDOKR9iSXiIGBAB2rBhAx566CH07t07W3nJ3GmBXGgh+1H5TJHcSIKQCNGm+HvIGRqvWLEifv/9d46qHUNWJV5btmzBpZdemm13xo4dK45INAJO93vw4EE0bdoU27ZtE7pz4MCBeSrALBCCsH79esHwibV16tQJo0aNEgOVCKFAGf6Tr+QFlytXToSzGjZsiJkzZ2aHteS0pUKmg0/r5cY/rJRLpqgLyUmiEQQCkYiPnLGxZ88elClTRvxNDzbJiTR2FBYNBoOnFfdEOTkThCPn9ifKuOb1PuKJFZHvqlWrilORPpkwYUJ2RDJRnDXSKVSQuX37dhFhovtq0qQJZs2alScIC5QgUDqhffv2GDNmTHbYvbCHeqRAUr6cCM/OnTtRvnx5MTitW7fG5MmTj5jLHD/NM08jmGAHxYdSKZcsH2gikvERhMLuFcZfP90zEUnyBIlYtmzZEtOmTTui2U8ikOf/h6gyQWCCEC9n8c8ZRa7JMaWtbdu2mDhxYp686v+HHOf1N0h/0EapJ7I7lIpq3ry5cDjyshUIQSAmRwNFg0eKn4ptaEsEpS87m8mcJyn+888/Xwhio0aNxEDJquOjdfnKyyAmyjHx0QOSBSknhB0xfpKTnLn7wnzvVFBG90YkkWpUypYte9RIE5HmSCTC89xzMdhMEJgg5BQTOeODUgxVqlQROqRDhw4JSxAo4kjp+3POOUfUHtStWxcff/xxLp6e/92lQAkCXc7dd98tahBoK+zRAwmvnFojPUMqIiIPkELHM2bMENX4ZBQSLfeVJwmMO0jOaJEk4FgEQR5S2MOCku3TfRBBoFQUyQQV7coIAj0TLCe5lywmCEwQjkYQSC6okLNy5cqClFPkmlIMskixsOsSec+yfotqmsjhIN1BKQZyTPNiXwuEIMgaBBoUiiBQioE22Xo59+rgzNtTFp9JgZM1CHSlpPiJIMR7wXkZtDPvrk/NFUmCIGUhPmcoI02FPcqUEyl5z5SKkgSBQoIfffRRtpwwQci9fDFBYIJwtGeM5IJSDJIgUARB1iDE71/YiYLUjzR7gSIIZF8aN25cuCIIOQmCrCYt7IMj0yTxAhdPEJo1ayYUv5zGJw1h7tVfYu+Z0/j/EwiCHFEiCFSkSFtOgpBopOh0SjETBCYIx5IvSRDo+44dO4oUQ7yzlgj6OCdBkEWKhSrFwATBm+efCAJ5KpU9EwQmCPmVJyYITBCYICiQEQQmCPnVKKf4+PgwOZ2aIwi5B5gJAhOE3EvL0fdkgsAEgQkCE4T86pHTdjwThLxDywSBCULepcc7kgkCEwQmCEwQ8qtHTtvxTBDyDi0TBCYIeZceJghcq3J86eEahJN/us6IWQxcpHjyA5eIRzBBYIKQX7nmCAJHEDiCwBGE/OqR03Y8RxDyDi0TBCYIeZcejiBwBIEjCDyLIb8a5DQfzwQh7wAzQWCCkHfpYYLABIEJAhOE/GqQ03w8E4S8A8wEgQlC3qWHCQITBCYITBDyq0FO8/FMEPIOMBMEJgh5lx4mCEwQmCAwQcivBjnNxzNByDvATBCYIORdepggMEFggsAEIb8a5DQfzwQh7wAzQWCCkHfpYYLABIEJAhOE/GqQ03w8E4S8A8wEgQlC3qWHCQITBCYITBDyq0FO8/FMEPIOMBMEJgh5lx4mCEwQmCAwQcivBjnNxzNByDvATBCYIORdepggMEFggsAEIb8a5DQfzwQh7wAzQWCCkHfpYYLABIEJAhOE/GqQ03w8E4S8A8wEgQlC3qWHCQITBCYITBDyq0FO8/EFRhBcWsoOsAGo3luxuXDEX/QfaB/aFAeu/Ow043Eyp2eCcIoJQkwm/ncMLMAlKVEBxYILLU5iDu+ds6t/YTBAvBbDidZiIH1AY5+tIACFBIX+yc89nXFYi8S+lsfEqRKSCVU50W8eRwtk6ySpr47c94gzy33jdrFj1yKkWXyfQ+jjTiAXa6KPOnToiIkTJwKuC1dVYMeUo+ZpysMXc1iRxnRnHBb0nfy5HPdxWNeexP7H+i35O0J35zhfjls+OkFojI8/nnXkuOdSMfNiTbkEKre7FRhBIGYAIFNzYcCFSn8rJPgRYQwMGIBDn9twAwq9hW06YnlcVVXFqxQux3Gg67o4H723bVvsQ//ob9roM8Mwso8zTRM+n0+cIxwOIxgM5hayw7rKdbOX66UPN2zYgKpVq4rvO3XqhPHjx2df40mf/Aw/YOfOnShT5hQSBKnz4xSkq5AtcGFbB6EpfkANwnYz4YpXDY5rQoEDXdNhWzZ0VYdrO9BUFZZtw7ItBIJBWBbJhwrHtrPlh8adZINe6R/Jj3xPr5qmiX1pn3hZiUajCAQCp2x0mCAcz1jb8FwD79kWewqPwhZEEa5P6AzHjcJ1NbiKBthRYUQ1VQf5Gi5ZPk1DxDbFvtFIBEWSU+BaFjSSG+ewTMTrDqlfsm2vOKdnjl0HiJD+CBgIRcLZ8uBRFLremPUlAXZijIBeVCCquCCKq8OFz3I9rkN3pgKuEnOMSLcpwMZNG3FJlapQXRcd23fEuPETxa6OBkRjF+bLJhqnTCT/ryeSt797926ULn2OuL+mjYkgfOThIhyDwxgeZkNHv0wmCKd4+AqKILgRB4qhIqSSP+hAd8ngK7AUemBVqPQ8Oy40x4ETVGG7DjT3sNImGEiJW+JB14Qil2SA7kmSgfT0dCQnJ2eTBangpTIQj6eiZBuEk4GXIwingSDIASCdoJACtYVCVhCBbUWh+orBIhVMipK8QbjICmUiyR+ETgrcBVwihapHJIkoSFJJBEF8ZlkgOUhKSsomkzSWUpaILBChpL/9fr94T/JC55GycjJycrx9mSAcnyAIh9eliFHM9RUBBVIOJlw3CY7jwlVMqKoBy1agqY6QCVgOFGjC2yY5sug8qmeASQ50ePIhnAnNe5UEkXQHbaQ7UlJSxNhny0TUhj/og207sF1PV2ma58V7dyJYSWyLfUpGLnabxBeEzrEdKCTE0qPX5Q4xeygJQtUqxHfQsX0HTJw4Iba/Kq6VzunJj+cEFb6N7kPwNhBBOOecc8T7Jk2axCIIdEfEnOLu7ATBHyYIp1gKCoogwHTF2EdUGyrI+NNDpiGkQCjmJEWjzAI0RcW23X/gxjo34pURI4XwSEVOUMiHWkYM/vOf/+Dtt98WXl8oFML69evxxBNPCMJQrFgxEaYjpS+JgfQeSUHIKERuIWaCcCoJAll2MSqewxBzFymmZGYqMAImoIbgOiXhkCdGnj9sEaYlz86xLRiajlHvvIvHH38cq1auRJVLqgqCIJS7YwtZiieIRBA6duyIUaNGCVl56qmnEIlEsHTpUnTt2hX33ntvdnSJ5EkSTxGmVuPC3rkVmKPsxwTheBo/ZviEF0kskcKIGhwlE4pK0aNUYUCidhSKQr40kUbLizeQAVY07Nu3F/+6/joMfH4IWrVuDcd14FoO/LoOx/LIQSQaFRHEbt264eWXX87WHb///jvuu+8+ERVctmwZHn30UTz4UBeEwiEEA0GYZlTIluPYIoqVvcWF70m7yT81qIezI4KxeAEGmyICntiLa5dn2kQRhBhB6NChAyYJguB6B4msigJorvizMG5KzPjT5QuCULoMFMVFkyYUQfg4jmTF3h4zBXn47pkgnGJJKDiCINxCmJoFjQTdNvHH9u2Y/OnXuKtDR5ydmkyPE+yoCTVoYO2atahbpw569eqFp59+WihrSQqysrKEN0hMn8jAa6+9lu0Zrly5Ej169MDs2bPx6aefon79+sIrkJ4knUemGk5W6TNBOIUEQXhepAHIW/QIApEDoQktDdFoGlasWIz5367D+ZWroEmr2wSxDJCCphCD4yBCqSJfAJ99NhuPPfY4Znw4A1fUru19H4ssyGgCpZUoRdKqVSuQUqGx79KlizAUDz/8MH744QfceeedgowSuSTiQOMdTy5PxaPIBOEE1i079UT6gtIKBhwnDbYbwpdfrsTGjVtw4OBBNGzUGtVrVoeqWUgyNJFqsiJR+JOCWLN2DW6u92889thjeOLJJ5EcTKKco2drKTKkehHEnj174sUXXxRjTvKwdu1aIQuXXnqpOHbFimW4487WsJwoDM1ANGrBZ1CaElBVT26F7MYoASUbIkKLeVJNCQpBK+meyMAT31GAiAaEY8dR7MIf22/Lpo2oVuUS8Vx07NABEyRBEMzC05/QvKckrhJB/L78+2jvc37m0XJvHHKz/+Hf8u4057HH+/343xLHxW5j9x5KMZwrSGA8QchZxnEiLsQE4VRopbhzFBRBsLJC0AMGbBH8A0Jpe/H8oMF4eezHmPrRTNx24zXiYXJsIGRGEfAbqFi2LOrUqSOiANKboweZlDflxOmzIUOGCI9w//794u/Vq1dj0KBB+Oabb0QIiyIFO3bsEEqAcsmkIMirJJLABCH3wnVaahCkthCKylOscC24ThqmTZiBHj0HYl/mfjhaKno/NwhPPX2vUJQUMiaPkIrPyDDQKxn62Z9/hutuuFZ4eTS2mqIjLS1NyEZqaqogCLfffjtef/11IQcUQaDP3333XZx11lnCc5wzZw4yMzNFmkqmGkhWpGHPPWJH35MJwglUfsyQQrEBNQo4PrhKGp546mFMmvQ5DCOIrMwspBYtj3ETp+L6G2uI6EFAI38dsKIRaH4DF1xcCdWq1cDHsz5GNBKGoerQFV1Y7vSMdOzdu1dED8i5IPmgjWqKiDTUqlUL77zzDs46qyQuuPACzP9mDjKzQkhOKoIo1SIYASgUxYpVHzixQmtZjWBQlCtWc0XZEvL4NcsGwhFPwSXpiOguTEEifFBjMYTNmzbh0irVRJTsrnbtMWb8eE+IdMD0ihcE6ZAInqAe8Ij6xKPVF0ruEv+dPOfR9j9anePR9j/Wb4kbiNWXehGEc2MphsaYJYoUvU0mUOg8J4rbMUHIr0bKcXxBEQTBgF3K80bFQzpy6AC88doY7AwHMPmjGWh84zXiSlUx08HFom8X4M3XXgNV9lIk4Pzzz8/OC1OU4IsvvhD7U6SAvD960MkYbNy4UZADCiX369fvcD46VrMgoxA5owG5gZkjCKcygiDVU0yTClVA+UcLprkb97Z/CAcOKHi854MY9vJY/LXzIBbMn4XiqUkxLWKLnC5Fo1555RVMmTIF1WtUx9hxY+BSWFloGkVEC3bt2iVI5bBhw1C9enUMHjwYCxcuFGSAyESfPn3QqFGj7JSTfEZkDUJeZOVY8sQEIRcRBFF3YAEKFTD7EI7sRo8eT+D886/ETTfdIgxIr15DcSgjis++nI5kvw6ViKID6JqCxUuXYMTIEVizZq2YDdDnmd4xD57C8w7GjR+Pv//+W+iQ5cuXY+TIkSK1tHnzZvHZ2WefLSKXTZs2hhGL/4tKB8qfqxTBAmwRRaCSWW8TCTAiBooCP9VURmJFCn7AVh0ohw7h4NIfcHDDZhQtWwolr6gMFCkCJJ8DqAYcQ8P6rVtQvXoNqKaDTm3bY+yYcd7MLwMIx1LzPhcgAiInZnjBMoqu5sBVTvo4ysyKI2Qz5yyH+Mki8t6cWITiWNY6viyC0oVeuYSXOqSIQaw0I/53d+3ehTJlKIKgoEnjoxMEjxAdf2OCkBvLdRL7FBhBoOr0SBY0nx/7D+7BXbc3gBUOY8FmFaMnjkWrW64V5IByUuRL9n72WZQvey6oxuDLL7/EjTfeKIw9eXUUHqQcMT3QN9xwg7j7gwcPild64Hv37i2IAil/ChdfcsklmDlzpsdOY8Vn9ErnOZmNCcKpJghiRGJDEPNFXBNm9BCeePBJNLj1DlxcozLa3/UQSpe/EJMmvY4iSX7hxfmFx+gVoJUpUxpt72yLN99+E1ErKnLEQku5mpAXkpPbbrtNGIUHHnhARBBoLCnFQBGEGTNmZKcSKCLVmnLXsdkxsk6FIwjHf1Linw35XmJWsWJFUH4/V0RLhuNFBIEIggEo6QiFDsK2i8GMOnhn1LsYN3YGLrrkcrw76S0USzZAFQliMqzrYvCQQUhKTsLTXbtB01SYEQuOTQWwVMXiwnFtbNu2DVdddZUY50OHDomb++WXX0Q9y2WXXSZkIuDzQ3MdPNevP+5s3x421cEoivD8pQGkugZDj0W/4H3nj3qXTuFzJ2DB1CNwfv8Ln3friyLbdkI1Q/BfUBLnnF8JFz3YXQRLUO4sbPpjKyrXqCHupP3t7TBhzBhorgonqGCfGRKzdlJ1g8oQvHSFqLsgouIVRboO3RtN61ShnMD1FniIItwcM4hjaRgrVq+h69oRMzPpN4TtjxES7+//PY9l2tCNOP0qrteC5Ubg8/lFBPjcc8uLczVt2gwffvjhEfpY8hZOMZyMhToF+xYUQaBpaRpVGNtUiWgB0Z1YtfhbXH/HC3hzwji0b3S1EFbLNuFGLTzQ5X40b95cpBDolbw8ShOQwiZysGrVKkECKCRIHmKDBg1QunRpbN26VRQqEnEYMWIEfvrpJ1HoKImBYKVkXPJQdMYE4TQQhFitoucR0ZQ1UyRoHc3Ezp1/onOXftj8xw6Me28Mates4qUUKH0AF2Ykil+3bEbdf9dF37590bdfP7w3bRJuuvEmT4lR7bqiYNKkSSLCROknkoPhw4fjq6++EnJCsvTss8+iSpUqYt+rr75apJ+IWOR1tsvxHlOOIJxI5cswNLnhZnaKQVHC+P23g1i7ZgO6de+OHTsOol6jlnhl9AgEfEEEaRaLGUUklIWnuj6Juv++GS+PfBUrV67CnC/moV7duqJgkApeSdamTZsmClPJUN1888244IILsGXLFkESKF3VvXt3XHZpLSBq4+prr4XP7xeFsqDZB2SUKYIQq12AZQpC6tgmzKQAdIokRL0iS8cgShKBtmcfPrnnPzj3z/1IsaPYYx2EEkiCk3IuqtZrBPeKS5CWouPyRo1wW7s2mPn+DDgW/ZwK0zah6DTd0hWkID53EAj4kFq0KIqmFhVkiORb1TQRRQuHIiADr8R0HR3v1QsAum6IqAPdEulVMSMsNjRUgFmqVEmcdVYpsbcZjSI5OUXU9hD5FoXiFFUQU9BjNUQibOBNJXZsxysSL14MJUqWQMAfFIXFqqZAD2jw+w2EwhEUK1oMRVKKomrVarjy8iuPqKvIhZSIx4wjCKeAFMSfoqAIAl2DIAeWDUs1YegHseTLz1G3zXCM/mAK7rzl8uxant1//IEKFSrgr7/+wuLFi9G2bVsRIqYwINURkIEnArB9+3aRL/zkk0+EsFLlMX1HBUaLFi0SsxsoAkHHSkIgp0ee7AwGcf3cB0GIEhG2jz76KBuPXHmGx5BjUacYK9CG6IlB5NGHqHkAn3w6HR3uHohW7TrgtXeHw1CoSNEL9dK8dp+u47nefYTHGImEcOttTbDtj19BKaiU5BQxp5qmpZEHS2Fk6lVB9QVyJgwVpFHBK/WvqF27tpAtSj3Ifgiyv8bJRpqYIEjv1FPzJxVBEA9aLLJErrVDswYOQNWiyMr0If1QBiZOGo9XXnsXETeI2fPnoFrlC4VXHVCA/Xv34eyzSmHjlvVYv2ETmjZphgrlz8O6X9YimBTwaklUiHoU0iEUKaDPFixYIOpQ7rnnHlSuXBkTJkzA9dddDycriiXLl4s6AIuMKXEEDSKdYaUdgo/6qZgUN/AMJILUZ0OBEon9rVPNVQTYfRBfPvA0sGoNKhQpAjdZQdQFMlEE6tnnYneKD9XvbY+rmzTFRVfXxE/rNiArM4qklCCyMkIoWiwoiiRDYZryGfP6vWpF719cII7aQxAnEK0gYgGAWGWjJ5qyEJTexyaMiM8pnSJrQMiRMkRt5+EiSxWgdhNidOi2cqQn6LdElpDgoLc+mnGkwDJdyi7HHvTYxCXVSwddWfsa9OzZC40a3ApNnCCbp+TK8jFByBVMud+poAgCyVI4K4ygPwALYejuTqxevgjXtByBUZMm4va61QWzz4pmYO3KH9CyeUts2LxZEAQK+RIZKFq0qGCmpNTr1q0rCES1atWENyh7Ivz888+i+IyUPnmFlHKg+gWqRpckgTCgQkVZoZ5b9JggnOIIgpzpmE0QYhEEy491qxehcYvWSCp6MSZPn4SLql4onDdqIiOUvFA4Nnp274EPZ8zAb9u24s627bBs2XL8tHqlCGP6jSD27NmLyy+/HM8995yYDXPHHXdgzBiqU3CFl0jFamQQKNpEKQiPrHhV7uIXhIb0ok6nYuMIwvF8QzkfQIFCyWuyVo4OqFn4e/sGJAXPQWqx4rCsEBYtWo5md9yD4WNH4/bmjeFzAJ/rYMMvP6Puv2/C6jU/Y936jbjrrk6CKG5Ytx5BX1B4sHv27hF6g1IMVHMgdQfVO1EKiggNOR5DBg/Gzr93ij4bLk1rJC/edYVHnUSN2qIm7PQ0mAfTYr04HLhJFPkgwYn1clAcKI4FZc8B7J/8AQ6t/AnuwYOIIgxV06EFiiDDUhBNTsGGtEP4fMM6GJXKY+76LQiULwbLUqD6FNhhKolUkFzUgObXkJJSBKlFUkR0gP5RqkMoUAWoUL48KlaoCM3QYUVNZIVDorGYj/o9qIrnMMUaz2VkZmL/vn2iB4RpWSIqt3ffXqTtC4saHzEiRCIo4+MHgsk+cR7CzHJsZO03xT6+ZA3lypdB6TJlYOg6Vi5ZjazMkMf1vOYW3oxmw6uXsCNA+qE0WBEb0z+YjpZNW4pp716hctyTdoJQAhOEU6GV4s5RUAQhGut4R9W9ISsDQd9+rPpuHq67/S28O2UCWta5WAiR4VNQMpiC3r2fQ7devYRipgIyymFSiJiMPIUBqTixVKlSIkxMkQKKLkiF/sgjjwgjQA8/5Z/JM7zrrruyu+fJqWwnm1dmgnBqCYKMHhz2Gih8GoEZTkeXTndj7tffo+8LL+Hyf90AI5iKMqVSkBL0w+8zhL75Y/sfqHrxxdi+fRtKnlVcKB5fIIj+/fuiR/cesEwH06a9L6IGDz30kCCEJAc0ayE+OnDNNdeIedhUm9CyZUtBLOVUWFKEspHOqXgUmSAcW+NT23XPKVZFNwGxp63Aiqbh3rvvQMBfHE2bNEWtK6vh5x/Xos1dD+DFcZPQtlVT+Kg7pu2gaJFkPP3UE+g/sD80coEBBHzJeKZnL/Tp20d02/xgxgeCGJKDQTMZ4nUH9UagotcrrrhCRCbfffttNG7aFFVr1IDm98Gxo0iiBD/1ycgMY9lLw7F96TK4kSiC1MQNYa/PATVjggrDUuA3XehRE8UDPliZ6TAUGzqlJVQFWXoEmmLAHzXg86ViBxRsS9Hx/u9bcMegp1D+qupQdQ1mepZIF/gCPoTpWJoZoXk1NkIv0X8iZRDrAKko4l5Fz5BYgbZGoQ+CVJAJr3YhvoOkLMol/UhGWvR8oILfWPdRMX8i1qwpfqqj6FDqeM3q6DcobUd1EIJcxIy9eE91D7YNn+aDGbUx6LkXsfjb70UKsHWzNtBU4zBBiJ8ycRySkLgEIb7U84SsKWfHiKN1kIjvYX7sDhMFRRCEH0YkktonU92RvQMrFnyJG1o/jzHvT0aberXFDp3u7ohF3yzA+o3r4Q8kCSHds2ePSDlQ7pgUvTTU9Ep5RAofyylpa9asEVMjaUYD9UMgkkANk77++uvsKnXZR+FkFT4ThNNAEGIPf2wWFwATkfAuNKrbBEtXrIevSADwF4Fqa2jWsjFeHTlcKDa/oePc0mVwf+fOGDigv1i/g3Kci5YsEfOqqRaleNESIuZJ40bHUASKolFEEEgZUgThjTfeEN9RsyTyGseOHYv27dtny4pMa52srBxrfyYIJyIIZOy8KYtCJkTo3MQ38z7GnXfeCyqeS0nxIRIxcVa5ipg+50uUPudcJBnAI53vx+yPZ2Hrb1sRpFSkTgRBwaoVq9DgloZYv249SpUu6RX0ua6oa3r++eezdQfVIFANCnnYNE7fffcdrrn6Krz+1lu4u/N9YmpjJJKBVJ8fCIVhZ4UwtuM9SEnLgF9RkJIZRulwCKbmIs2vgfo3+k0NPuqKpLqwDBu2G4Gfuj9mhaAZnI/+xwAAIABJREFUCqwiDsy0TJzjpkLL0JGVnIItyRpmpu9CnZ6dUbZODWSaESSLBk00l8KbNikNO+X7dcOrtZHNvegzaghFPRvI2BNxIINN74mEUWqOoiqynkDIJNlyEZ0TzACOTTM0TOpaDddRoMrultTplAgSkYu4tCv9hiAr1C4/1qlStC+Hkn0Nft2AG7EQMAIIZYQx7s2peH/iRxg7dhQ6dbgntvpObLrGP40g/E/URCRlYhUz2QRBJpLUWGc5kmU60uPVVN/vtamQyaf4xUvI+4qFQUVZbGzaWA5NVVAEgVqkeoLovbpOBAf27cGb4z5Ap7s6Ys1PK7B4yWLMnz8fixcu9IpnYuspkGBT3psiBjQ/OX6NBUonUAEaGQSKMFA3vKlTpwqSQDlGKmYkD5FqEgSzVdVYNzSexXAyRu+U90E45o9ToVMUi75bjOkffIS/d/xFJdOiS16rli1EH4PZsz/B0KEvoGbNGnjrrbeyPSkq0qI0Qb169YTyv+OOO7P7F5AMUY6ZCAJNgf3xxx/x3nvv4fvvvxezZNq1ayeq2ceNGycIgngk49ZskBEH+lx6XvQ+viVzbvBkgnD8mPGRrXgOh6fNaATffDNfFCavW7dWGPIGDW/FWaVLwzRtDHthKL747DMsXrwou4aE9ASNITkYlJLs1rUbOnTskN1Cm6YyUqOk3377TcgD1ahMnjwZDRs2xLfffivkZ/++A3jjzTdx/0NdEBXdOxWRMtBpTqNlY/OX32DNkmVQHAcpUJBiRWBpLsIGrfVhQHNUqI4L0wkjybVg7N4FbFgLJ5TmFW27DvyKH4plIKIE8YeqYF+5Eug3by56TX4R5a6sBNuNwi+6LlDtQ27L9zxppFkXRLlUkbLx6iK8aL/qef2aIda8EdEIWLCcCBSNinRT4RoZUPQsqI4BNZpMph6KGoHjGrBVKhMmi0TTjU80l/LIJ8NP589y8e7I8Zgx6VO888bbuL9LlxgjjNUgUDfNXExlSKgIwhGNJk5AELK7YXjU7vC8GvEFVYhIAiArTkgAZJ70zCMI0vuOLxKk9+ShUcEbpQVq1qwplHbZsmWzc79SIVOO7P777xdKnKqOKXIgIwgUGqZpS+vWrRNh5Ouvv15IJKUlaHZD+fLlRSRBLrojK9RPdiYDRxBObQThWAZVGl3Z4U56R/RKBJB6HgwYMEC0ypVkUXhXqhctoFzylVdeKQjiCy+8IBog0Xc0pZG6JUo5qlSpEi688EJRj7JixQpBKqnpFrW5pfOKPCuFW+NqEOQiYCItElurQZIJKR/HS10xQTg5AxePrXwvdQJ5+pQKovbIVHv02WefCRIovWtJ8GjMKDrwr3/9SxCLgQMHim6JNB36pZdewh9//AGKPFK0kqZTy2nUK1esxM116uLlV0ai8wP3Q9FpjRhTpD+oF4FoiBChuhnh0gOhEBBUY/Mtda8OQahnhzrD0YpP+KVPP0RWrYTh99YHMRw/bM0Pf4UKWLVnL2Zv2ojbHr4Hjzw/HC+OH45KV1SCpUTgiL4QFCgjY597DI8gCNTLPhaZoY61PsMvmj5Fw9RWHDD8qiAyqk4FkUXgGAehGFlwwioMJxUq2R01C67rg0ULpeWBIFBTKR0GNFPH2y+Ow4eTP8Hzg4agZ69ecMUqvnId3+z+68etWkxcgiBazeaYhEoDKPqQx0o5sxlFfNmpVKu039E+j//+f1VwQUUQZP+CeK9LKll6pd74pMTpgaeNvP343K+8bson0z70EHt90T3DIMJnsUWbRE4stkIffU4khNotU9qBjqM2zfG/nRvPTyqneOXPqznGokE5ZnfkFs8T7RdfIBgvtyQbcqoqjYfsjBlPEug97UdGhFILtEkZpP3FVEkxHcx7yOhveTy9kkE5cOCAyFWXK1dOFK6RDHlTu2KL58RIgjwuNzUtTBByb9zi5SOenMucOI0DjbFcmVMWHkt5kLpGjjMdR/JAxxBZlOMm05OSFGZrUArLR7wiPMPvQ0YoE4FgQHj9NKXRT0V/tpevF/qBXDedQvPUH1GBYonlSb0IcDSEQ1M/xMrX30YZy8Qh+wCMYBJSipTBbkXH+Y3rIVrnGtS66kb0Hd4H3bsPxDujXkL1yy9GWI8gS5frOSpQaa5mLrdjEQRaGI+mH+7dsx9LFi3DZ7M/E+tY1LjsEtS8rDZuvrk1jJQs2MpBaE4Aqkmt8KluggiCESMIFIc4uQgCEQTFVuFz/HjnJYogfIxHHnwYr7/xBhOEIwRe5tiy56d4aYXDVZyxdEMsROQ9VnKuiIwUxDeZkXNdSCCPXXFdUAQhPoIgPS/pKcrwLe0jP4t/qOOVOCkFGQGQ+9ODnV2sE1uyV3ZMJNTkNEdJPuIJRC6fM08B8DRHgcOpnOZ4NPzleMcbfEkWJCmURkISBSlD8VEHSQJl1Ir+lsfL36Xv5FLPZFjoezoHeZazZs0ShWwUlWrcuLGofyFySWQhfrEvuZiYNP455ST+Hpkg5I0gyJkGEsv4gjq5uiu9yjbZ8hmXzoMkdlImaIxkNEjKliQU9Crz59TGmXL1tJIj9UKgVWbJzxU9BGIOmizYMx0XIVUXFRQpok9CTMnTm1AW1o94C3/P/BSlrDDCKQ6CJUsgeGMDZJo2Kt3RHH9bIVS5vDYe7f44Xhs8EqPeGY6al12ELCOETCMai7hTyiL3M2qORRAChg87d+zC6FFjsfqHLaLWokgwBVu3bcbP69ajc5eu+PettaH6MqDBD80igkAdoLLE4tW2QotoEVmJFZPmUpGKFVttFbplYNxrkzFt7Ey0btEa06d/AFf9R0YQjrY0pwjWiLm7lNcRm6J7S5/Hqg3EZFKaZiIGghrD0BabYAqvOtdLNQi15xWZiNoDId6HMxQ5Bq6gCEK8Qo4P7ZPxJgUcTw7oYZbFYVKhSq8gPrIQ70lQBEJGFuINgvQMZXSBrkP+Zi5lOns3Jgj/nxQDAR6PdbyylxEDud4CGWcyCjJKEJ/Cko216Fxy5grJjzQA0njk9ERJlqhNN019lLMZyGAUL14cTz75pGjXTH0TqKEOrdkgQ9pSViWxOZp8MUE4eYIgowRHi9DIZbrJSZBjLEL3BjUC8jxtSQYk+ZMRB/qc9jma7pAy4ffpYgqjbVrQ/X5YFH0yqLrfhUIdXamUjwr3iDSIFSZp5gLgJ9UcU+iu7kCJZiKyeBXmvTQSRZ0Iil1UBqVvvhFn170FbiAIxefD5u3bULV6TfTs9wwG9x2IN0YPR9XLKiGqUeGjN0tLdWkGT/4JgmvZmP/Nt3h12HgMeL47rriittC5xYoVRb++L2DXtnQ8O6I7ipYComEbhlsEmhsBtAyRYrAp4gYV2kmuPE0Bct3V4YaAmRM/xpjX38NtDW8Ts4gSOsXwv0pB5gc8r1j0yqaclZirqiJCfd4cFyRiZN0d1S+acAhz79KythERTnDgg6Xosf7b3meu44dCnTpi0QdKk2oa5YS8c9FSqMd6DAuaIEilGW/c49MP9H285yiVPH0eTxakgYg/H72X56J9ZegwPhWRM08cfx0nKjhjgpB3giBxjo8eHasGJCfO8dEnei9zxLIITY41fRffAEumGXL2u4iPXEnZkHUOMvJE1e1UsEbTZIkkkPKU56ZWvNR5j4rcqI5Briwqr40jCPlslHQM5p5ThnJGbuTzLwxpLO0oU0nxDgoRjniZkDoxXnd4MuK1LnapKJH6IGSnhKkZkliMQXAAms7o6WUHfqrul2VjsVpySyX64ED5cyd++WIeDv79J26+ry0Q9MMqURyuFoTuKNiyfiOqVa+G7r17YPDwoXhx9EuocnklQAnDUKLedEPhDJ4agvD3Xzuxds06r0mRpuPAvv1Y+8saTJn4MSqeXx33P90OgVSqufBBNZOgKiEoKhEEWaRIRZO5T3cIskZT2RUfnCwXn70/B2+PGI/GjRpjJjVeS+QaBKkUZPibMlFk70W+0vHatprhEDTKmyuGCEX5qarVzBRMNKoli5CN2CIRBNSQRxz0FEQVQzQCcdwMMRfWjPih6SQsEZiiFzjl1Kl9FhEEB7bthy9uufL45+1MIQgn673ndX9pJGTNQnw6I95zpPoEykseL4/MBCFvBCE+AkAV5dSljgrKzrSNiljJm6SNag9ofQ9adU6Gt+UMGFnvQsWPFE2g6bS03ocsmDzefXEE4eQjCAUlJ94sS88REyaZ3F8qE6OWxTSVkCIJovWwIogE8QQDDqj0gPog+FwNjmlB8RmgmY6648AXtUUvAPgUMV0xi1oeQ0XQcrF14xbUrH4JnnymK4a8MhSDx7yIKpdVgoEIkhWvHbLlaCKqnNvtWCkGSp0EA8miHbNP9yM9PQNDBgzBxh//oAvFc4NGomrtcxFVDohuij6lGHR4BIHKDImo0PWfNEGgGk5HgxrV8OnULzDqlXHo0O5uURyc2ARBFKt6BXPeFou9UE/szEz4aalh18Fff/8Jy9ZQvOIFCLgWgmrYC2HpRRCyvUUvgooDzTpEa5di09+HEHJ9qH5+RWhqCKYVwY4/M1G2fGkx5YSiEY7jg21qiDiHkJxERTR+bwHRozyL/0SCIL0JmgFBXiCRBVkASZ6E9Chz1irkfAiZIOSNIJDHRoaRsJ8+fbqoOqe0QG6K+nKrCE/FfjICEF/HkDOqRASTiCRFFGTUoWTJkmI9kPio1bGaKzFBKIwEQaZ+Y00IyDJaFqK2DScShS8pScz9FyvWqg5Mw0HUVRCABidECyoYMH1emphWY8yehR4TWuouTjZ/0+bNqFKtKh7s/h+89fpIDB/3Mi6qfh4MWuBItQUJsWJp59zK+7EIAvUkSDuUjpTkVFhRWgBPxyczZ2HRgoX4fcN+1LzmOtz/VDuUPNcHl4hOhGxKJEYQaIojLXetijUpTmYTHCviIKgmY9akTzHmtQno80w/9HrmmcQmCCJ7IML78gGIEQSqcqVwVySMjEMHcMed7bFj/0F8/v1qlE6idYvSYWdmAKmlkeGo0FUI4qCG94tVv6679Q7syNDw86IFSEmJYtu2rXioywC89/4YaL6I6D4VDBaHTUWuugXHJabpg9+QK4wdOXz/NIIg85FkpGiOPBkmmvdMRWdykx4hGTCOIBz9cc9vHwQZoaHoQefOnbOnD56Mcjnd+8oIAMkM1RYQOaCIAn0ua1/iw9r0nqIORBZkgeOJmnAxQShsBEGEDg53diRyQKsmRqLYsmkz0tLSUbVyVQSJJAR8gBOCHTCQHg0hCT6Rb1d0HREFMKj7IZkFWWzmndorJTOATb9uQuVqVdC566MY/cZreGXsSFSqWg66YkLXvJlZFq1gesJFkA8/KcciCAb1MXAUGLpPrJMQiUQRzshCqdQSGDf2PcyZtxz9R/RA2YuKIRy2YKAYNNBMs1gEgUgDFSmeJEGwKbIedZGspWDG+FkY9eokDBsyDI8/8Xhs3YgEneYYjxMtQUt5K1E5K/JGVAzjpbC+mTsHrdvdjcb3Po5RL/ZDILoPMAxEtVSYVLLoAikkAvYBEYWoWfN61G11H0b06wo4aTh4aB8uqFgHF1xUBrv3/4ay55bHokU/IBpR4U+KevNY3VSRYjjao/hPIwgiluM4Ipc8bNgw0TSFuubRUr+0qBN1WZTE4EQeLUcQ8hZBEKFRWlyJCrE2bxara9LrmbbJaIE0+jKiQBEnSQBkiorqDqg3BxUqUrqEenPQlpGRIaZDHmtjglB4CIK033IsxTwxqk1wgZ1/78CQQYPwzTdf49833oyqVaqKBlupZ5eA45pQNANKlFoaG8g8dADJpUp4xIDIAJEEqmeULW1EEwIFG37dhKo1q6DTI10w4c138NrYEbjokgq0NCQUw2ujLNxOORU+Fw/Q8aY5fr9kGTas34hOHe8WqzsWSyqC9P0HkJFmo1Pnp9Fj0COoVvt8qKoBmCkeQVCyBEERtRBHrBKVi4uJpWw0V4dq6pjy9jRMfvcDvPzSSDz66KNUp5+4fRBER4LYWto6hZsoe+U4WLzwO/y+dYtod5mVni4Wyeg9aBgqX1Mf7ZvXQ5J5UDDMLCUZtuFHlapVcMNlNaCFdsB1bdxQtyXqNL8HA7s/AgWH8Pvvm1Dvhnvw4SeTYSlpGD1qDCZNmolvF6xE9VplYRjEDIMiEsEEwXugyfujTotUXCYrzulzaqZDDZqoMdN1110njBgZh2MRBSYIeSMIsi5H9i+Q09JOtlFV7lRQ/vaS02VlWoqa6gwdOlSkFagmgeSDyAERBloEito2U7Ml2iSROF4tAhOEwkUQ4mahi7eW68B2HGzcsB5X/Je974CTqr6+P6/OzFZ26U1A2rIURTS2RI2xi4DdGHvUWKOxxIoFCyooTVBQsGtUFNHkb09ioonxFxMNFpogghSp26a99v+c+31vdlgpC2IEMuMHWWbfzLx571vOvffccwYOREmiCKn6Bikf77vPfjj3oovQsX0H7DdoT8SNmIgr+XFDeAk2vQiY6SVHIUbJZA2Wz2428hcCzJ47B9X9+mLIsUfh7TffwtgHRqJbdVfRQfDj1N6ghgCzEM0nBm4KILz+2puYPOEJ3Hr7dejVqzeCjIPkulr8/d1/4fevv4/rR16GVl2KYZnFgFsEUusNrUHxD3IAIbJ7bN680wyWZzThIDx07+OY/uRMPDDxAVxwwQU7d4khyiB4rkspazTU1KK+vg6HHHI4Djzgx/jFaafhr+/8Bf0H9Ed563ZIGjEkAhe2m8TcT2fhguvvRH1tBocMPgIPjb8LN112Eb5ZtAT/nrcQRosu6NaxDBdfeg6OGjwM++9+KJ569iER0ajPpDFxwlTUrHZw3U2/QSxuwkZMAEKBg6C6Grix0w2yZ8+eMooZyeZrIVBBj5sXTVq6du2K0tLSDY72AkDYOoCQn0GIUvWbagVs3lKz7Y8i+UzGBQLMm/8FPvro3zjnnF8im1Xa/LF4DNlMFkcPHYIhxxyDww46GB07dxJJcKVforRhBfgYqsSX85hQcveqmymAqIZ+/NHH4ZcINWVze6ciOFOGZnt7ROq3UXTdWFBVqWF5hHohERjaYrvn7eVLK5aiWkdZWdAAR3gAPpYs+Qp9evWAyTZ0jx0P7LIyAMPGPvvsj8p4ArdddyO671YFlMakv4yritJGAGoMJhTIU9DEhZJ3+ot5c9G3d1/suUc/fLVsKe4efws6VXdGnZ6CG+fYDGC6BBXNJynmZz8iXhzLAvxK69bW4I5b78GSBWvRoryF6BBkazNYtWo1LrjsEhw67CcIYml4vg4jUEJJhpaWLgrJIkg5fcv6HBn0OhkXFYlKTLxnCl54cibG3TcBF190iUyWyM9TLAVywkAbHxA7hJIixxFFMrxsBjEzgO6mkcykMW3KFEyb9jQuuuJydOzSE8cccywOPuxwPPnkNDwy5V48fP+TuOzS32Dpqq/wTQMwdsI9Ul1SUp5ZaA2f4IB9j8WPj7sUF59/KI4Yeh4CpxXWLPwH2rZvA780Ad82YNCQwwXOu/Q6nH3myYhLT26kurT+xd2WJYZIYIT1ZbK9WX/dXJr+h5r7S5YsEQtoKuRRz52ERNaZI2EVbly0/b322msls9ChQwdJH0c92BtygCwoKX6/Sor/1bFCs7msB93UkXYcPPm7p3HnyJFYvGixEIw9z0XHDu2BhIWfHnoIxo26D4mMj8A0RFHX5mIm0rsZeAkLblifNV1eI0M603zNh0n3Gx/Yrf8AfBQBhHzNeVkkpVLLLvONtiv/V69N3odFLjAbAgiERCpQUmCBToJ8QgGEBaG2xaY3N65Pa9askVIg15MfPMu0nj5+oxPxihXL8eDkyVJeotWytO8S/OnMkwciIFRdVYWbbr0Z/Qfujtbt2qAsnhBHQw4Vl8cSFogfgvIdmEeAUN0Hu/bsirV163DvxNvQuVd7pLUkHJ0WzSQFWtC2IINAMLAhnkAU7FBm+Y9vv4133/077ISFgYP2QK9eVejZswoui96GODkgCNi+6YspWg4xSaljI5HoBgaoiCSR3qibcFMepo57Ai88MRP3jx+Piy+4VL1C8HPoGyHjaCPteOH77zAAIct2Q879TIMQSlYuWYwvv1yEntUD8NjT0/HEM9Nx9nkXYNjxw1BZXoK4Voe5ny/CSy+9IWYgPzvyaNx4+21oU1kCjY5flo6aj/6APnueim77HIIJE29FTUMW++wxEGcddgAuv2csdtt3f8B1UL+mBq/9vz/hxF8cB103EdcdmJycG4hAtiVAiNjpl112GV544QUBCdvjI+q9z++njwSUmBbOF9Th8+3atRPnSBIZI8GVSMY1HwAVAMLOBRCCDGvGZJPp+OjjTzB7zhz86txzYQQaDjrgQIwdMwZrkrXoU9UbBoV4uNAzEtR0WEz/MnImk50LPhdzdiWFiupZk7PRh50DCLvho39/1DhdolBceuYpvKMyCLmofDuZWBuLFyMN/fzTNIR41XyAEOkcsB79/PPPC1Dgc9Fc3U4ugYCBSIsjUuHkuUUBU75sN3+mFwzLVLQSj34XrUn8m0OGt3/e/LnoXVUFI6ajY5f2uHvcCLTZpQKuloJPHQS5ABSVU5um6C2E4yYaPrkMTwhswuRHtPdGqtAyrtiiSUwrJXE5D6IJTeylaQnN35Of5Ti0jc43EAwTRaIkHdlrhc/lJa6bYKvQaJDOkgaclItHJj2JFx6bibvuvAu/veK3aqyHX8QHnSfZvL9h08FoLOwwAIHmXprnwKCAEVsKDB3LlnyNnx50CKziFpj58iui6e65NMZwEYvRMYu+2RbeevNvOO74UzF2yngccsC+6NqlNXw/ifuvuhg3j3kWtXoFuvbpg3defxJtShpw6pDj8fsP5sGlW5iXkrSVY1fh2JMOwdNPjIPvpRE3mLz6dopyWwKEaEJ369ZNUvjb20TmIGI5IWKlM1sQPSJmOic4j2FGIbo2nLS33367COHkq6wVSgxbV2LYXhb2TZ5HuJpFip0kIK5dsw6nn3oqPvnXx/jg7++je3U1kBVVMsDQEMR8ZNkHz5gncEXPRKJ+cs58HZobKvmZQMoQvVPEWINlBmFAHkDIC8pUOrvR1XV7u3YbI63nA4To56ic0twMAss73GQpPsX1hC3IvB9N16zt5ZqQj8J1g5lGrhnsZuEjKl9Gaw//prvoDTfcsJ73R347LV//2Wez0X9AtWSPqvr3wu2jb0JZm2LAJEkRwn2gDsKmpPSbXpuN+TrxukYCX5FcOc/fyWTlu0SqtPkS9t+67lI/c/LG66bvDE2mAteAqZnQAgvPPfEiHpnwBK675jqMGD7iWwCB70aNiA0FujseQKAPtmhq+fDdLJYvX4F//vOfSKUdzF+4CIsXfwVb91G3bg08T8OStSl079MZyPqIoRzX3Xwr2rYrEsJKJrMOy5d/hWGD9sNaFOPkq4ajbtE8QM/ANDx8+O7fsN/gU3D9Vb/G6vn/wkUXX42uPz0Vw2+4EO1KiqSVRniSG3hsK4CQrz5Gm+UnnnhC0vX5Snbbw0TmeXKh4eCPuAfMdjA64SOapNFk7t+/v9i9cjLzdflyrfnRAl9byCDsRBkESub6aWihjonne5Iir2uoRdyKoW7dOlSWVkI3TInrhW/NDHptA/SkA8/QYJQkkC22pTZrw4TmGBKZeaxdhwDBCjkIAhA++qgxZx1Nlu2Zw7eJcxPD2UYKQliTV080FyBEm+sHH3yA3/3udzlwEBGLt4f1RCJ3+uOEJl+zZs0Czzd6Pr8kybWwV69e4l1CW3pymyKlzkbDMTWW+J6zZ89Bdd++ojbYp39vjLh7OMrblJDdCN3SwDFJ/kPuQm/mggjMDLkvTQ/VmTl1aEQVypqz09K0YFBXJzS+Y8mEvBwR9/MjGf/8d2LGLSIp5ucwwg/Oy1fIdwx0mEFCyByBZ+CV6X/A5Hun4sJfXYSxo8euBxCYRVOlqp0AIPByUNHQpFc4dbnZP51ReuCabjPbCM2nZKWDv739Ko474Szc8eDjGHLSYJRaVEnUkc4C8TjfKA1fczBu7L0oXleLR156CydccTOuOvN4eCIlW4/HJ4/E9D/8E2ecczWuvuQSrFhbi8dmvoTDD9gDcaaHNB0xlsO+R4DAt47Y6fnuaT94zXAD35nnxwfRPjW/abrDzAAnecRIpzUwuQm0Eh40aJCAg3y3v2gBKJQYvn+zph9mI2DXkWpNFuDoKZfArOvAMC1kfAe2bsuiyryuSclYPYvVf3wfX770Z1lEe+4xAMV79gF27awWcSMG37KRDWciO9vM8P37D9gNH38clhg2FpZvz2ChyU3aFgAhykjmb7KRwdr2xm3iua5evVoswmkvHpUMoqDjqKOOAgMnynWz24XZhih4igS2+B42vR7EywGYP28+eldVI15so3PXzrhj1K1o2b4SvuEiEB0EH4FGcbzmiQ9sCiCIIm/ohMmxms1kJPNh6aaUzsh3MExyYDRldicRZ5MBKacRlgWEj0CUGNU9QifL6JjIxtm34XsBDN/CW6/9CWPvmohzzjgbk8Y/0GREqczcTgMQeLMdR/mTq7CAVrKK+UoSi6n70PwU3n/9ZRx/yq9wy0NP4/iThlJ4Cwlu/JYG33XEh2HJ0iUYeddIjL37Rhzy02E4/vK7cdFJR4DtqJ5fg4/+/hROPO63WJ1phd57/AT3jLoNvbvaCJwArdp0FNJU0fcMECLDo3xWev4k+WEW+Q1/asSVoNEOfd//8pe/rCeLyxIJe/NZJ4zIiBH4yQcGhRLDTlxiYGo4DIi0iIjFjgZLh0dNfk2XcgIFZli4Nck5yCzFf+6dAv31j1G3dCW0hI017Yuxxxknov3A3eBXVsBoXQnPjCHQTNDnz9R1tGrdGqXl5XjyqSfD2m9jZV91Q4TjWP6hwY5ZsCxbAo8oelRRLDcNtWxL7flbgKLpE/QQCGkWloVYLJ6zruZrVYkw9BmI3o+7rdP+AAAgAElEQVTrfd7pKFMiXWm8GAbisZgi5ZlMp6j3j2TN99l7H3llhw7t8frrr4VR9qZJilGwEelNRPNve1pPJCB0HCE033///Tm76ajEyhLJoYceirvvvjvXOh0FKJEHhNLcYJDlwmDZSQPmzZ0vGYRe1b3QkGrANTdehVYdWsFj94BtwKejpEUvEhJbuBfTzE8x/w3NUNfdZoZL2ZEL2U+i0/DqSb1BDRjX9WFZCpzwZ3pN8DzS6aw6nwBwso6Qdnm/+VbKx5KZgIj4wLnA82rsOJCzEYdHdW7q45TzpYzRcKCaWgx/evMdjL/7AQw5Zgieeep3IW+O56pIigog7AQkRflKobmHIF2ZhcprPuuRpRpmFlJr8e4bL+OU0y7BrdOewAknnSAmTDGk2bcAixPPd7Dym9VYuXotqrtp+MlBx2HYpWPxm1MPgeO5MG0DU0bfgDtHTIBXsStOu/Q6XHvVqXjwjsuA8p646OJLUULd7yjL8y2kvz76XLZsmXAj+Bg6dChmzJghmYEoE7C9IfctXSj4XSJb15///Oci0PPll1+KyA11EfgcVQKvv/56EbiJxHE29DkFgLDzAgTOCpelOarlshXNYVuDD8RZJlD+ODJz+D+Pirok/nyFBWMmo/bxN9ApVoKs52JZwkddqYXizh1R2b8/2uy9B0qregAVrQC7DMWJYgwcNBDv//P/oFuGrBse31ByvY3ggGuyIpxpKCpJoKg0ATfjg33kinim3F4CKquFqULpMefaI9lgtYjnliNZ80OAACBRlEBpWalwJqJxzQ2G5xLwQpCVH3VuRos7QYnn5yJLgpbSshLZEOy4Dd9Van8MkiR7GgCtW7aWFDsBONcSj9EjORw7+IP3jcJIr7zySs4tkl1Qv/rVr2R9IX+JDqPRtd1YZpVZK27k/P1nn32KAbsNRHlFKRpSSbRq0xrx4hg8zQv5Ah7ipq06YUTaP0SHuuoMsAxT7qsmoCCAZdHSWkNZaQIdO3ZGZWUlDIMg0EdZWbny+vE9ZLNuaGznIZN1sHT516irrZfMwdq1ddLdw/cU34kwUSDYQ2O/naIIJOIKbLqeK22f4l8irZ+Kaqu2+0CyIXwYmoWFXyzGskXLcN45v8KEcfdLSU+N2ggwq0B7U48dgqQYrRucslRRdJ0sdFNp/DuMQlyiRQ+GlsXf334Vp/78fNwy+WEce/zxIHPaCFbjyKOOwy033oaB/fugQ8cucLM+THM+Dtj3KBz/6wm45NSf4usli7Hb7gdgQM/+eOqhSTh42BH44ptV6NGvE37cuz2sAYNx85WXoX0SAMsVG7i224qDsCPNb94HKtyRE0L+AeV+qZ8/ffp0aWmMXNyilseNfbcCQNiZAQI3ah8mSXGuBr8hxbphuPlysQtTp1whSSrwHMBfA+21t7By+qtYOm8e6pL1KOrUGo6kY02YiRKsBnDYlZcDPbtD79IDibJSdOuxK+YuWqBIjVzsieYj1rkJlJTFUVZahjZtW8PxHIkyuWFHGwJrxbt23xW77LKLPMfxTU4N09hMCzMKd3nuoVkcRcKitDb9SL7+eimSaxz1uVyLuU5IuhNIlNto2bJCshPpdAb19Q3Isp1TuhE6onevHqirr8OXC7/ENyvWwKO3VZTC4AfSid4FrOIAqbUeLM3Egw88gDPOOCPsSNi0nPmOsK5EpZBXX31VwA8BEcXWnn32Wey+++6SXeBzUaC1qSBLSlg08nMcLF68CFV9+uDgQw7CrM8+wdq1teraxijtHIjSIBympHXQrln4AXEbXiYrP+umqYjvugmPpTBWuQwTpq6AGbOj+Q/VNaBAo4BJQ0e8qAjpJMWQQnRJfyF619gxZDJp6VqIwKcRU+UIggLN57tpCHR28qgxJYmGSFo6BBKBqTIQRkJDeWkJ4Om46PxLcNONt8jrG3NezSPq7jAAIZ3JIh6zkU7Vy0SdOnUaXnv9dbzw4kxBWroYMHlI6Co4adDjgNEKBnW2zVWIJUpRuy6Fc8/4BSZPmcruRdj+Z/jRPofj5Ksno3u5j7N/cSJ69uiH99/7P+h6gLlL5uC8K6/C3/7yKmI1Ps4d+xCuuuCXaJMG7GKOjm9Pt/81gJDPj6AHw7vvvourrrpKeAaPP/44WrVqldPcpy7Cph4FgLDzAgQVdhMUOFj+9jv4+/SX8c2iRdCSDSi2zJzPiuHpMJlB8Hxk3XqUOi7aWQlofhqJojjWpGolgkLGR8yLoYH7bqsKBF06Y+8rr0LrH+2FH+23N975xz9w+bWXYMiwY+AYlMdTOQFGW6ZGTxbqMWQRaBT6Ui2PuqEJB4JkNUbv8XhCRJxUPVmRKjU9gOcyglP1YOqhiIeQTiM4HWaYtXCyTG0z4qORlmprY7q5tKwM5MERsXCDc9ysgBfTtEORJ0a7RsjYZ5TKbAG7gFJwXQ+2TW+YImnxHjNyLP751/9g2sPTcNppp4XkviizsQMRLDawKBCUkbNEBUCWLQkM2JrJNYKZA4mSw0h/UwAhk83I9aPA3sKFX2DQnoPw6qu/hxkjl4wlLmDpiqVYsHCBXHfLL0XCKMGCBQtAbRd+Htc1PqhHs2jRIqRohMa2RJYZaMXIsRA+OAZIPmQgG6X+1/t6QqLNyzLnMU9jxcUChKgqSrDhell07NRKMq98nuWTiNfAv2X8OI78EdDqOUhl69CyVQVq1tVh8VdLMHf2PEyb8hiOP/bEJgAhSqdtWixshwAI0uzBPkffhUUEhQDramrRkEyiti4Jx/VlMlJ/ShPIrSNrFsHxie582HoDHBqFeiYqSkvQuVMnmdSGtwgH/uQIDBx2OV577nmcfdxPcfLJQ9C1cy/WJbAqlcTitfXw62oxbK9B6HX0L/Dk01PRliUCOoMw1dTk8b8GEBQ3RLkJ8kFi0b///W+JvtifzMEeRQSRut/G0oEFgLATAwRa6mVWi0vfa8NvQ92s2Yi5AWLpJOBQpEZNJN3XYFLfgFFQSZGQXbOpWthmgLLSYtTU1aAoZqNYs2EmSSpOYLXnYXV5Kb7qW41rH56CAw85CK/++c+44sbLcdxJQ5H00iryDrUUxMuFIIOpY0qnRxEeuyHCscwUfjZLfT7qBPDkGITQdpjZSlWEYBZABYLkDFAyxVNLAucEdVssS8AF358ZB8Nkf78pKWeRPJL6hCo3mIYln0MyG4/hhiY1cZutiK64yGq6gVSqAQQfZeXleHbai5h090MYP26cbKQk6SkaBcHKjgsQojZGSm+zHZPfixkD6qdws4y6HKJ1JOI1bSj4EIdG3gvTwLx5c9Cnui8OPHA/LPxqsYriDYoqOXAYMfLaZQgCTTiZjIwFgx1a9fXy1rzbfJ4Rv/QAkJzNrpyQu0KyLcGl+DdHiYDcfWBAyboWS1R5HQssFTELzhI682K2nSNvM5kWSxBwqJKB5qlSgnz/UJ1J1laxx1bcFo5Jaau0fKQaHLRt11qUFI85amguf6BGxk4GENKOB5siE5Q0JCqn3jIxA4uXnFDMUMpAUPVDj1eXoigeHRk1pNgColuiesXsJaMJ21kFx4yhxioHEwKmQ+Z0RuXwjAwcLYYMrZ18oDQbwLH5vgHiGtu1uOJ8m+DxvwYQIgMemUC8UCGy56QV1q5l5YiJ+dmGDU3mAkDYeQGCtFW5DdBSacy87hak/zMbRUEAq74Blsw3X8i/GnUOSGb0NTQQ+BezFdZDKUGE4yDBDZxyslkHMTMO3zeQjNlYXlqE1L4H4Ff3jsLRxx6J6b9/FRdcdT6OHnYE7PIYGpx6ifiZ9GONmWRIN1CKilL7DVTtPtpYlXy1Jz34/JmZBG7cEdmQ45cRHDMJ0XN8D0ahDFYofhPNBb4+EsVR7qd22Kao9P9z/hSaLhmMqP2Xc0gJ/ahj+ChKFEnKme/z5ovv4P7bpmDkHSOlzU+x+Lc/+egNzfXNPRcFFflrAn+O1hi+nt83KjNslIMQ0gi4Mf9n1n8waM+B2GefvfC39/8PVf26w4onFOnQVIS/8ooSicSZ6SkpLkEqlZT7kQtyggBt27aV4Efq/7qOVFaBCTGl0zUZm/wd7x/VKmtqa5BsSMLJZqU0sWLFN/DSoWiYp4SqBGgaGkpaFAsoZLmBoCVTR10fbnE6uvToKAq0zGTMnjUf2QwBbN4jPM5zVBli4ZcLUFtbj1defgVHHHak8GHkc3ZGgOCGKmrMCMgOH8pnkr1McwtBdDyGiw7Zwsz8aEnRNfDcOHzTgstUEEmNNPjwAtjZJBxTR4MRQ6mwQw2xxDSQBbR1ypNbK0eW/GimAck0JYnITpP7XAAI4TXPFySRKJBkmnBxyxd32hwxswAQdl6AIAWGwEeRB9Qv/BprZs+Dl3VgMUrTCQ48EralriqV0tBkx8smYblZrBw3EUZtLSoDHWk3C68ojnpNxzoS8zq0QreTj0OXQ4agza49MPiEwfjdyy/h19ddimEnDUFNtob1xLAfnounWicYW1AcR4BBpNkhaWu1aDMyk24b+ZkZB5U5kOAtvx2Ca4JBtjlzmKrW7LlZUdBjRBl1JXBjZ5kiCiKUJoSK/KQ+LDwIpeqkIkFmBNR5Rw6Y/LdS33Pwzsz3MXb4g/jt1VfjjjvuCMGN6oDYkR8bAgdNtRoiXtNms5IC5FgKotTyPPTrV43BQ4/Eyy//AeMfuBd9d+8r2eD6VD0s24RGkp9OgT0dzD5E5JXIAE3ZkYc8D5YSCPDCi50Ts5LEEAGnuhfqfVRrI3sgCBKonEiPEVWaUn9UZ1co/sXOO8OCy81eY1ZDaUMIF0K6YUKSYp46IkG17tkoiiXQUJfG3XeOwpuvv42nn3gKJ554cggO8pgIjXSHjQ6XHaLEECVE1mdgRt8pvKDhP3NTQ758JDJB+8z1J438S9KMFFph3NJYGtKEMKVIKMwSUJ5Jkoy5fqRIMb1QYtiWC1EBIOy8ACFsThCgLSQrScNGPX7hk7kpGlK5OT/XrMSfrrgU1uf/QQvTgOG7cF0LnlaK4pbdsLy8BB2OOxS7nnYMNCQkFf2rS87HpGlTcNEVF2Dw8UcisDx40jrR2O6oNnn2vasRHHaMhQBlA88FQMp30aK8El4NeQlAymlA3Lagp7nx21iz2odW1gKe7SNmONADF5S05XsLnyxsaY8+S7iHeZ+/sbmkMhO6bCAEB5JSRoA3pv8Zk0c+hmOHHSt8n3x58205L3fk9xJwICRCXxxnq6urcOa5p+ORRx7D+IfvRd89esLVstLJwBu1xdhKWiE1eDrHkhpfYtbk+TDpieB60A0b6VD3w007KC6iB01WCI8lUkajJ0Y+oY2lCAVGt/Rhahbo/5DQE5gy9lH87rEXMPWhh8UUjd0cucoHM007E0DY0gv1Qx3/v1Zi2JbXuQAQdl6AsMXjhOVDx8HXb7yFT0bdhXZ1q8SkrcH0kIyXo96uRL8fH42up50Os3MFMkWArdkSmZ17wTl46JGpuOS3F2Lw8UcBliviaDRzyoUV63cjb/b0GGB4EsmRBZ1C3NDFMGjRwkV45cU3sXL5Gnw0ay5ad+iA/X52AE7+BUlhKRgsiX7Hx0YBwgt/xvhbHsTee+2Nv/3tb/IpuezEFu903/Ekt9OXCwYNOwPm04uhT2/8+spLMX7cBIx7eDT67NEdnp6Bz/skAI4bZ/PLNEorQQEE/lGBZADD02AxqW9YqE+mYRWxVBWGqSGpUdOZJWIzj5JfzgEC+fzo31vm5iin75BCl8Dkex7B9CdfwoSxE3DxJZfs3HbP2+n4+9ZpFQDC1t+pAkAoAITc6BHhhADJ9/+JD0fchpZ1a1CzbhW8zpXocd7ZmLtiLfYa9gskKtvA1z1krQBxIyFR9Nnnn4lpjz6KS6+7CMeccDR8Q20A3wUgyNahlSAbZBHYdbAyWdR9vRZjRj2MeUtWoE/fvhh27NFYOH8ennlsBi4ZcT32HFQNM2BP9Hd7bAwgvD3zLxg7fBI6d9xFWPcq/W388A6N3+3rbvNXM3vAdD8VGauqe2P4iOEYcett2xwg5GcQDJawdZYIfMQSxaitr4edKJLuBhK32d6aySZhmiQhRu6K4Vf/DgCBrBrDNxAL4ph091S89LuXcevw23DDjTcWAMI2H1lb8YYFgLAVFy2aF6HPffQOBS+GncmLYcvHhZ91oc9fhD/echvSXy6AXRTDjy88A/HBhyJj2AisYljMGkjnGDsDLFGmO/u8MzHt8Ufx62svFoDgaCn2TX5ngOC5JgLWgmMp2E49vpm/Etf+Zgx+deW56FVVhZYt22L1yuW47jc34YATj8bxxx8Fm9K93/GxMYDw3msfYOxNk9CqsnWuFW9H5x98x0u1wZeLkqGpAEKf6irccuctuGn4zd8bQKAYGPlqzCKsW70Oz01/Ge/+/R+wrBiqqvthz332xL777gOd8s5w5dxYbmiUUm5+BqPpF6YaoxGYsHwbD46aiheeeAUXnn8hJk6chIBlkEiSWdTJovrWxq/6DsNB+D4GzvfxngWAsPVXtZBBKGQQ8kcPJdT1hiTqP/4ENSuXA0VxdOzbA0GHDkgatGsyYTmqxuwHjtR6qWl/xi9Px2NPPo5fX38xhpwwGFlG8SRBfocSA89Ls2PCcNcZqbsB6mtr8Zc//xWDDx0mXKVYcQlmvvYGJj04BTePvB67DejNOsnWT4g84LwhDsL7b/4TY4ZPQsf2nUBTI9XmqNowC0Ch8bKrThMN8+bNRVWf3rj+lutxx+13blOAwLHlhyUGAoSEZmHFV8tw76gJqKmtxaGHH42s4+Ptd97Bmro1GHHbCPTo0RVZJwU7Rv5BI9Vxa7gH0bel/LLm6bD8GB4Z/ziemfYijhtyPJ6f/rzq6isAhO88H7/TGxQAwtZfvgJAKACE3EInRrc0nXFhZDLKAho+MlQ+jhUJbVhLAsLtcjwERapFkgDh1DN/jqeeeRqX3XAJhpw4GJmg4TtnELjwepaGbEMKrcwW8AILGa8GppFFmV+BdNLFPz78DCPHjMVhJw7FGacNpRrLd1nrcxNpYxkEAoQJt07BAT8+UBRMedz25va69avBtnul4iGwi0GVGK667kqMHn0vxj207TgIBAgsMYiWgc+mGQMfvPsBbh0+AWPG3YL+AwdidV09/vnRf3D39ffgkuEX46CDDoRhUklRtcHmk2i39tszg+BnAyS0Ivxu6nQ8MvEZDD5ysJjo8fwKAGFrr+w2el0BIGz9hSwAhAJAiEYPq7IZCp+x5TBP4oXPsGVdJOcj/p8F+KZij5MNfuqZpwhAuPgadjEcBc1m9uA7khS1AK5OMykb8YyNjFOPWNymyg6+mPUfzPrPPDzx1Ks44rhhGHraEBTH2aYWGvrkWRhHbXlbMks2DhA+xJjhE3HGaWdi3Lhx62UOChmE9TMIzCIsWEA3x9647qZrMfKuuzDuoVGoEpJiFpoRSMuiZIrY/9rMR9RnIKaBOYCgwfYMzPtsLt547W2cdfY5KKuoxCdz5mHa449j9qdzcMudN6NPdW+YJj+XWaYmPIRmfn7Tw0hfyDZkUWaXY8YTr2DymEcxdPAwPPc8MwgFgLCVl3XbvawAELb+WhYAQgEg5AOErFIVAIWY2R6Z81PIN16ikB2Z4JTUD3vNT/j5cXh+xgu44MrzcOTQwxEvo5Ba9ruXGDS2PFNCNwPT1RAPTLz2+7cxfuxTKCkvxWlnnYSjhxwtyWIvriOdroFN8ae8joJ8YbHmzpSNAYQ///49ISlectGlGDVqVM45Uja5QhdD7vISHOQDhCuuvQJjxt2H8VPuRe+Bu8KlmZ9Ofe9QI8BvPgeAoJSlfI5Ulhh0KoD6GoqNGLINGZSVVKCuPonFS1fgmuE3YvmqVTjxpBNwzi/PhuulYdkUy3JFhntbcBDEfZJdDEEc/++5NzBx1MO44LwLMG78+EIGobkT7vs8rgAQtv7qFgBCASDkAwQn9E6wuAJHkiay+4WCgXw6/BWftiWDoOOQIw/G2+/+Eb++7kIcduTh0ONMvH63DAI/NKYXY23DahS11KDVOlg+ZylG3DQO5e26YtCP9sIJJx8GuGnYVglqdB8lpTHATUp3Qb7iX9M1YnMzZmMA4c0X/ywkxWt/ex1uv/32AkDYyIUUnyw/wBdfzJMMwiVXXIxJD07EhIfGomrgrsJRcYOstLCK9XIz2xylEbEJQBCJ8ECDHZgIMj48x0dNTRI33347li5fhbPOOxP77r8PyspK4fmUbSaHhiWQMIMgb9h8gPKtr0wBYd+AnjUUQBg9FTfdcBNuLHQxbG6a/Xd+XwAIW3+dCwChABCi0SNdjiFAYES2HkAwxHBPwAGTpgovMHJT8rt77TcI//r0X/jtrVfg4EMPRsZv2AYkRQ26byFgvdhOQk+m8d4f/o7HHpqBsy66FO07d0BV313hZ5Oy2K/xA8SLTNiaIinmOw9uK4DwxgsKIAy/YThuvfXWnEdBIYPw7TWIwoPSxdC3Ny6+/GJMmjQR4x++D9WDusNBWgACVZK2BiDI/RUTSF95iBDQZgMUWQmkkxlMf+EVPPPMizjpjJPxk4N+jDZtW8J1s0gU0WcjJYJdyu8jFOfItTnynbdMsIMZBBMWghTwyjOvYvLYx3DX7SNx5VVXFTIIW781bbtXFgDC1l/LAkAoAITG0dPIuBYJwkgvJpQ0dTQm+5VEMR0IDNFN1mDFLHTatSO+WfsNbh59A/Y/YH+sS66Czlrvd+xiYD+9Zdvw/QyQSeHDv/4b99w+BQ11oeoqNwfLhNkiQOeqrhh27DHY50cDxc+BD2Y3KJG8Md+Ajc2cTSkpjrv5AQy/UQEE2U6atApv/WzcOV6Zb8Q1Z85cVPfrg7PPPwvTpj2Cex+8C9WDegCmKyUGGXEBjcKaF8FHGQT+HQEEjkgC2oSRwJqVa/DqK2/g+Wd+j3MvPxeHHnEofOposCVXp3GXhmw2KT4L6z2+iw5CQAtwWwDC01Oew1MPTcf4MRNw0cUXFboYtoch/b8GEFQ5WKHcfGHQnFQ9222VCn5OGywHisPfRfeN2bX8x+w5s9GnTx956swzz8Sjjz4q0Vl+fbWphPbmxkBzxUu3DLdv7lPX//2GzmH58uVo374AEPIBQqQFq6iK6qHiLLITldESte1lQafTE8WMLAOt21eiPtuAG+++Bnvvt7ekkCmmJEI24SATbZr13lc55eU/lF2vbLvqg0lky7oo8mPQNBMNqXr83/vvY+2ydRBjB70IscoKZJCGk16DPn17omfPXuL+57o087GETr+xDAIDz2ie5J8Hx3xjm6O1ntTy2Jsm4prfXoORI0fm9PwjG+QtG5U779H03aGV99x581BVVYUjhhyG997/K0bffxd26d1BAIJmqywPZaxFTbEZDw4lkVVmtktkBULPhUCH5mp45cVX8PQTL+DCSy/EfgccqISOSXSNKel+z+eYoBmXAieNwy+qoYVjrxnnog4JxOWR7b9axsTDYx7H84/PwORJU3DeeefJ+VFuWTEtQh2EzSyIBR2EZl/85h24UwOEJrsmB5ybU/hWy200tA2xNWXOV4dDmdrQS8wkQqcMP41JYiYyJOfQLjfQpD1I+V0I5QezP/scuw3aU3TUf3Ha6Xjk0YegywGqZ9gHjbq+PcIbAcu3fxcl8iIh0/U3nkZ58vWBT3NhxYbHiBeEhj1552pAh5tVYIc2wAQInTvvIuY+Q4cOwYwZM3ImPnkC6s0bhDvZUd8Ga43ys7k7ExLLaOurxTWUVpThzvtvQY9e3UUoyTe5PDcSGcSJT7NB1VvO2dB1WZkhSs3ahy7SygoAs5Yc0wFbN6B7Ohw/gEuwyi4L1puJPXQTph2D42UROGkEmgfdNHObu3glBLT2VbtKZOIkSzttiWkZTbAT1qPJM+Tn81zpiuq7LjhdlFGRiden/xHjbr4fF190sXQx8D3yHSl3smGwVV+H10ssB8SsiRmEvug/qB+WLF2Me+6/Ax27t4Fm+0i59XKMqRsRhmzW53HdUqGPegho8DX4ToAnHn0Sv3v0DcQT8fVEibRKHT169sDpp5+Gnj2704y4sYtBslx5jNxmghUZQ3wtS2CuC92xMW3cM5j++AxMmfwwzj3nl+p75bJoedLOm/imBYDQrGHQ/IN2VoCgtmwJotRAk8HGtG04nCMjmnCS0E5bDMeEYa7BDQe65biwlPUmfN+BR+Ru6PB1G4avg8BClw01wOezPsNug/aSRfPMs87E1KmT4Xs0ylEuasTKbIJrhN5qourURufvJd2q9NXFkjd3bKNlyfqvzX2xMJrUw7/V8XRf4+LNSFDJu0eZEwU7mJ7MrS7RR/B5cXZVF0i50oWmvKLJrhz8VqxYgS7dusrGNGTIMQWA0PwpFwVPcDMuiksScAIXlR1a4NbRN6Jnn17QYh6yQUYAgkTjspJzTOgqqgrvBzX1c2u9jHO2oCmLG9pDC+Dlv/g63nE+R4BnmApk8Pd02+Mf7uwUptGVRXG0eUcuhBEoyLcv1jQL0Eyik0bjIPaue7Sxp/FP1IZHMp2B917/ABNun4yDD/wZnnvuuZxZ05aWMLb0Uu9Ixwceb6RyQpwvJMUqdOzWQUDcXeNHoH231kDcQ9alYZK6rlGbY0RAlO8b0QPyp7j83JhnirIJzE4ZmokVX3+DN197Gyu+Xo0g0NG2cwdoiRhW162D62RxyKE/Q++qXmplZSeDcjHLAQQRPQo4Rln2CId53ufnQEnu9AhlHRk+BhKYNu5JTH90BsaOuR+/vvAiBWQKAOGHHb47K0BQSV3qxQnfq7FtNwKi+UE2IzACA00xy/mQ6Chkmhtra+EtWwmnoRbx6m7wbSBg5AUbge/CkuhNw7w5C9C330AERgynn3Eqpj38oKTjTF1HXX0NSopb5OZu9PECCqRdKa/mkR+C5jbuCOSE42Ujz0u+gsAgTMtxCoqNa1P6UN5nNH2rKDyV/Yf/C7OJMlYkkmYDpR4AACAASURBVFQZBHq9c5E65pgCQNjiWRxiO8tSrYgtd6nA7aNvRc+qXsj6LDGEI1jTYIrSoA4vCE16xGo5Apoh6NN0Zc3MDJnvyaJLi3kG+BLjhcCYyWHXUTVlSzMEDNBuXt3jAJrBFHIIQsLMtbyXAMooclRRqCW28ibTa2FZg2AmOh8NnuvD0Gk1rN7/3Tc+xH03P4ifHnCwAMp8FcUCSAg3VJ8WysR27GL4QgCCWWSgwy7tcNfYEWjVsQKemRUiq66b0LWEEtXIlbM2NRKjexNltAgOwzKYG8DQLQSuBlOPyf1NuRlZEF24iMXYlBsgnUkiHrdFalllPpu26zR/JnBNskL/B7gWpox/HC899jLuvPMeXHfV1WFQl0/m2XxmtJBBaP71b9aROytA4PDlYmhxnWTaQIpu4SWJdEXyxpuUhQkoIg0QBmAUs3FdpD/4CJ889QJWzJ2DfoP6o6KqC0oPPRB6ZUspScA2RUVv7pyF6N9vEALXwNlnnomHH3pAlPOYPcgtgNFuHCHssIrLf/qOD81kVJB365oc/62bmleDYPTBBT7n8x56y5NclHt8Cyk0WVnIr3OZePCh0QEw3IfcwFXpGC4TfoCVK1eiS+cuUk4ZOnQoZrw4Q8m/hYCikcDRrGH4v3kQS1SmidKKIpi2iVEP3CXKeSk3Cc1kRsuFL1G+KodJuUos4XmZ1Y1R8gG0B/bgyMYPSe8zssz4LjJh+l83yTlgpsqDSZVHjVGbru5zrmzhS+scgQZBgue7MA0TtCCWcpyuMltcM6ROzv9YKmHWQD6HmgvcaAw5znVo92wJfmBEOusfczBh5EPo2b0X3njjDWQyGbG7LmggRMNfiRARgIuS4vz5qOpTLeCuR9+uuPPeW1DRrlwBBC8VtjkmtqjNUPFaGgFCFOlbhiH3iPcqk86gJFEKKnyxrbG2YZ2691xLDd7vJm2O3wp7mj+dNZcZKAMJqxzPPvYipo55BFdfeS3uuO02yYipc1VR3Yb4Lk0/qQAQmn/tm3XkzgoQCA7YTa5IYTnmoYw14gU+omhnPbKNE4Z2RgDXcGA4Wax9/c94b/QktKhtgOZl4Sd0lFb3RMeDfoqyqu6wq7sjiNv4ZM5C7DFwX1h+HLv1G4CDfvoT6LaOtJMS4lcQ1Tfy7gwnXHl5GYqLi8NMgiZ1fUZ5tmU36x5GB/H7CpnIC1BRWYFWLStlgRaPd2YpwtQl09DcGDbekqTBtEyUlpSgpLQU8XgczCYns3XwggAliRKsWLoChxx8uICFYUOHhQBBzWXBNJsH+1v03XbKgz3AisXQpmMrrKtdh1PPPQWdu3SWGrOQwywLcTuOolhCxgIXb5YPaBFtmTbsmA3LJmfAkN9zCRfpWmal2KFAr4OA/1Zgj3fG81yYliGAghE8wUImlZFuBcuwQw0EppAZxbohEMlDlRw7kdIiy1hSGuMfkVsK55XiK3g+XQltBRR0Cx99MAuTxzyEDu07YM6cOQpoyDHNVwLcKcdB7kupiDwi5pGk2Ke6r/BOelZ3x2333oTKdhUILAeOaBKoTXt9smBj2VG9bWN+ULoeWKIKya+qJKHSgwLwNI4rElOVDoPvsFRkwfU4DjQJcvg3CawaQaC8f7SBr3cizbxNLEWYwm0yUYSZz/4/PDxmGi684BKMvfc+aAIO+IdjV63Wm1tWCgChmZe+uYftrABhvTkXbloRQVEX4OBDkxo9V0LOECm8S01WQWVOGAdwHKQ++BivXTEc3XwdFvvG+X7FcawMbHTafxBWtohhj6HHYLEZx57991HcB8Tg6QGSbBPi+scsYCS12+TmaCYJaJrK1MpnN8ncNfdm5uoWnOuaZBM0ASVR6qRxoc+vYnzr7cNaJeelvA+/sOixMIpUdUwCAyeZlVT2sCEFgNDcW7TecS6g2xZ0m5G9A4OsQrNRSUndzqieq+5BlNFV9dlw7RQuV3jzDaBl29bo268funbsDItERNNAUWkCsZgtXIG1a1bniSEZWPjFQiz6ajGcjIM1q9egvjYdkg0BSu4zCyb+AOFeQDW9eDwG2BZcksxyIIExnopODYPdC9R5sOBlPdh2DMmaJHTHx88O/pmUGCK7Z/mWBUQZbuYKuLF8MGcOAUKVbIxV/XvjttEjUNm+AoHuIO0y6NBg6C40Zvea+YhUFBuzCGpjl3Ah8CQ4EVDgujB1G35WRyJWlANz0pXFtGI03nKfG64tTVu7NnNefC8368I2yvD6zLdw/+hJOPv0X+L+cePC68EzUyWUAkBo5k3elofttAAhr3QlFQZZW5kCdWD7Gfg1tVj66Wy4DUlo9SnongtPmOOKEEabXNHKzzoIvvwKyb+8h+Sir5BgipZzwfeR1WJImiZqEzY67LcfGtp1wuW3jMDCZD2SuoZ+++2J4tZlZAAJGhbilwVhCbPXnHU9krmy2WxOlz6dSaNlZUup7zP9yugqk80ik07LvymsU9/QkCORuY6DtWvXSrqWERsfi7/4OmxVcyV1LZwiRgTwUd6yBLZlIZVOq3Ynx0cm5UC3NHTo2A6tW7VCQ0MDFi9ejGSNOi8pWdA2mG0bJDlldfiegz+++hfp9TjmKMVBiGZwIYPQzBnKzde0cMrpJ8EzPKyrWSP3iHcq46aRSqbk3nEM1Nc2IJPMSHYgnUrLH8d3kM1kJd3PBX09efwokMzHhtFpGUJPgMdJQW5iWFaKiCpSRuDnWhoSRXEBGOqhy/hjRqmoiFklM3TgjWrbahXnOM94GemkcNKuZEJiVkw4k8nVdTj//PNzQknMZBQMmxrHCzdglu0Yrc+b9wX6DxiALrt2Q11yHSi5XFJZBNge7BgJzx4StglTVyRTiW9IOOXNDSCAkMBMyIxSt2RXikrvcV5z3CjytLp/tB4nQNCktUGHTw6Jb8vfnsvn1Thg2UuRnkNQGt5zyVTlEaHlM+T7NLZmMBBSm32o82Go7EQ2FeC9t/+BhydMw/FDj8fTTz2ZR1IsAIRmrijb/rCdFiDkZdoa5W09mMhAz6Tx8UsvY85zM6CnsyhdUwenbh3MEkvqXFJdDQxYno44N8hMEl6mARWlcaU8x5XVD2BacTj1DhJF5aiHjaW6ic80YPIn/8ByzcfopyagU3VHFJXEULtuLUpiRTkyWK6/nCQ0wxBmOScnU/9y6mHqVX4OxWSkLBBObk46aTk0VKqPxzFNzPfiIpFIxOXfkWiNsNul3Uyll1l24AtjYQ2YG0xUehAgE7a7SfUv/Mx0Mi2kM1uLIbU2jaGHn4CYGcPhhxxZAAhbMTWDbAArEUO3nl0QL43juFOHYZ/990G8xETGSyPZUC+s8CI7jnU1NXAzWRiWITViJ+vI5s57zIiTi70AQSETstSkIzC5gctPuVZcKbF5rnAUGKU6ngfP1aAbJkxyVQJHNiiODwKEIgLZeELek8/zE7jhJ+JF0vVAO+lG1Qe10ZiagdraejnGslhiAJL1SVx16bVIr83iR3v9CH/84x9lLPL8+XehzNA4gLIZlpcMzJs3H337DYAZt5HN1KNVx9YCCqiBYGjkDASwDFP8FHIPyT6Sr6KDvBPDNmAIeBDGsaDByspK7NKlK9q2aQcrZsv7lJaWymsybgZ1dTVyv2OWhYbaeixdugyrVq6Ue7Xqm7XsbVWcgFAjQ5qh+LnkW7EV2tQQixnKzjtkOHPtidauxjymhwxcWDENfhqoXZXCN1+txCUXXIrx48aqdJkcbDaWLjczzwolhq1YiDb1kp0WIEQ5KS6N4fxh+lNLN0gU/O7DU7FgxiswMw5aZT2YvoO0kZXfGb4JnX+EI8MIhxGXC99pgKY5MJhdgA+L/eS1GRTpxXBQhNqKlvjATWHSx+9hoeHjridGodce3SVrwPdBluoKarJGbYSy0csSS15AIFkCou6sq5B1tMFLTzo3Akk/qvdQNdzIl12DoWmI2THU1tXK5CTBjBu/qKCxH57tmWGWIffeUjMISej8XjrNWNRCz6iB9Ue+lo94LAESIb2kj3XLa3DS4DNlDg87ZlgBIGzpvAz3bAIx8juY3frNDb/GsJOGoD5TBzPGe2lKpoDjIh5jBJ6Bpnshf0ARxnj/I6Ao0aFwBBjJGWCjJJMEit7lQQ/vazadQSyRkAyCYcdh2UWor6dCHtPHWcSsuHwbbv4CFhzFrOcmzrS22hzIWVUcn3wuCwNIZsbq6uqgaxYcpo+tOOLxYhw0YDB0V0e3rt0wb9683DgrdDA0Dh7JAOga0qksvvpqEfr2HYDBxw7BNyuXYcU3X8M3fHiah3Q2pXgBHjtXaKnhynyl+ibbZzmeSHr26KvBOZ9Pds7P1edKU2Rlc0CodlcpuwraC7FltMxwKeAtd1X5kYCVnJhIW4HcJT5Pnotq0w4zBjL2lOhW7o9015Bvo8pnDDziegK//c3VuPSSi1U2Ql5e4CBs6fKyzY7fqQFCdJVyk4MD3wMcFw3/mYUZd4+Cn0zBXL1WUGzSIlBQxBnNN0Q/X+MiSLJWwzq0LrLhphuQzjSgTUULOGsaUG6XIpPxkdITWJUowStfzsef1y7BQh2Y8OL92LV/Zyz/ZjFaVVRId0B+iY7Xnhu5iMqEm38+IGDpIQoO1lNjZORgUdugUeVOfk9eQCiNy0WaZYeioiKk02m5EjyGv4/eKyKIceHne4kyG3UdyGRnZoIpQp/RpKpxkjDHenLCKELdyiSG/uzkRoAgXQxqLktJolBT3vQcZVrWAey4ifJWJVi9rgaXXHOh2D3Hikxkg5S0kokOAXUymO61GJ1F6Xym+7laK+c/jhW1casoX9LBlg2fnSgEDAGBqCpBmZoJ1/ORSruIxYvhBiQ6MoOVhBc0hDoczE7pkkli1khRHpgyZreEIxu/QUAroWOjEBT3FuofRJ0UxK+JeAlM08b+fY6kJzb23GNPvPfeezm/B9VCV3jwCjgkkRr0AwVmfz4X++y3L5557hkUlcZhl+hoSNeiJrUaH8/6SIKJ4lgF2I1IXZJVq1YhmUzKzyw71tfXY/Xq1aivqYefDTf8KHzP705seukJCqKkU/7vIs6LIlnBLjXRsmUFysrK5H7z0b59GyltMEtB4nWUGeKYUZlLV8Yq//C7ZrMZIdn6jobF85di2ZfLMHXyVBFfC9t3CgDhh5waOy9AiGoMYSM4L7JAbVLBPa5iCDIZxb5iutZ0pa0HbujHSyTNtc9lVoHF0zTeOfdctPAcJFP1SK9bhyIjhhat22BJbRK18QQGnnwqjrjiUnwDoNYCJjwzDl36d0DWS8G2LSGSUbWMPGV+bs5ZzSczndG7gVQmDVPTYYapP5J4pE7oKbY3/y11QmGZqyZmUVPTNFkcihNFwlhnlMh/l5SVShqS5QmKMUnqOKpJSqAQli1CNT6xkA2BO1OUPCcK3/gkKDID7QGGY6F+ZQOOP/x0WIaOow8b0tjFUAAIzZvOAeCksigpLxYRZvJfrrv1apx42vFYtOwLxIosaXmzY6zfs7vAgxe46o+UBVRJKAJ54p8QdhgITiMYZLaHgI8mUsKAVQCVm7XqbLHx/PMzUZ9ycdbZv4Tj1cKO+wIAlJaG8mOIAGI+eCWwZWqbqeOmQr/kzDFlTWBaW9sAy4gJV2XwPqcgrsfRtnVbLFy4sAAiNzBSmP1hir+kuBTz5y9AVZ8qFanHNdx9723Y+8eD4CAjhFZuspk0+QfUJeD91GWjdhz6J6h7F7Wlsi2WP0clnUQ8oUBhxofjKh4I9/9MJg3Py0oWg9mB4tJSJFNJAYQyFjxVElJZUPUZfERdMWyLJLDk+zGjkclmZIxyfEZZSxm/0kUD+Bkf5WXlWLeqHqcMOw3p+jSOOXowXiKnSfX3hh0MqlC2OVHpQomhectPs4/aeQFCCJFFCjYECazZer5y1hOteZXc1301+CW6pw4C2w4sIMuIDS7MmnrMHTcVtTNfh79iOSory+Fm0zATJVhVYqHlwfvC7VsFq0cv7LXXT5AkPyFuYfQDd6Db7p1gFGkIKEBDnQNpDVAlBgHzjNxDoSVJ7wuQUbSh6N5IFiGPbCbtbGGpIFwB5Ny58c+a9SlKyyrQpWsnMVchSmdmISIwkesQvZmY8RAocRMJz0nqhmEbZH45gmIpvhZI7dP0bCRXZXDc4b+QiFBKDMwgyA6kMgjyHZs9CneWA6Ob1DTs2uBOIOtfLGbB1VwZkxdfcz4GH3ek2D07GlvJFJ9AZL6lzGOoJhspJ6sFn4BR6RIw+xPeglCNUw/IpWHGmOOOWQSqfmqwDAt1dQ2YPW8B7rh5LFq2a497x4+BGaNhdZ2AQlFW1JhVUq2Q4bBUfPdQOMtnhknucwTG1edzMyH/QMhsPstbbNHUcOReR0PLaOjapWuuxKAIdJtb9neW8bGh77H+mHH9rMxFXtJPPv0Ee+75I+GJMFh5YOp96NWvCwLTQTZsczRMAkn1vmITLURBle1R11VlmGQt0TjPFcuKMZLPgIVqGOQ/saXRMkUxkaUt8lQWL12Oz2cvxK49eqNHjx7i6EiAKloIIU9KrVGhAizHglhBh+NRAKZynGSpUpaHcNyqIaPD1ouheTrq1yRxzCHHSkZyyNHHYObMlwoAYXsY9jsvQAgXrSZOZ9xsGVUpOVMVPYdCtLK7cbKJAIzmS2Snu2lklq/EW+dcjo7L1iDhOXBMHyvgoKGiFdIty3Hc6JGwW1di9uKvUd13oHRAUNBm0mNj0GP3XeAgCYOTLpK02+CND1fdiOUrCouRdHJoxxKSFUlLJDrnxJQFVua+jzVLV+DqK0eiw659cf0dl8MzqLbG33EZIFznpkL2Mxs+8wuRkaRy42KlFBTz7ICoCyGZCx2mZ6JhZRYnHH6a1CLX4yCEC8T/XomB1y4q1Obd4Pzx19R1j22Algnf8ASTXnrdhTjmuKPhW1n4bLGlKFI+OFR3US20bDUN/4vApjwXAjSp/0omSOWK2b2jBxZM18bMF57DJ7MW4OMP56IhWYsWrbth6jOToVtJQEspCW61BYR/Kb1c1VqpnuMxkdmPknJufA1rxyIRLbK+BjSfJTsLh+95NJCFAARmECLy7fawDn4v5xBNp3wMkNN9D+dfnmOnuuKhKRHoxaCklqPW5/unjkb1Ht3h6GnQHVTdjrAZNtdRoMp7G4Kqsq0LWGTtXyStQlCpwcu6KC1KIJtKImYaaKitwd33TMQ/3puLAT/ZHzffci18pGDaLtwww8CMaPT5XINk7LFbKxqj67FTmgxlORcGZQb4X/3KFI47/OcSoA05eqgCCGLWFJbUwvG8uaijkEHYxiN55wUIW36hiHGZQOBEokSRFAOcDLS6JD6+ZRQy//oE2VQdUjEfB195KWra74IWvXoIWxglJfj883nou9sekrCA7uD+R+5Dr907w9UzSuFQzaBmn1h+q3Gkm86ojADBJnNSmtOB2Z9+jm+WrcQff/8aPnhvATpX7Yk7H7gGKKpHPGFL2cSgZSt3ocBCwM2nCUDY3EnRO17SmGEGoWFlBicc9ouQg3AsZsx4sZGD8D9p4bsxgCDbeZhaaRIp+0r10KWssgn8+rqLMeSEo+FqafhGeI/CDUTp2WxZpK02AforkH+QheHFYLlF+Nf77yCZrEd5cQlmz12L1976CPdNvh1WIg3TaH5PPXvpo/MSnxEZ2iQ6Mn3siVIjoanmmdC8GA7ba7AAhC67dMGXX375vw0QlHzlt5R/eB2jETN37lz0ruqdAwjjHx6NPoO6I2tk4IkUdxjMhMZfm5vDcjznprQYEtTpyptGA4rtOOrWrkVlaQk++2gW3nrtLUx/7l3J/HQZuBfuGzcCViwDI55FwLRhCA4YMPCP0BFZstQbAUJzzifQDLE+r/2mAScddrqMjyGDFUCIwG5OQzFHyNr4OxcAQnOu+hYcUwAIUbCkMg6uSNgq8q7qLMhCq6/HvN+9hPefe0E6GvYedgS6n3Sc2mxtE1osDs8wMXfel6iu7qdYuZqDiY/eh967d4anZaRTx6fhw+YgcN692xBA4BrMtiUnk5U6n5PN4unHnsLHH36Kvj16YfGX9VjdYGDUQ9fDj9UKojcDGwYigMCFnIvL+hmEzQ2ZAkDY3BUKSytN4qfINLxpRCd7KZUUKUrzfQMEjV0IjQDB5gIvZEYfM2f+Hc++8CeMn3oX4kUcF5nNf9HoiAJA2Oy12lAkH+YJ5LWNOboocAgzAgD+mwABjoe4RVGrNJ6a+jhWLluL8oq2mDHzHbTv2hv3jhmBorIAnt4AaFlVQgzIqVIdDEoWOZ+uutlLo75/ASA070L9UEcVAEJ45aWQp1puiKw5TZV4bACbdPPV64SoiMoSNKxZjuL2rQGrWDb8NPvDdUvMmgZU91MpPs3FA4+ORs+BjQAh8JXOQnMfG84gkNWuI27HhATGEkNxIi6GPrUrluOJR/+E37/5IaY8dzfiZQ4C3YfmEOETIDDtzAxCASA09x5syXH5m0FUlV/fUqnx3YQQ/j0DBCmZCeOU6egsDD8Gwy0C0rWKFGv4eO3VD/HkM6/jvsl3oLScZ8XMRTMfBYCwyQsVrigbPCbMKW309fz9fwsg8CQSdgyZZBJx00DATifXwWefLcEtt01GWcv2GH3fbSguC5AJakTJUQkvqRKHKnGqr7LlWa5CBqGZs+2HOawAEMLrzogqMhsKU8IUWMqKL0IGxSRuuQ6CmIE0VeLI4gY3W/UyS7Mwd/ZcDOjTT9rSfM3FpMcIEDrB09NSY/aD2BaXGHJxRZiNFPAR2vRSEVFIhtQqYOuj72LK5P+Hf3y4EPdNHQ4tznoyxaGo0+80AgRdtcRtUbmjUGJo9gTNLz3nUwjyqXxShfovAAQhqfGD8gBC3KAJVFaItq+/8SGmv/hnjH5gBOJFrE9vgEexsW9eAAjNAgj5Nfn88GBDP+cf+30AhEZCqQ4vzJbKl6B6YxAgJvLsPuA5mDtnBa67bgzKWrTF2Il3IVZMrkxSAELEPxH7aDnpKPRhENL8IKiQQWj2svLDHFgACNF1j8yLoo0zpHeF9gxkiVMu2Wc3QuiXKHyAUKzG0kwsmDsfA/r0l5YyV/cx8bHR6L5HJ7gECGwl97YCIOSVKXM0MCodiuUvjVMoZESLVg16tgH3j38Js+asxogxv0FRRYCAbY2wYQQEBaw7mvD1bK6VUREmNv8olBg2f402yAyTMKvxtevx1b5ngCAEMk0BhEDLQvPjMN0ELC0jY9k2Ajz73FuY/uI7mDjtLljxRrvmZnxbcdorcBA2faXWu99ND22acoqoKuGQ+T4BguIfNM59L+MgwdZqLwuLHTOeg0//swg3DR+H8sp2GD9pFIxYBprtwNeoz9JIYFXDW/2bnTMFgDBtmkqv7ARiMAWAoGatuOAJr1d53YcMGTXuKY9A8lVodcqUGq11DSsSkFHExjmfzcaAvn3Vu5kaxky9Cz336gLPYvuYB92L5Vi/zVqAN3JQU3wuRRERdEph4viX8NEny3HHuKsQLw9gsRPCZRqvABC+yzXf7Guj9ACJWpQPtpVwjOgaUucibA1b733od8C2Ut1DUUUCN468Bj/a90fwdJLQeL8iu1uVwt3S9G00TnzNQ0BQ6MdheEUwtbSoNFmGj2effROvv/VP3D3hRiTijAabBxjVAlgACM0aFxs6KNxfvWgdCT0OaPeuRKmAOXPmok91b8UWsjTcP/Ve9B64KzJGRuyeRaKamU2v+fcsyiCosdT4OpYtA9+TzJLN99QDzPp4AW68/l60bNkRkx66D55ej3gx3WnJQ4hUEkU+qwAQqqurBRCceeaZmFYACJudFzvaAQQHbP4jQMgJh3Lch/bPgaWD8zDIujADBSNESClvbs6ZrQAC63OJigRGTbkTHfq0Q51Tg+KyYukBj9qCtuX14QTVBYA0YPyYF/D5vBrcPeFamMVZwFUkRZ30YMkg6PDpABeyjgsZhG13JyhelLPV9pUypUgpy06dV3WOIseozVH3kChP4PqRV2OvffZCYFEX4bsDhKjzxWUGge/nJ6D7CRheA+jq63lJ/PWdWfi/D7/A2Rcdj7KyOAK3+enhAkDYzNhp2uYol1YhSepLRKAxEjmS1mvRlVDU1nyAQJO10ZNGolPPdkAigIPQ4C0kCjZ/FIeEAdVqlXuZ+DNJPYwS74DvOtIKO+LmcWjXrhNGj70TZtyBFdfESVKNZ3YwhCUGEmFzUqrNH0OFEkPz79wPcmQhgxBlEJTjo4r71EM6zKQk68OxwhZIz4HtEbXToCGcY+HaP2fObPSr7gvDNNCiXQuMnjwSbXpUIuU1wE6YCDKNfcvb9mZTHIXqkLWYOP5FLPgyiZtGXoYiks64Sfk2zIC99Sqt6OvkI6hJTBZycx6FEsPmrhIlhEhpJVhTPhmRUyG1AOSxniaC2itEmMrwUFJRgpvuuQ67DdoNvulsc4Dg02eEAMEjSGiQbpxMeh1idls0pEyYJUkEviPlqGY/ChmETV+qDbUwhDoIocGyvN71ld+JUpqgouG3AUL7Lq0x6v6RaNulJVzbRdZPKy8G/tfMOawWtTDVtSGAIB4zSm7d8x189ukC/PaK29Czqhp3jByOohIGSVlF5BYGtdFIUpTVk2FW89aT6MIVAEKzZ9sPc2ABIDQCBE4dQ1K5ATyqBnLKigqZj3WGLzF4CQzEvQAGJZmpUZ8D4j5mz5mL6j7V8vo2HVvhrom3o0OvVtDo85CpR0y3t6g+t6kRkd/hEGUQNK8Gb78xG8tX6Rh2ykHQrRRsnqNnbAAgyGrR7MWlABA2txeoqM4JlBIe+/+pA8BFn3+rvJQSL1JgQf2JSgzlrctw+9ib0XdAX2SR2iYAgWOZ+4FDUiJ1FUKAEPj1iDEj5tYhbrdF2okhjW9gGQTFBYCwTVfifNZhrq2RVkqBqCFSRjnSHFWjJhaWOdfPIFS2LceoiXeia1UnZCiUBMohq1znlpQYNgQQpNElbVmRhwAAIABJREFUlE5mx4syhAuwZMlKPPX4THTo0AknnTIUps02cHonUL2TC58BQ/QQQs0YETbaskcBIGzZ9fqvH10ACHmXPOxLCmhjS1lSRoPUDTeA1SIPoqEIAcrY+pimCUJcsgjUGmCyYc7suehbXS3LQLtd2mLkuFvRsWcbxEpMrKtdC8vcdqY0TQECMwgWGrBmZRzJTAt06F6EVHqVCCoFjl4ACN/zzGL2IIWUgMNw2VaZhDCiMmXZV1AhP5Cj9DU5CBXtWmDk+BGo6luFtN+w7QACs186ybW0/k7AcBMgQLBManwkofnlcP1iOCbHCslp+Tm0zVy0Qgah2aOqseVRfBaV2yJbj8PxEGkGxpCAGivrA4TWHSskg0CAkAwakPHTyl1T07cZQFCcFwUQLFtHQ72L+lpmFAy061iJrEfugSvSz4ZuieOtlBgkkarSrSK81OyrUtBB2IJL9cMc+r8DEDaY72u86BHJjN2OegBHgj0hIWBlZh3e+foTLK5fiQFdeqBbogI97HbQAhqQMCmn1MPmzpmHAf36imVqz15dMWL0TWjToQy67Utr5BYKKW50QHzrm4gMrgcjqIepdYLjtUJWWwEvqJMNydISMOAo0d1ciUFlEJrLiSBr+X9PSXGTHPT17g8X/LqgHkvWLsHcRfPlXnfs0BEdW3ZCuVEOS5Z9pS0oSadwvNG5LzA8tGhTgZETRqBnVQ9kwbZY3i9KgStx5UaSYvPru/QeowQ3O2pcZhCCODSWGNAgAmC25cOnLoJeDs9cI/r7Oltxm6XVoRT5VDJEdceoE+U5e0J4I/GN6p0itezZO6mSYtPZuP79ieh7jRxWBQ5SXhKzl8zG4m8Wo2XrSnTv3E2sjsu0CsRhySiZN2eumDVx7vXqtytuu+8WVLQvhWtm4QYhByHkATR398hvTxSp49zYYhaB0u30sXNh2DpcR0MiXoGM48JxKcOdVdb1LIdQCTywhNQq/AUZq55kXnMdDps7KemyCXUQVjTgpMM3paSYV6LbxBT4QZQUZ8+eDZIUmVo57bTTciRFXkhabu7IDzHW8JVTIP+mVWjHjh2lDnXCCSfgueeeU4tAKJ+7w3RuRDMyxw1Tskdert6nw/foTaDMRDI0NDI02HS983XxU+DkTmkZvLHwbdzx5lh8kVmAdu0q0SFWhjP3/jkGlP8Yu8Tao0QzYaUDzP1iMfoO6Aff9NFzzz646fZr0a5VEQInhXiRjXpK0DZ/fd8kQMi1PCqTX7VMGw58NwHPiwN6Gobpq/vGBZochehIIRRtmQ4CrxMth5kEJemxZnkDTj7ydAkXhhwxFDNmzFAmM0J78EIC1jb4sj/Y5KLhjAOdbaysyYo/B9NFag+USmvUliYZpCySXh0eePshvDD7D1hirUFZy0rs2rInztvnLFRZXbCL1RpxxKBTUVNuh4bi0iKknDQq21XgrntZ7+2JwPLgIiMSydKiGN5f2pBHxLLICTT/8uQ/Fzly8vc+9fHFH4GLOfU7aNBFS2bAdchetwCLDoAc8YwKQ9388PYpcPLt59TCELHZo9ozPUSAdDqFkuISOBlH7J9p+Xzw7ofnpJYXLFiQa9ONrIJ/sFvd3A+O1pTcvecTpDZ7oYaKgUD8TpTbId00s4ZGtRRYgiPUTM1qPr6oX4Cbn70Vn9Z/Bq3MQ9e2bdG7QxXOGXARkDLQo3gXfD37K+zepz8yyKL7wB64acINsMsNxCwNhkMHRgOBIXezud+gyXFhNiu3vqsxSXDHe0gzJxFwkVIGUQCzCdTUIIsxLJtFXhAcpXneCc05Ick+OKa4fdauSuL4Q06RgOWYI47BzJdmNr7Fen4Vm+Y4/CAA4fPPPxeAwJt+3nnnYeLEiQoshw54zbkY2+sxTb/DsmXLBCDwMWzYMDz66KPi963qUltGQPlBv3PoU6AWcSUrq/5wOnOjIxnIFDYx3esoisSlOEbXMbYr0NRIB2qMBry+4m1c9sLVWN12HdzUWlEabeO1w/6df4ZDu/8Eh7ffH21jLfHVJ19hwN77wrV8dO7VGXfefzs6tCqGn2qAR3QdN8X9bkd8UPPBNmIwdBOaq7TTjzviFGFuDh0yDC+9MAOOQ8tZWU8ks9K8SHQ7vRpRTphroQa4gS8GWXHadnNzj1yTKIClZ+Ehi3qvHne9eQ+eXPY8lpWvBNwMtHQxOvlVGNbtKBzZ40B0jrdB94pdYHgWTCsGy7IFAJRXlOOa4VeiS9cuKCqJS6cJN3YROWKGSnZpbt7b0xzkBqIyIoIVwr/p/liXbBDbchLaaOe7fOlSXHDWpXBrfeHpzJo1S46OGPw7TOAhdprhF80pkqomaTGmYq7O4eCgXbIFOhdYdEB0ef8YfmvIWgFmZ+fiFw+eha9aLUWdtgpag4NEUITWmY447/AL8OOKPaEtcfGzQQfCNC20r+qEG8bdiBbtSlBWbCG7rkZlAGn2tSOty3nTnUC52CyFk/aw9KvlOOPkc0Xp+8QTTsQzTzwjxM3cQyYdR1iYqdrIsvGDAARmEAYMGCCn9POf/xyPPPKI/MwMwg6DfjdyQfkdyKSOMgRff/01unfvLuDniCOOwIsvvhiSUtT032EmMtKhrjyXLw4qmhsZskFzsXf9/9/el4BJUV1tv7V19TIMM8OwiEJk3zQxijsooLihoChqgkYSP4NGTWL4E383FCGJWzS478YdxY3NLURNVIzRjyAGBBFEULaBGWbprbb7PedW1UzPOBDETpjuOeUzMtNdXV33rbu895z3nJMFND9rnIOMzDaoe6QIppwFlHNcg6NEkFEyeKduEf7/89djtdgEI2IgmjWgpf3sdIO7D4SxRcWPR09CD2cfjDhgGDQtIsstz7h1Gjp3L4eik5XGkWVNC/Ug64pDmSQ9IKonUFtVj/FjzgQcBaeMGYvnn3s+KDHr7x6j0VjhEwTHj2whY78wMnJdsJGGJhdq33wQVrCzqFCyyOCRjx/CPX+biXRJLRTSpNpRuFYJDK8c3aKVOKDbYJwzfDz2iw9AJ5SjsmMnWGkLaiRMygx4MrQ2Z8WVA6+NwtlyVx3ctxoDaLNJpuiQQUQUA3bGQc+ePWU1RzpC62VhjAvqDamchcqQcwpVs6TNhe1SpBCFusrsF1JpYHgRqMKR4YOuosFVDdiKgnXuWlz98gwsXP8u3A46OqSjMiQZmoOEGkVZNoHvVeyHJ6c+Cq/KRe99++D3t96I0sqE7IueQfU0AN3RoZEFqAAPP0RSh6roqKnajvEnnSldK2NOOBlzX8yxIMj+34YJAlkQhgwZIhfHWCyGHj16yMfR0NBQQAtm6z0o1CCQi4HYPBEeIgm2beOHP/wh7r33XpSUlBScBcEjEy1VsKPARTciTWJ00Bpdp2WwomYFnvtgNjbXbMLHG5ciWtEBGYsWgQwczYWt0MCLICY8WEYD1ttfoVZJQtM7wKjTUKaXoMargacZUB0DnaPdYG5WsPGvnyH1fh2iQkdpguSMNIEooDwKqvMNKuW1tQFPmgySxUuDDLlfPFRvrEFEj2DsKWPxzKxnpTVG1xVksxmYZrSNrmi7Biy1NCtcpJQ03vnyb3jmvafxxdYvUKvUQEloMgU3TcwU7kq+WHrOlhlFSqvGpm3LIBIU5GLAS2uI6mVwKV49AVjbq1Ee7YQDS/bDlCN+jidvewpPPvA4HJs0Av69kSvDs3xXF/0XbljJCpWT9H73DTSN/oJdfETh+bnQheaCnA11+JKmKXDJZRecb5oGrKwThMcJDBo0CEuWLPFDPAP35q49lT17lm97TPsiVBGV0UFkSSIrfEp1kEQaz308G3P+/hLqs3Ww4y4sSltM1VPVDLIqhQVGoLsqDC2DanMr1tVughKPIVodRdSIwlIF0koaZkyHmnWR2B6BtxaoXrgFHb1SaGky+QuIWIA21U0i82eBHhTFIfu8AWz6ogpmNIZxJ5+Kp5980q/3EDRNunFkTFAbtCCsW7cORx99NOhf0hxks1m54yaTO3XwQj2I8BAhIDKQW5ud2kU/48aNw6xZs5q1k4hEIRx2oBOW4jBK/hKszSICbFNTuPPNe/D4R0+hzq1HumsWyWyt30vVLKDTRGwAVgRGg42OcQU12naIEgNetYMISmXSI5Xq3igW9Fgcdl0We0V7wliRxPpH10LdKqDbZIJNwEUE5FUWSkOj6KwQMMy9R7IW00QYVrGitYr88+SbOfXU8Zj93DNyLFCZX8OgMCiyNu18MLdlDGgH6MDGdtTigrsn44PUYmzzaqDvYyDp1UohqiSetgnVjUgxnnAERNwDIjYU14NXT1npKqQbxhJJoMz2+5YjUF7TEUfWHobHr34MixYtwu1/vF32U/KGUYy5Bh2q58e5S1ImqL4HpbkNRIstDAzynJzXcjUqrb2XyxHC9+nfXC4QLvi5y0/z15rSkjfTrsv6JKRr0iE8X8ArXSmU7TOqY/To0Zg0aZLfrsDlVgjuS2qJBUdKTQ3SkZB1xJdtIGk42OBuwbn3/gQfpZbCNT2IUgcOuYTIFaGRxZL6jAk1o6HEtZBS6iDKFbgpIGpVyP5D2VnTSgNEjDJfutDsODpUJWB+oGDTqxthZDRoioksuUJlNUQ//0ChHkZUh511oKiqFLU6todTTiZN03PQKJwyhyD4ZZ/bIEEgMzwx3rlz5+Kmm26SiykdNCHSe4V+EJOnduTqEchSMnv2bBxzzDGSRIRtLoSBTM+DzMIkxSPjmyxx72v0YKkeGvQM5qxcgJmv3YGkSOFLbETcNKBlNFmIJKsrcNQIDMtER9rIebWoLa1Dg5GGUloOZbsNhQogGRnYtFKSWcJLoKK+BGf0PQ4bX/0MbzzyOrwkJcyhnbQpJxbafQSZlwquy4QKZ7/fA7qqS/EeLWHTp8/AZVN+CdOMSIIgTaxkPiRRXwEfjmMhpWcw8/U78NzSOahFPWr0WoiYIjUrpCNQHR26S8I/gLhzfaQeqWgGGrlizASsrRloccoz0ACYGRgZFzE3jvJ0V0wbNhWnHThOYklEQLiUoMZFzKBIg6B27teEcQUAaMgyiCiQ751i/ak5RBZk+EbTQfMKzT+FcNAyTK4kSRCoGUQQBOBpAinNwRaxDVe9OBV/+/JdZEQWtplFxKIspp7MRWHppF+JImZriLsZpGLbURNrgJuIQa2mVO46EKEwwxREhERROkrSCVTWd8LG2WtgLctCT9KIi0KLJuC4DixKexzufgoBxOZP3xcBe5TojeZKFboewXXXXYsrr7y88Ux/CPgWBCLOOzv2iAah4HDnGw4GTegA9dXfvkyREto4cndoSzcE7RVtGahFcjEyImagIUuDUMYkZ5FBDVbZazHx+YuxTUlBZF0INw1E66GJOKK1pdgrsxeuPeMqnNjjaFRQ+CO5NFQSl9HVg10UzMa450J7RLLee0CM/dzBQcDz13zj4YrWVp3mu4a8r0/31wAbGZm8yJ+k/HLIvumfeg31Keo19JwzSGM71qe+wMSnJsOKeqi1M5BsQXiIqAbM7XEMjR6Am0//HYZU7IeI1Li39Bbk4puzoH6DKnm71so9cFbhWsODnXrACuRC5Qtxg/goSpMlxaqOlCbSc6PcJLLottywpECbBZpTaC6qxWZswrOfLcAtHzwANxP0rfhW6cIzsxVIVFdgwv6n49fH/AJ7qSXSbSktSSpZMvwkXL7UujBBbXbXO+jmTbYRJgh7YLQW8VfKkC1yFVAbaWoPs3zJfHZ+/G6YolSKjgWEbsnhTi4BciSEdc6rsAE3vnMLHvlkNuqUOphmHFTdUfM8DKwYgGFdj8ThnQ/DKf1ORtTVYJAtnr5Xc+AoaTk90GSioUSqnAvxUGlxCkdr7sguUoJAlI7oI/Ubms71oJytIeM4gzBFWY+DfOtk+ncgPAcrsqtw6RO/wmJnOerVDIySOBxXQEkLHN5nKA6JD8VJvU7EkZWH+Zk16QgxbBbOFZYPC/st3QctSmHmPd+h4L8bhqs1vZabgMf/nQy0gYak0RmRe74vkqT/ms4nZX54c/73EJ3Ofa3pfP/TLT+b+1p4l4XY//17JpIciOXkcCA0fFR9ukhzSotCbzqVRvYTIllEEATNA0AGKbyz/W/42TNT8IW6CWacwpNtqGo9Sr1SHL3vCThAPxTj9j8FPWNdUKJFfKGeQpsbmlF8f5+fXaNQCUJQxyGXIQf7juZ2Jp9kBWoFtiAU7gBqQ3febCNLg9j3MzRObrSIyx9/Y0C/UlEbPajpSOYu2vjReP8s9Rkm3jURn0Q+R0XvTrDq07C32OjidUd3pQvu+uWt2EfrjjgloZF1nf3NhZD5Bogc0HdTF/eFezkW2DDjbuMQ9ycbfy3O9SPnTtPhmpLbxPBzua8FU1qzKb7FWGz1+8PvCu9B/k2+1JYEYYdGgtxPtqE+8Q1uxdcg+JaBJouB4kcwhGGOIeg6KcVsuMLD3e8+hj8sfhCbS7aitEs5GramodVr6OyV4cR+w/DrEy9FJboiKqIyrXezzhBmTwrsWv7i4+vh6aCloFl1sG/QnrZwam4mybZwP7t1Dzld27co+RoAf9tBokX6aVqwHcpWBUfu8ml2UUmzKIAGNYXzZv4IH4olyHYTcDNZeBkHpdkourpdMWX85Rjd60Qk3CgMIuca5RnwczD6JNGv2eDPK/7i6dO9r+tIWo7nlvNPa/NJOHf8u7kodz4Jf2/tNbqH3FnBP8dPspR7NGkO/HY0BUuHLWuDeRB2qyPxh/YoAmHWA+qAgfjetyiQ2T/HfOwbAv0ajrSfM8MOG/RHSwW2OFsxZd7leLfqQ1Qna4CkjSnjf4lDOxyMQd37oateRulvpMWBxOeaTq4E8pYpTYuJtCg0WeZzB2X4e+6C3togC9/f3fPDpuXuN1q+1vJ7G78rIFLBauk/28bEKDlV4Vq7yT3aE3bzy8NOQh1IJ7eUv4eh6TkMnKXn7SdMIvrpog4W/lr1d0x54SpsMGqRpWRB2Q646ZzfwVyfxgkHjkAJ4uTBlgmDEgaJG1uJJAhwDfmYn9Ez5J1tJ1Q2nLJ3FWFZN6BAd7tht5bLc/Dc/cUtyHZJmUYbXVL+CPM95gooN2UjGSTNggIkVRuPLnsMt/75LmxTamFXN+DQwQfjd2dci+1rqnFYv0ORCNIuN6QaEIvHg1JIum+h9CO0/Y1I0CVCgtDa/LCzuWV3z9/R3LErc1fjOdJtGVCBoN835egM7K0tSMTOuhBrEHZ1NLbz80KCINPahvlOZRo8/4dqLfgKBOL3fpmUKEkP5UIoJfjyvbRwUIVqXPvKDLy34Z9IJuvx/d774TfHXIa99e4oNeIoUXXfI0kqXLJCUiY1GWCp+QQhEEg26mtamgZyR++ORvKOzsl9zi0Xm52N1HA2ae1eWvuuZgu/j2ETl8otONOKlL4Q+yI1zq+Q7RMEuQA0GTrpecv9fIAxmX23IYOP65fhF3+6DLWJDNLpLMYdfCouPOAn6JKJoyJRCoPS1CpCquBlIa1WCIKPa/PCN+Fp4ePKXQxCeHe0QIQLQO6EHl6v5Ws7utaOzie6/XV3RpO7IdcF0dRLCrFD+I8qHMpywW+0qPnpNT2FtAFEJsOdPM0BJCmkOUhODLLhpGneLlJ4ZePrmDbrBlgRByP3OxwH7X0AxvQ7AWZKR8doAnESLQoBh1TBGmlVyIlBLsymqKxmRqUdjfeW4zmEf1fO/3dzyK5ce6fzW/MIjFxYZbKpUOuU22V24lFhglCYY2sP3HUoMSOKrfumv2aLXJO1NnSvU+fUPUsKymSuUcWAo9jYJrZj7uevY/afX0TcjWL88DEYv/9YqWA3dcqz4EoVbiqZRKJDh8Ds5weotTShfS2OLHeBzp3JW872rdH1b3p+y+9quXVobSXJxSycEYMdS5PxuymbXrNMf4XpGm3qJ9SFAssxCc/CYrYyOwH1qdAeKvPPE69UsNHajGcWPYD3P3oLphbBzydOwZCKQyAyMcRMHY7lwtAUeFkbWsJo1J/7Jmr/aNZvmlhYrr21KapwR+ag1lb+b/38v+73+nfrRyv8Zw/MBfn6Sj+OwT/IlRD0gVysc9xuZCkgQqELFwrNK/RkVUMSxCRS+Nj+FA+/9gQ2rtuI30y4GN0T3dEj3hvC8mAaHly7QeaTiJikXYo0K4SkhWOxZQnxHc0nO5srWs6L/45Jtrbg7+5c1JgAqWnY5Xoy5cxCbWyJ8Q4eKROEfPX1or9O6PsPDMKyk+1kxfId7UH6NyIIlKSD5GkekiKNlEIa9SxKSGhouygzSmQon0ZJbTw/J0azThzgS529mVG4pbksX8+htS3l7lx7p9cJbr4RRl+y1tzoXcisoAVggdNUZksMlnI/FsZPMdxsxaZmuxTjYCOtVEsZGokQHUsgblTA80y/VkW4xtKOknhr41c24daIZ25faWlC2J1ny5/5lgjkEgQiB0Ef2NmYlg+TxExOIEalIvJkvaSSXA7qkIQJE5QYMapHEaXkKjL5FOUGCPoabW5k6vLAMiG7CtmzfD/+Tue13Bbna47YEYq5VskdmaZaflbuoMJZkn73bU6+ziI4cuftfzO9MEH4ll2cP777CLTcxO/+lfiTxY8A95bif8bfvoXcS749hrlXYIKQXzz5aowAI8AIMAKMQFEgwAShKB4jN4IRYAQYAUaAEcgvAkwQ8osnX40RYAQYAUaAESgKBJggFMVj5EYwAowAI8AIMAL5RYAJQn7x5KsxAowAI8AIMAJFgQAThKJ4jNwIRoARYAQYAUYgvwgwQcgvnnw1RoARYAQYAUagKBBgglAUj5EbwQgwAowAI8AI5BcBJgj5xZOvxggwAowAI8AIFAUCTBCK4jFyIxgBRoARYAQYgfwiwAQhv3jy1RgBRoARYAQYgaJAgAlCUTxGbgQjwAgwAowAI5BfBJgg5BdPvhojwAgwAowAI1AUCDBBKIrHyI1gBBgBRoARYATyiwAThPziyVdjBBgBRoARYASKAgEmCEXxGLkRjAAjwAgwAoxAfhFggpBfPPlqjAAjwAgwAoxAUSDABKEoHiM3ghFgBBgBRoARyC8CTBDyiydfjRFgBBgBRoARKAoEmCAUxWPkRjACjAAjwAgwAvlFgAlCfvHkqzECjAAjwAgwAkWBABOEoniM3AhGgBFgBBgBRiC/CDBByC+efDVGgBFgBBgBRqAoEGCCUBSPkRvBCDACjAAjwAjkFwEmCPnFk6/GCDACjAAjwAgUBQJMEIriMXIjGAFGgBFgBBiB/CLABCG/ePLVGAFGgBFgBBiBokCACUJRPEZuBCPACDACjAAjkF8EmCDkF0++GiPACDACjAAjUBQIMEEoisfIjWAEGAFGgBFgBPKLABOE/OLJV2MEGAFGgBFgBIoCASYIRfEYuRGMACPACDACjEB+EWCCkF88+WqMACPACDACjEBRIMAEoSgeIzeCEWAEGAFGgBHILwJ5IggCgAdAk/8PD5V+obeCQyj+WSpcKJ4NZG0I24NiRABVAXQdjqbDEwKqokATAH1GkdcRUBT5W+4l/b+D8+lfOhT6hH9q4/vhZ3Nfk+cG1wxf9zwPqirvXF635fv5hZ+vxggwAowAI8AItE0E8kMQhAvhOcg6LtSICSiaXMVVAei0ZtOPAggNcIhGiCzU7ZtR9e6H2Lh0Bbr37otYeRni+w+B16kMWSMCxxGIawaE/I+oh/+vXPgVBYqiygX8d7/9LcrLy3Dh5AuhKSr+/Prr2Lp1Kz748AP8zwUXYL/99oPjONB1HbT404JvWZb8m34PCQGRAvo9/NE0Tb4fkoW2+fj4rhgBRoARYAQYgf8MAnkjCBAehKpAQIEH+tdfzVXhQiOzAf3QDl94gOsgvWo15l8zHR23ViOaTEI3dPQ6+nDsdclkuK4FtXdvWEKFgYgkGo5rQzN0KKoiLQye8Bf7/v36YcDAgVgwfwEUAUy/fhq+XP8lThwzBhPPmYiamhq5yNOCn0qlEI1G5e90dO7cGbZtS1JAZIN+6PdJkybh7rvvlufH4/H/DPJ8VUaAEWAEGAFGoA0jkBeC4HqebyXwVHiODT3i7749OHJBl3t/sih4KuB6gO0AGzbgkR+dj/62hbJMEkK4qNdsoHtXdDn0MJjfPxh7D9ofStfugBmFS14DVZXXon/JJUFEYeDAAejfvz/mzZ0nLQW33nwLPlmxAiOPGSVhTyQSkiDMnz9fWg1eeeUVNDQ04LTTTpOE4JprrsFJJ52ECRMmYMaMGfIzdB16LxKJtOFHx7fGCDACjAAjwAj85xDID0EQgOsCuguoNhGArG8yINOB7rsWpFvAVQFHARwL2PwV1j/8J6z586voREQCHupEFo4ZBZQYDLMcXb73PfSefB7QYy8gVgHYHjxDw7Rp12HhG29I38XSjz9GxDTxm1//GnPmzMGmTZuQrG/AgEEDccMNN0hrwdChQ+W/mUxGkoEvv/wSy5cvx/HHH4/Nmzdj2bJlOOKIIxpdDm+//bYkFaw/+M91PL4yI8AIMAKMQNtGIC8EQZCyQFgQW2ux6uEnsHL+y1AdG3HHgitsOLTbV1Worg7d1aC7LlQ3g3hUg5eqhy7IzO9CN8hSYECHDitlwYvq2BJ1YAz9PoZe+Bt0HvJdeJYFxTTkLn9b9TYcfNihUmcwd+5cSQKmXnONXPQvvuQSiTy5DDp16oSePXvKv0ePHo2qqiosWbIEpaWlOPnkkzFt2jRks1k88MADuPPOO6XbgQiC67rS6sAHI8AIMAKMACPQ3hDIC0EAsoBVh8xXVVhwyRREV61FQtNQ7jlQFAEyHLikA/B8gmCrQDamQE8mEVMEbDcLhXQBhgnVUiA8BcJQkVJtCNVBVWkZOv74UoyceC6gqSCxgee6+MNtt+HyKy5H7z59MGvWLPzpT3/CB//4B5INSegRA5MnT5ZWgEMOOQQHHnigXPjJgrB27Vp88sknKC8vx+mnn458VkPzAAAYTklEQVTVq1ejrq4Ow4YNw0MPPSRdEEQQWKDY3oYDt5cRYAQYAUYgRCAvBEHABcgKUFOHD269Cxvefgcim0En00A60wCbLAgUESAJgo6U4WGbmkJvR0F3y0EJRTe4DrZnkqgoq8TWbfVocF0kunVCfbIeWq++GDHzPqBLFwjXhRLRYZoRDD/qKPxz6UdycTdNE9u2bcNNN96IFZ+swONPPiEX/8WLF0tCkEwmUVJSgmOPPRZffPEFVq5cKQnC2LFj5fvbt2/HiBEjpAWBrA5kUSBBIx+MACPACDACjEB7RCAvBEEGKZBOMWnDIAEhRSt4DqDYgKHCk0EDRBA0wCO1oQsgCdRUY+U99yH13AvQPReqJrBJcaAnOqGiZC9UNdgYPOlsdDvrNIhYGRRVJx0k3nzrTRx3/HGYeM45WPTeIvTt2w9zXnoJhmHg5Zdfxh23346+/fph3bp10vVA7gh6L9eC8Omnn6KyshInnniiJAhkNSALArkZ6PcwLDKMeGiPnYPbzAgwAowAI9B+EcgPQZBhghRYoEJ4HjLZNDRNRcQ0wixHMopBodVdsgkBpNPw3n4Xc667GvuqDhTXgal48BQd6ZIKVB5+JDpNOAPxfXtCK+0Iz/GgGroMo1y7zt/xV3auxPEnnIAePXrg5QUvS7eD53ro26cP+g3ojxdeeAHHHXcczjvvPPzsZz+TloGQEJBIsUuXLtJKcNBBB+Hmm2+W1oNHHnlEWiKIIIS5ENpv9+CWMwKMACPACLRXBPJCECBdDALJZANiJR1kHgRiBn6CIw9qbh4EetUVQMbDY6f/AHs11KKDl4IiPDRkkjDipUhWdsFhN0xHx333gUiUws6SgFGDRpEFmop0Jo1oNCafWd++faQGYcGCBYhoBmZMvx6//e3v4EHg2WefxQ9+8ANcddVVuPLKK6UegVwMZFkgCwId999/vwyBpM/PnDkTP/nJTyQ54BDH9jokuN2MACPACDAChEB+CIIgguAhY2ehRShMUZMuB00hgkCWgwBsmWpZQCX3Q8rC0ptux4a/vIl4JgXbsdCpfy/sdeop2FhdjcHjx8PoXAlP0yAUVaZPdj0Xmq7J/AdEPshiMXDQQPTetxdeefUVJOsaMGrkCJxzzrlYt34dli1fjjfeeAPXX389NmzYIBf/Cy+8ENXV1VixYoUUIY4cORJnn302Nm7ciIULF+LNN99sFCgSoeBQRx4ojAAjwAgwAu0RgfwQBLIgQJCtALYnoKl+pkLKgCitB0GqZSdIg6DCQSTdAPxjGWZNuxmlQkWiYwcc9MufouSI78KL6FAQgZKiPAo6YFBSJE/mUiAxo64bcDxXkoYB/fth8ODBiEVjmDd3Lq6+6mpcffXV8nwSKc6bN08mQ5o6dSpiMd/qQPkQSI9QUVGBM888E/fee6/UKFx22WW46667pPuCRI+sP2iPQ6I42xyWRGksUSJsOTBdJQKqPKIImQTdt/zl1DHx7YBNNVBkLRVyF0rW79cs4YMRYASKE4E8EQQCx59IcmozNdVLypmd5K9kcXAtKJvr8dHLb8CxLUkQeo8+HFqXUrigFMsGFMev6SDnITmLNT2E8JIzpk+XeQ5++tOfygU9rLcQ7vxp0R8zZgxGjRrVuOBTfgMiDm+99RZuu+22Zk92ypQpMiySiAOHORZnp28PrWoackTeKQ2ZGhRKI/2wDd2tl6a9Bq0ShrBhehkIEYGrm0hTwjMVMKlampOFpulwhQKhabKWik6iXxIaa5RpNGdQtgdguY2MQDtCII8E4ZugRgTBBtIU+qD5cwwFOJhCJlWifYwmIx78qAWh+nub1o6wlgIRg9ywxLCuAukJiBCExZikZYNSNlMFyCAZUu51c0kGXZOtCN/kufK5bQWBRoIgLQMUZqxJOx+No3SyAQk9A9IO1epdEdcEjGwtbFuHF49Lgu46QMwQ8OwMIroKW+iwFMoNoiBC44KogmowQWgrD5zvgxH4DyCwhwgCKREcKDR3QYHt2PAUAWHoMFQNGkU5UPEFVYWtKbAAxChMshUAwiJL4cIfkgGyINDv9G9Ytjm0CITFmcL3QhIQnh9+DVsQ/gM9ji/5X0GgNYIQOgWooom1ZTWOHTkSK1Ol6Pud7uhqOtAjMfxz1SZ07daVFD9wyXpgqLC3V2Ptpirc/+wcHDfsYBhUOI0qo2lMEP4rD5O/hBHYQwjsQYLgScGi5QSmShIEQiBKDlAiDkQSdA9pTYC8pQno0HZgziQrAi32YVgi/R1aCEILQliLgXAmfUFoHaAcCSFhCEMbc8tC07l8MAKFhkBzggAIEg4HJJscDuktq3HciBHoNeqHuOe2G/DWnGdw0c9+gYeffwVHDB8K8i64jg1X0fHF4r/g6JPOxl3PvIRTRx2JiHChqDQa2b1QaP2C75cR+CYI7BGC4O/6aZJRYQnAFpTdQIGpqtCJHJAtlKQKhouM6kiCUEJln1uZkEKLAZ1P2Q9pkQ+THBFpsCyr8W8SItJBpIAO+iy9FuoV6L6IXIQWBa7D8E26Ep/blhBojSDQKCMrnGNnIWq/wqijjsK+x5yL234/DeeePArv/2Mx3GiZlP24bgaZTApTf38zRg+pxMSLr8P98+Zj+IC+Ml9J1lVg6q2NyLaEAt8LI8AIfBsE9ghBkNWfXcq+6EDRqbaCP9HIBIuybDRVhRZQo2RMIPcDECHR4k52LEQOaLdPi3+4wOdqCEL3AbkNiDSEeQ6IFIRFmejfUINAoLKL4dt0Lf7snkSgJUGg0GOfhvtZTrPV63D8yJHoeuSZOHBIf3z01wXYt+d38POrpuHzrzbg1htvwOrP1+DRp55GtGo5hp9+Me5bsABj9u8vPy/UCBVqbXVEhi693PHEIcN7sjfwdzMCu4fAHiMIUlJNfkxiBVQrWs5ogSpa8SUICukXydJAeRN2oJhOp9MyfDF0C4SLPREFWuAppDEMb6RvCHUHRCiIJISCRUqvHI/HJYohMSAiwS6G3etY/Kk9i0BrBEEu55KZO0hv/QLDDxuJ1N4HoEeXMrzw6J2Y98ILmLvwbbz+2kJ077kPnnj6afTq3RNrF83BCedejnvnzcfxQ/pCVwQabBUdIju2IKRSKTnuXnrpJdxxxx2ykFpYUXXPIsPfzggwAruKwJ4hCIF539EcZO16mJomF2VFaBBODJ6qyfoNmgcY5H6gSY2qPSpf93nSbiX3IKJAB1kCaJKiRZ8WenIlEJmg8ynaISQGIbEIoxzkfQSuCc6muKvdiM9rawjslCAIB+629TjxhJNQdvBYPHD3LfC2VeGO2/6Alxa8jE9Wr8XFP/8Vfjz5AvTv0RWfLnoZI8++DA8umI8jenTB9ddNxServ4TqZAOT39dbnysOprE4aNAg3HLLLW0NJr4fRoAR2AkCe4QguPDQ4KWw0d2CmuxWdIzFEdVMlIo44koZPETgejriigLd9aA4FmBShsavtyQMZ6QJKVzkQ7cBLfBkQSArAL1P+gLSFdTX18vKjvR3qEEIPxPqFHKjIbgHMQKFhsDXCUIQA0QJx6heStXnGHHUKPQ67lyMOHIonn/4PnQt64jrZ0zD/y75F2bNW4gVn6zEwJ7l6NPZxOMLP8I9L87H2O/1hUvCXp0ylbTuYghdC7muhpB4FxqOfL+MQHtGYI8QhIzIYoOzBQ/+9Um8sfxNDPpuX+zTtRtOG3QiemJvRNABwo0gphnQXeGneKHsjK1YEPr164fevXvjtddekyJF2qW8//778u/Zs2fLcs5EBGiCCvUFoQuhQ4cOOPXUU6X5kwgEWROIQBCpCMWO7blzcNsLFwEiCDLHmMyDIH1r/nIeuBhSVesw9qQxeGONQ3Qci/4yFw/dew8ef/ABmCVxTJkxE+POGodzRh2KK351MS6efj+efHk+Rg3qA9d24JkR6B6pGppb8OiraHyFLj76nUqtE/Fmi1zh9ie+8/aJwB4hCFlhYXVmHa6bfROW1a1EvMxAWaIDTh0yGif1PxYdUYmI1wEGZVQUHlSa29TWJVF9+/YFkQQq80xEgKoy/utf/2oMe3zssccahYthtEKoU5g2bRrmzJmDF198UVaEDKMayBURag9YqNg+B0aht3qnBMHJwqrdhONGHYsNsX44Y+wJuOjcs7Hkg/fx7uvz8eATT+HgE87CHQ/cjYVP3IlB39kbZ/1iOh58YQ5O+v4AeI4Lz9Chk4SoFYKQKwgO3XVEzjnpWKH3Kr7/9oZA/ghCkLKdchtQVQaaOKRRk9Igyp0LqQ79f9Kw8am9BhNu+Qm2dqqFrTVAcVx0y8RxcNl3MXLQsTj+uychqpgo0RIwdcpF4JtI/asFuyFZzbEv+vTpg1deeVVmeZs+fQZWfbYa9993D2pqamQa5tCNsPfee8trhNEOtMvZsmULKisr5eQVmkQnTpyIG2+8Mdh4cax3exsUxdLeZmnPpSUhSJXkuchsW48Rw49G/zE/xu23zEBHSl2WSUMRSWytSSOlRdChc1d0Vhrw0d/fwbFnXYKn58/HMd8bKEOUHXXHBCHELzdZGUcxFEuv4na0JwTyQxCCgky26iEjLDhqRmZ/N6FA83SoHnkrVXgUYqgCWQisSX+OS577f1jufISMslWmgC1xTOh2DF0j3VDaEMd5I36EYQOOR6foXjDhwbNtxIwIli5egk1fbYLnerjowovwne/0wh133olNmzZh1uznsP7L9Vi1YjmGDj1IEoSHHnpImj2JKJAbgVwIoWaBHvZ7772Hbdu2yedOgsbTTjutkRywBaE9DYdiaitRdSAJVZLqmJeE4tmAXgpPKHCrv8CI4Ueh18gzcc8fb8IzD9+DBa++Ct22UVuXwtJV1bj2hpsw6cyh+GTZYoyZ8AvMenEuhu3XD47iwdV0RLlcUzF1GG4LI/A1BPJDEChxO2xsV5J4fc2bWLj8LSStJLK6JUOitMCK4JBQUKU8SKosDb3aWYXPt38KlBkQVAUyo0DNelB0DaYeQaxWxyF9R2OQMQAXjZiEzkYFhOdg5UfLsGrlp9IS8IuLf4mue3XDvfc9gM1bNuGpWc9g0+bNmHH9tRh60EFSSxBqECh6gYjB559/josuukhaDcgcumjRIjz66KON+RFGjx4tzwsFi9xvGIHCQ8AnCHUBQUh49VA9C0IvhxAKGjZ+hnFjTsCq+gT2G9gXEZGRZVEMx0EqlcXiZRuRtjwMH9YL6XQD/rVyM56ftwBH7N8fjuIiI3SUGj754IMRYASKE4H8EARYyIo6rE59hQsevAz/dFfBMwErnoHQLYCU0ySOoh/FgyYMGFYUiurJXAfprAMoOoQRBzwLSiwFQcVkVBPKRhWDcRD+Z58f4rxTJiKmmzINrKHq+MMtt+KKyy/HsGFHYcErL2PDhi24+967sWrNGvzltVfQrVtXqT+48sorZbVHIgvkRli5cqUMu6qursbcuXNx7rnnShIRuhjC80KtQnE+em5VcSPgE4T6gCDEiSAIB0LrCMtyoaW3Ytghh6HPqNNx7x9vRonhIZ1JI2oq8NICbiQOoWsw0ID33nsLE374Kzw5aw4O/15fKFFNioYpawkThOLuRdy69o1AXgiCS4lXYGGdtQVTZk/F37cvhaU5yBhJqLoL1XOh04/ryJwGugtEFAMZKwOLdvFmQmZTdGWNpnp4JSnAsADPQLy2E3pu64E7x/8BRww4DMJ1YKoRXHvNtaiprsEzTz+F+voGnDr+dHz/+wfiL2+9ic1VVbjmistl3oPNmzeDSj7TYk9RC3R8+OGHGDp0KNavX4+FCxfiRz/6kSQIYU2G0LJA57IVoX0PkMJtfSsuBuFCaCXwPAVOsgrPPv0k4j32x0mjj5HlnhUjAs+qh2YkYDkaHKEgFknjy6/W4rWF/4uTx01A1zITlufCU3REKQlq4QLEd84IMAL/BoG8EATSPtHuu0GzsdGuQtLNSKGigCu1BSY0mZZVl+JFDxnYaEAKQiTx2vq3MfO9J5F2LaScNCp0BY5Ioz6bRomxF07vPRZXHflrlGtliGlx6JTIyPNQEu+AkSNGYumSJRg4aBBmPfMsKjtXYvqM32L12s8xfuw4/OAHZ+Grr75qJAYUZhVaEAYOHCjFiUQM6urqUF5e3uiOIIsChUuS9SG3hDT3JkagcBDwCUI6qGASJQIgPAgt5ouGnRQURaDWi0NzLZSYBhzKaOqmoJtxeK4uU5w7dj0sKwsz3llKHE3Vg03l03Vjh6mWCwcjvlNGgBHYGQL5IQhB/QSyN3qKA1eWYwR04WdHhBtEMsj3KbDBQwPSWJpcgvMfnowvopshDIpyUGCmFZSrHXB4/0PQuaEbzj/qfAwuHSB3KpTYVRECt8+8He///X2MPeUUTJ06FX369pV5DzxPwPU87LtvL2gqZPjimjVrMHjwYBAhCAnC8uXLMWTIENTW1sp0sKNGjZLuhqVLlzYmUyIiwWFZPHgKGQGKJ7KCmB9D2LKEs1AoIkiB4vlZEC0qeOJ6iKhUFp0MeTYsKlimRKHK7KW+AtnxVGiUK0RxpV4IQodB7J8PRoARKFoE8kMQGuGhycQJNAcKZL5kl2wHvrOS/iSRIs05VF7hjEd+jHe8d5AtrYbnOjBSBgynHL0i38HlIy/Gcb2PRIlSDs8zoOl+UpYw2DE0bQ4cMAC9e/XGnHlzoesGHn/8cVx8yaWIx0yZ4+Coo47CtddeiyuuuEK6C2jR/+CDD3DIIYfIEEdyOyxevBgkTKRoh3vuuQennHIKJk+ezHUYirbbt4+GEUFwAoKgCfqNwoz98UhkgRiBo+hyTKlBTKSnEJGg9Oa6DFEmfTFdh0KLqXSKq1BtVc0XHrN/oX10JG5lu0UgPwQhzMpCYkQ5gZDPIWAF0slAOxF/FnLhyqKzDW4WD656DLe8eTOS5nboioZRfY/Br4dfha8+XYej+h2MCiUBeLoUMJJGwZ/Ymh+UJInyIDzyyCP47LPPcNZZZ8mwRbIcjBs3TqZVJoJw9913SyvB66+/LpMikUiRNAcXXHABLr30UmldOOKII2T9BroGkQVyMXD2t3Y7Ngq+4aFhjxpCtRzpoKXeH0f+oKWIImnfC8awoxKRcKFK658BTxIEn0DQ665COiJDvs8KxYLvItwARmCnCOSFIJDdgKyO/twj/8r50jC1kQeNdi2wZJhV1lPwTvY9THvyOtTUbUHnjpX47dm/Ry+jPyqNChikWFQdWRLaUw3o5DsNki3ltojIwf7774/zzz8fn376qRQfHnnkkTLvwQsvvIAJEyZg+PDhUpg4ffp0meOABIsDBgzAjBkz5N8nn3yyDHs88MADcfzxx2PSpEmYOXOmdD+E2Re5HzEChYbA15Mg77gFIUGwJEGwZaSQ6kXgaZoczZRWmTKYOGQ4EBFoxBwCz2Gh4cL3ywgwAruGQF4Igp8Fwd9p5Lolwx0MvUbcwSDrgchK02XW8VAXacAG50skvJiUMVZonVAqyqE4iizlaNu1UGMmVCVCKZd8gtDCjEA7fqrBEBZfokWdCEBYwZGSIpEQkXImJBIJ+XHSHpCrgf4mgSK9R/niy8rKZBIlIhf0Gl03t1T0rkHKZzECbQOBRs6eQ9lDC1xo9KOxKc8LXiCCQKOZBMWU4MxTIwFBIJqQhqOSqyEKjXRF4cBuG83lu2AEGIE8I5AXgkB2Afrx127fiOnvXnxDZpgYmSYdCBtkt7RdgXQkjSqvCqYSlQShg1eCEq9Esg0REUg79YhQFUdXhU6CqdDB0MLPQOGM5ArwXQKGjFSwbUdGJYSFY0h/QO8TMSASECZNImIQloQmawFdJywBTecxQchzj+PL/dcQ8Mee//8g2WmjV2BHBCEbWBB8gqDDVU15BQpTBjJMEP5rT4+/iBHY8wjkhSDIZkhGQAQg1B/QKh7YE1oKB2RYJL0tkKZJRwqnVJieCtNW5CWcGNAAF6aiImpTraaci+T8StYC+fVCQNfVxsWd3BhEDsh6QAt/WGshhDyMUgirzoWkIDyP3qeDUy3v+U7Kd7B7CDRRAyIIPlUIExs1EQSSIPpknsTDlupBJReDtPZpcCnqQdBIDiwICmkTTHYx7N4j4U8xAgWFQP4IQkgSaJaRM05TQaVmysIWjlHyGoSKBenSDP4gDRQZO4liSIU1K6YLqmPxzbYtBMJhlzuMWhtW/nm5dCK0QfgOQ/8zpFz0i6/xwQgwAsWLQH4JQvHixC1jBBgBRoARYATaFQJMENrV4+bGMgKMACPACDACu4YAE4Rdw4nPYgQYAUaAEWAE2hUCjQQhkUgISh7EByPACDACjAAjwAgwAlu3bsXs2bPxf8p6W+Xkf+Q2AAAAAElFTkSuQmCC;" vertex="1" parent="1">
          <mxGeometry x="140" y="60" width="556.46" height="290" as="geometry" />
        </mxCell>
      </root>
    </mxGraphModel>
  </diagram>
</mxfile>
